<?xml version="1.0" standalone="no"?>
<!DOCTYPE svg PUBLIC "-//W3C//DTD SVG 20010904//EN"
 "http://www.w3.org/TR/2001/REC-SVG-20010904/DTD/svg10.dtd">
<svg version="1.0" xmlns="http://www.w3.org/2000/svg"
 width="512.000000pt" height="512.000000pt" viewBox="0 0 512.000000 512.000000"
 preserveAspectRatio="xMidYMid meet">
<metadata>
Created by potrace 1.16, written by Peter Selinger 2001-2019
</metadata>
<g transform="translate(0.000000,512.000000) scale(0.100000,-0.100000)"
fill="#000000" stroke="none">
<path d="M2160 4829 c0 -6 -4 -8 -10 -4 -16 10 -80 -23 -146 -77 -35 -28 -64
-55 -64 -60 0 -4 -13 -29 -29 -55 -16 -27 -36 -69 -46 -95 l-17 -47 -218 -3
c-270 -4 -260 1 -260 -130 l0 -88 -282 0 c-264 0 -285 -1 -315 -20 -18 -11
-33 -25 -33 -32 -2 -791 1 -3852 5 -3858 2 -4 20 -15 39 -24 31 -14 136 -16
1075 -16 573 0 1041 2 1041 5 0 10 -54 105 -60 105 -3 0 -37 21 -76 47 -38 25
-70 45 -71 45 -2 -1 -399 -2 -883 -2 l-880 0 0 1770 0 1770 215 0 215 0 0
-119 c0 -117 1 -120 26 -140 27 -21 32 -21 843 -21 796 0 817 1 849 20 l32 20
0 120 0 120 209 0 209 0 5 -27 c3 -15 3 -432 0 -928 l-5 -900 49 -11 c58 -14
133 -46 133 -56 0 -5 7 -8 15 -8 13 0 15 103 15 868 0 478 -3 944 -7 1036 -6
164 -7 167 -34 199 l-28 32 -280 3 -280 3 -3 86 c-3 81 -5 87 -31 107 -27 20
-42 21 -245 23 l-217 3 -16 38 c-9 21 -20 53 -24 71 -4 18 -13 35 -21 38 -8 3
-14 12 -14 20 0 40 -191 182 -226 169 -8 -3 -14 -1 -14 4 0 5 -31 9 -70 9 -39
0 -70 -5 -70 -10z"/>
<path d="M1379 3211 c-21 -22 -29 -39 -29 -66 0 -27 8 -44 29 -66 l29 -29 829
0 c769 0 830 2 849 18 51 41 57 96 15 141 l-29 31 -832 0 -832 0 -29 -29z"/>
<path d="M1410 2593 c-38 -14 -60 -46 -60 -90 0 -49 18 -75 63 -92 39 -15
1605 -15 1644 0 65 24 92 85 62 141 -26 48 -23 48 -886 47 -444 0 -815 -3
-823 -6z"/>
<path d="M3409 1990 c-7 -5 -18 -6 -26 -3 -7 3 -19 0 -27 -6 -7 -6 -15 -9 -18
-6 -8 9 -114 -32 -206 -80 -195 -100 -380 -328 -423 -521 -7 -30 -16 -54 -20
-54 -5 0 -6 -7 -3 -15 4 -8 3 -23 -1 -32 -9 -23 -9 -243 0 -265 4 -10 5 -25 1
-33 -3 -8 -2 -15 2 -15 4 0 16 -30 26 -67 19 -72 61 -162 109 -233 77 -113
236 -249 356 -303 53 -24 46 -22 89 -32 17 -4 32 -11 32 -15 0 -5 9 -6 20 -3
11 3 20 1 20 -5 0 -6 9 -8 20 -5 11 3 20 1 20 -5 0 -6 57 -10 155 -9 93 0 155
4 155 10 0 5 9 7 20 4 11 -3 23 -1 26 5 3 5 12 7 20 4 8 -3 14 -2 14 3 0 7 51
23 63 20 1 0 38 17 82 40 100 50 203 132 278 219 64 75 150 238 169 320 6 28
15 52 20 52 5 0 7 9 3 20 -3 11 -3 25 1 32 10 15 9 237 -1 261 -4 9 -5 24 -1
32 3 8 2 15 -3 15 -5 0 -12 17 -16 38 -11 62 -65 180 -117 258 -61 91 -189
213 -276 261 -81 45 -230 106 -242 98 -5 -3 -11 -1 -15 5 -3 5 -16 10 -28 10
-12 0 -77 2 -144 4 -67 2 -127 0 -134 -4z m346 -224 c199 -70 363 -241 420
-438 9 -32 14 -62 10 -68 -3 -5 -2 -10 2 -10 5 0 8 -48 7 -107 0 -60 -2 -108
-3 -108 -1 0 -4 -16 -6 -35 -5 -45 -37 -129 -78 -200 -51 -90 -169 -199 -270
-249 -47 -23 -91 -40 -97 -36 -5 3 -10 1 -10 -6 0 -6 -8 -9 -20 -6 -11 3 -20
1 -20 -5 0 -6 -7 -7 -16 -4 -9 3 -21 3 -27 -1 -17 -11 -217 -11 -217 -1 0 5
-9 6 -20 3 -11 -3 -20 -2 -20 3 0 6 -9 8 -20 5 -12 -3 -20 0 -20 6 0 7 -5 9
-10 6 -6 -4 -49 12 -97 35 -157 76 -289 234 -339 405 -18 63 -27 295 -11 295
4 0 5 5 2 10 -10 16 23 118 62 192 88 168 242 283 458 341 11 3 74 5 140 3
102 -2 132 -6 200 -30z"/>
<path d="M3486 1599 l-26 -31 0 -234 c0 -245 6 -283 45 -298 9 -3 118 -6 241
-6 211 0 225 1 244 20 29 29 30 81 2 109 -13 13 -47 17 -189 19 l-173 3 0 191
c0 189 0 191 -26 225 -34 45 -81 46 -118 2z"/>
<path d="M1398 1974 c-35 -18 -48 -43 -48 -88 0 -28 7 -41 33 -61 l33 -26 671
0 c785 0 723 -8 793 109 22 38 40 71 40 75 0 4 -336 7 -747 7 -641 -1 -752 -3
-775 -16z"/>
<path d="M1377 1332 c-39 -41 -38 -103 2 -143 l29 -29 536 0 c504 0 536 1 536
18 1 25 36 100 65 134 14 16 25 34 25 39 0 6 -227 9 -583 9 l-584 -1 -26 -27z"/>
</g>
</svg>
