<?xml version="1.0" standalone="no"?>
<!DOCTYPE svg PUBLIC "-//W3C//DTD SVG 20010904//EN"
 "http://www.w3.org/TR/2001/REC-SVG-20010904/DTD/svg10.dtd">
<svg version="1.0" xmlns="http://www.w3.org/2000/svg"
 width="512.000000pt" height="512.000000pt" viewBox="0 0 512.000000 512.000000"
 preserveAspectRatio="xMidYMid meet">
<metadata>
Created by potrace 1.16, written by Peter Selinger 2001-2019
</metadata>
<g transform="translate(0.000000,512.000000) scale(0.100000,-0.100000)"
fill="#000000" stroke="none">
<path d="M1027 4358 c-3 -7 -22 -22 -43 -33 -88 -45 -139 -115 -163 -220 -14
-63 6 -169 43 -225 28 -43 106 -110 128 -110 7 0 19 -5 26 -12 7 -7 47 -12
105 -12 80 -1 101 3 139 23 64 32 148 115 148 144 0 7 6 19 13 26 8 8 12 47
12 118 0 76 -4 108 -12 111 -7 2 -13 11 -13 21 0 26 -90 114 -143 139 -26 12
-47 27 -47 32 0 15 -187 13 -193 -2z"/>
<path d="M2460 4360 c0 -5 -19 -19 -41 -31 -57 -28 -117 -86 -136 -129 -8 -19
-22 -50 -30 -69 -18 -40 -14 -162 5 -169 7 -2 12 -12 12 -23 0 -26 18 -56 56
-93 52 -52 84 -76 97 -76 7 0 18 -5 25 -12 8 -8 48 -12 112 -12 64 0 104 4
112 12 7 7 18 12 25 12 13 0 45 24 97 76 35 35 56 67 56 88 0 7 7 27 15 42 20
38 19 114 -1 161 -9 21 -22 49 -28 63 -15 35 -84 102 -130 125 -21 11 -40 26
-43 33 -6 15 -203 18 -203 2z"/>
<path d="M3900 4360 c0 -5 -20 -19 -45 -31 -50 -23 -145 -121 -145 -148 0 -9
-5 -22 -11 -28 -17 -17 -16 -150 1 -208 11 -38 30 -65 77 -112 35 -35 71 -63
82 -63 11 0 21 -5 23 -12 3 -8 36 -12 104 -12 88 -1 107 2 148 23 52 27 136
106 136 127 0 8 5 14 10 14 6 0 10 11 10 23 0 13 7 39 16 56 17 35 14 115 -6
135 -6 6 -10 23 -10 38 0 15 -4 28 -10 28 -5 0 -10 7 -10 15 0 23 -82 99 -133
123 -26 12 -47 27 -47 32 0 6 -39 10 -95 10 -56 0 -95 -4 -95 -10z"/>
<path d="M715 3670 c-3 -5 -19 -10 -36 -10 -16 0 -29 -4 -29 -10 0 -5 -5 -10
-11 -10 -26 0 -139 -102 -139 -126 0 -7 -7 -14 -15 -18 -13 -5 -15 -78 -15
-574 l0 -569 49 -46 c27 -26 56 -47 63 -47 8 0 18 -4 24 -9 5 -5 20 -11 34
-13 31 -4 38 -32 51 -198 5 -69 14 -178 19 -242 6 -65 13 -171 18 -235 4 -65
11 -124 16 -132 5 -8 13 -73 18 -145 13 -193 27 -355 34 -408 l6 -48 324 0
c178 0 325 1 325 3 1 1 5 58 11 127 5 69 13 172 18 230 5 58 13 159 18 225 4
67 12 127 17 135 5 8 13 68 17 135 5 66 13 170 18 230 6 61 13 157 17 215 8
102 9 105 33 108 65 8 179 97 180 141 0 9 7 25 15 35 22 30 22 950 0 992 -8
16 -15 37 -15 46 0 9 -4 20 -10 23 -5 3 -10 15 -10 26 0 10 -3 19 -7 19 -5 0
-17 14 -28 30 -27 41 -127 110 -158 110 -14 0 -29 5 -32 10 -4 6 -152 10 -410
10 -258 0 -406 -4 -410 -10z m945 -395 l0 -125 -217 0 -218 0 0 125 0 125 218
0 217 0 0 -125z"/>
<path d="M2145 3670 c-3 -5 -14 -10 -24 -10 -34 0 -86 -34 -143 -92 -32 -32
-58 -67 -58 -78 0 -11 -3 -20 -8 -20 -4 0 -14 -21 -21 -47 -11 -37 -15 -149
-18 -493 -3 -404 -2 -451 14 -509 27 -95 108 -172 193 -183 18 -2 24 -8 23
-23 -1 -11 3 -51 9 -90 6 -38 14 -117 19 -175 5 -58 13 -157 18 -220 5 -63 14
-170 20 -237 5 -68 13 -128 17 -135 4 -7 12 -66 16 -133 18 -250 26 -341 33
-367 l7 -28 318 0 318 0 7 28 c7 27 20 176 33 377 4 61 11 115 15 122 4 7 12
70 18 140 6 70 14 175 19 233 5 58 13 159 18 225 6 66 15 145 21 176 6 30 10
66 9 80 -2 19 2 25 22 27 43 5 110 44 142 83 65 78 68 105 68 592 0 367 -2
443 -15 474 -8 19 -15 46 -15 59 0 13 -4 24 -10 24 -5 0 -10 8 -10 19 0 25
-107 134 -150 153 -86 37 -103 38 -503 38 -253 0 -398 -4 -402 -10z m960 -395
l0 -125 -220 0 -220 0 2 122 c1 68 2 124 3 126 0 1 98 2 218 2 l217 0 0 -125z"/>
<path d="M3565 3667 c-72 -25 -102 -43 -150 -91 -27 -28 -56 -64 -63 -81 -8
-16 -20 -43 -28 -58 -11 -23 -14 -118 -14 -521 l0 -493 26 -49 c14 -27 34 -58
45 -70 26 -28 96 -64 124 -64 13 0 27 -5 31 -12 4 -6 12 -68 17 -137 5 -69 12
-173 17 -231 5 -58 13 -160 18 -226 5 -67 13 -128 18 -135 4 -7 12 -67 16
-134 5 -66 13 -169 19 -230 5 -60 12 -154 15 -207 l6 -98 328 0 328 0 6 78 c4
42 11 124 16 182 5 58 13 161 18 230 4 69 12 132 17 140 5 8 13 68 17 135 5
66 13 167 18 225 4 58 13 161 18 230 13 156 21 184 53 188 13 2 28 8 34 13 5
5 16 9 25 9 8 0 36 22 63 49 l47 49 0 566 c0 494 -2 567 -15 572 -8 4 -15 11
-15 18 -1 25 -93 108 -150 132 -73 32 -102 34 -486 33 -241 -1 -400 -5 -419
-12z m985 -392 l0 -125 -220 0 -220 0 0 125 0 125 220 0 220 0 0 -125z"/>
</g>
</svg>
