<?xml version="1.0" standalone="no"?>
<!DOCTYPE svg PUBLIC "-//W3C//DTD SVG 20010904//EN"
 "http://www.w3.org/TR/2001/REC-SVG-20010904/DTD/svg10.dtd">
<svg version="1.0" xmlns="http://www.w3.org/2000/svg"
 width="512.000000pt" height="512.000000pt" viewBox="0 0 512.000000 512.000000"
 preserveAspectRatio="xMidYMid meet">
<metadata>
Created by potrace 1.16, written by Peter Selinger 2001-2019
</metadata>
<g transform="translate(0.000000,512.000000) scale(0.100000,-0.100000)"
fill="#000000" stroke="none">
<path d="M1470 4308 c0 -5 -6 -8 -14 -8 -7 0 -16 -14 -20 -31 -3 -17 -6 -299
-6 -626 0 -590 0 -594 21 -623 12 -16 28 -26 35 -23 8 3 14 0 14 -6 0 -8 292
-11 1060 -11 768 0 1060 3 1060 11 0 6 6 9 14 6 7 -3 23 7 35 23 21 29 21 33
21 623 0 327 -3 609 -6 626 -4 17 -13 31 -20 31 -8 0 -14 3 -14 8 0 4 -490 7
-1090 7 -600 0 -1090 -3 -1090 -7z m2103 -645 l-2 -538 -1011 -3 -1010 -2 0
517 c0 285 -3 528 -6 541 l-6 22 1018 0 1019 0 -2 -537z"/>
<path d="M1248 2800 c-2 -6 -15 -12 -30 -14 -32 -3 -106 -86 -115 -127 -3 -16
-12 -34 -19 -40 -16 -13 -19 -79 -5 -79 5 0 15 -17 22 -37 7 -21 23 -52 36
-70 30 -39 27 -69 -5 -65 -12 2 -22 -2 -22 -7 0 -6 -5 -11 -10 -11 -6 0 -28
-11 -51 -25 -22 -14 -43 -23 -48 -21 -19 12 -67 -73 -57 -100 4 -9 9 -14 13
-11 3 4 14 2 25 -4 11 -6 17 -13 14 -16 -8 -8 24 -43 39 -43 7 0 20 -17 29
-37 9 -21 21 -45 25 -53 7 -12 39 -15 192 -15 l184 0 24 51 c13 30 35 58 52
68 16 9 29 24 29 32 0 8 5 15 10 15 6 1 14 2 18 3 5 0 16 8 25 17 15 16 13 20
-28 58 -25 23 -45 46 -45 51 0 5 -7 7 -15 4 -8 -4 -15 -1 -15 5 0 6 -7 11 -16
11 -9 0 -12 5 -8 12 5 8 0 9 -14 6 -12 -4 -22 -2 -22 2 0 4 -9 6 -20 3 -14 -4
-20 0 -20 12 0 12 -6 15 -22 10 -19 -5 -17 0 13 28 67 64 89 178 50 262 -22
48 -100 121 -124 117 -9 -2 -17 1 -17 7 0 14 -67 14 -72 1z"/>
<path d="M2100 2799 c0 -6 -9 -9 -20 -6 -11 3 -20 1 -20 -4 0 -5 -6 -9 -12 -9
-20 -1 -87 -91 -99 -132 -5 -21 -14 -38 -19 -38 -6 0 -10 -13 -10 -30 0 -16 4
-30 10 -30 5 0 15 -20 21 -45 8 -30 25 -59 53 -87 22 -23 33 -39 24 -35 -10 3
-19 0 -22 -9 -4 -10 -13 -13 -26 -9 -11 3 -20 3 -20 -2 0 -7 -56 -37 -71 -38
-3 0 -13 -8 -23 -17 -10 -10 -23 -18 -29 -18 -7 0 -21 -15 -31 -34 -18 -34
-15 -56 7 -56 19 0 98 -91 118 -137 l18 -43 186 0 185 0 10 28 c26 73 74 133
121 152 16 7 29 18 29 25 0 11 -88 100 -100 100 -16 0 -70 29 -70 37 0 5 -9 6
-20 3 -13 -4 -22 -1 -26 9 -3 9 -12 12 -22 9 -9 -3 0 12 20 33 20 21 44 56 53
76 19 47 19 128 0 175 -16 39 -80 115 -89 106 -3 -3 -8 1 -11 9 -4 10 -14 14
-26 11 -10 -3 -19 0 -19 6 0 6 -16 11 -35 11 -19 0 -35 -5 -35 -11z"/>
<path d="M2950 2799 c0 -6 -9 -9 -19 -6 -12 3 -22 -1 -26 -11 -3 -8 -8 -12
-11 -9 -9 9 -73 -67 -89 -106 -19 -47 -19 -128 0 -175 9 -20 33 -55 53 -76 20
-21 29 -36 20 -33 -10 3 -19 0 -22 -9 -4 -10 -13 -13 -26 -9 -11 3 -20 2 -20
-3 0 -5 -19 -17 -42 -28 -24 -10 -61 -35 -83 -56 -22 -21 -43 -38 -47 -38 -20
0 -5 -29 17 -34 41 -10 90 -62 121 -126 l28 -60 183 0 c112 0 184 4 188 10 4
6 11 8 16 4 6 -3 7 4 4 18 -5 19 3 37 35 76 22 29 45 52 51 52 5 0 19 9 31 20
21 19 21 20 2 55 -10 19 -24 35 -31 35 -6 0 -19 8 -29 18 -10 9 -20 17 -23 17
-15 1 -71 31 -71 38 0 5 -9 5 -20 2 -13 -4 -22 -1 -26 9 -3 9 -12 12 -22 9 -9
-4 2 12 24 35 28 28 45 57 53 87 6 25 16 45 21 45 6 0 10 14 10 30 0 17 -4 30
-10 30 -5 0 -14 18 -20 40 -11 42 -76 128 -97 129 -7 1 -13 5 -13 10 0 5 -9 7
-20 4 -11 -3 -20 0 -20 6 0 6 -16 11 -35 11 -19 0 -35 -5 -35 -11z"/>
<path d="M3800 2799 c0 -6 -8 -9 -17 -7 -10 2 -28 -7 -42 -19 -13 -13 -29 -23
-35 -23 -6 0 -23 -26 -39 -58 -47 -102 -31 -208 42 -279 20 -19 28 -33 19 -30
-9 3 -19 -1 -22 -10 -4 -9 -14 -13 -26 -10 -11 3 -20 1 -20 -3 0 -4 -10 -6
-22 -2 -14 3 -19 2 -14 -6 4 -7 1 -12 -8 -12 -9 0 -16 -4 -16 -10 0 -5 -5 -10
-11 -10 -6 0 -32 -21 -59 -46 -45 -43 -48 -48 -33 -63 9 -9 20 -17 25 -17 4
-1 13 -2 18 -3 6 0 10 -7 10 -15 0 -8 13 -23 30 -32 16 -10 37 -34 45 -54 9
-19 20 -42 24 -50 7 -12 39 -15 192 -15 l184 0 24 51 c13 30 35 58 52 68 16 9
29 24 29 32 0 13 12 18 33 15 4 -1 10 6 14 15 9 25 -40 110 -58 98 -5 -2 -26
7 -48 21 -23 14 -45 25 -51 25 -5 0 -10 5 -10 11 0 5 -10 9 -22 7 -32 -4 -35
26 -5 65 13 18 29 49 36 70 7 20 17 37 22 37 15 0 11 77 -5 83 -7 3 -16 19
-19 35 -9 42 -83 125 -115 128 -15 2 -28 8 -30 14 -5 13 -72 13 -72 -1z"/>
<path d="M810 2186 c0 -4 -7 -5 -15 -2 -9 3 -18 -1 -21 -9 -3 -7 -12 -11 -20
-8 -8 3 -14 0 -14 -5 0 -6 -11 -23 -24 -37 -83 -89 -75 -242 17 -326 29 -27
30 -29 10 -29 -12 0 -25 -5 -28 -10 -4 -6 -15 -8 -26 -5 -11 4 -19 2 -19 -5 0
-9 -37 -29 -65 -34 -18 -3 -114 -106 -100 -106 8 0 15 -4 15 -10 0 -5 6 -10
14 -10 8 0 16 -7 20 -15 3 -8 12 -15 19 -15 17 0 73 -77 82 -113 l7 -27 192 0
191 0 19 43 c21 49 63 107 77 107 5 0 22 11 37 25 l27 26 -58 54 c-33 30 -62
53 -67 50 -4 -3 -10 2 -14 10 -3 8 -12 12 -21 9 -8 -3 -15 -1 -15 6 0 6 -5 8
-10 5 -6 -4 -17 -2 -24 4 -8 7 -18 11 -22 10 -26 -4 -23 5 15 46 23 25 44 59
48 75 3 17 9 30 14 30 5 0 9 19 9 43 1 56 -64 183 -97 192 -13 3 -23 10 -23
15 0 6 -9 10 -20 10 -11 0 -20 4 -20 9 0 5 -20 9 -45 8 -25 -1 -45 -6 -45 -11z"/>
<path d="M1660 2189 c0 -5 -9 -9 -20 -9 -11 0 -20 -4 -20 -9 0 -5 -13 -14 -30
-20 -16 -5 -30 -16 -30 -23 0 -7 -9 -24 -20 -38 -11 -14 -20 -33 -20 -42 0
-10 -4 -18 -10 -18 -5 0 -10 -22 -10 -48 0 -59 36 -139 80 -175 17 -15 28 -31
25 -37 -4 -6 -11 -8 -16 -4 -5 3 -16 0 -24 -6 -8 -6 -19 -9 -25 -5 -5 3 -10 1
-10 -5 0 -7 -7 -9 -15 -6 -9 3 -18 -1 -21 -9 -4 -8 -10 -12 -15 -10 -5 3 -34
-19 -66 -50 l-58 -56 22 -17 c11 -9 37 -29 56 -44 19 -15 47 -52 62 -83 l27
-55 188 0 188 0 13 37 c11 35 60 93 79 93 5 0 12 9 15 21 4 12 12 18 21 15 8
-3 14 1 14 9 0 8 6 15 14 15 15 0 -81 102 -99 106 -29 6 -65 25 -65 34 0 7 -8
9 -20 5 -11 -4 -20 -2 -20 4 0 6 -12 11 -27 11 l-27 0 31 29 c92 84 100 237
17 326 -13 14 -24 30 -24 35 0 5 -7 7 -15 4 -8 -4 -15 -1 -15 5 0 6 -9 11 -20
11 -11 0 -20 4 -20 9 0 5 -20 9 -45 9 -25 0 -45 -4 -45 -9z"/>
<path d="M2510 2190 c0 -5 -16 -17 -36 -26 -40 -19 -91 -83 -100 -123 -3 -14
-10 -38 -16 -52 -6 -18 -6 -33 0 -45 6 -11 16 -38 23 -62 8 -29 26 -55 53 -77
41 -35 41 -35 14 -35 -16 0 -28 -4 -28 -9 0 -5 -18 -12 -40 -16 -22 -4 -40
-11 -40 -17 0 -6 -7 -8 -15 -4 -9 3 -15 0 -15 -9 0 -14 -4 -17 -32 -19 -19 -1
-36 -21 -48 -52 -12 -32 -4 -68 15 -61 25 10 99 -82 120 -148 4 -13 34 -15
194 -15 l189 0 23 48 c26 57 86 122 105 115 8 -3 16 5 19 20 9 35 -22 91 -52
93 -29 2 -33 5 -33 19 0 9 -6 12 -15 9 -8 -4 -15 -1 -15 5 0 6 -9 11 -20 11
-11 0 -20 5 -20 11 0 6 -9 9 -20 6 -11 -3 -20 -1 -20 4 0 5 -12 9 -27 9 l-28
1 37 30 c21 17 44 45 52 62 22 53 36 121 25 132 -5 5 -9 20 -9 35 -1 35 -61
113 -104 134 -20 9 -36 21 -36 26 0 6 -22 10 -50 10 -27 0 -50 -4 -50 -10z"/>
<path d="M3370 2189 c0 -5 -9 -9 -20 -9 -11 0 -20 -5 -20 -11 0 -6 -7 -9 -15
-5 -9 3 -15 0 -15 -8 0 -7 -11 -19 -25 -26 -14 -7 -25 -21 -25 -30 0 -9 -5
-21 -12 -28 -13 -13 -28 -164 -18 -172 12 -8 40 -68 40 -83 0 -13 21 -28 42
-31 18 -3 19 -16 0 -16 -11 0 -24 -5 -27 -10 -4 -6 -15 -8 -26 -5 -11 4 -19 2
-19 -5 0 -9 -35 -28 -65 -34 -18 -4 -113 -106 -99 -106 8 0 14 -7 14 -15 0 -8
6 -12 14 -9 9 3 17 -3 21 -15 3 -12 10 -21 15 -21 19 0 68 -58 79 -93 l13 -37
188 0 189 0 27 56 c15 31 43 68 62 82 19 15 44 35 55 44 l22 17 -58 56 c-32
31 -61 53 -66 50 -5 -2 -11 2 -15 10 -3 8 -12 12 -21 9 -8 -3 -15 -1 -15 6 0
6 -5 8 -10 5 -6 -4 -17 -1 -25 5 -8 6 -19 9 -24 6 -5 -4 -12 -2 -16 4 -3 6 8
22 25 37 40 33 80 116 80 164 0 53 -63 175 -95 183 -14 4 -25 11 -25 16 0 6
-9 10 -20 10 -11 0 -20 4 -20 9 0 5 -20 9 -45 9 -25 0 -45 -4 -45 -9z"/>
<path d="M4220 2190 c0 -5 -9 -10 -20 -10 -11 0 -20 -4 -20 -10 0 -5 -10 -12
-23 -15 -33 -9 -98 -136 -97 -192 0 -24 4 -43 9 -43 5 0 11 -14 15 -31 3 -17
24 -49 46 -71 22 -22 37 -44 34 -49 -3 -5 -10 -7 -15 -3 -5 3 -16 0 -24 -6 -8
-6 -19 -9 -25 -5 -5 3 -10 1 -10 -5 0 -7 -7 -9 -15 -6 -9 3 -18 -1 -21 -9 -4
-8 -11 -12 -16 -9 -6 4 -14 0 -19 -7 -4 -8 -13 -15 -19 -15 -5 -1 -15 -2 -22
-3 -6 0 -8 -4 -4 -8 3 -4 -8 -22 -26 -40 l-32 -33 24 -23 c14 -13 33 -26 42
-30 19 -7 75 -89 84 -124 6 -23 8 -23 198 -23 l191 0 18 43 c18 42 59 97 74
97 4 0 19 12 32 25 13 14 29 25 37 25 14 0 -84 103 -101 106 -28 5 -65 25 -65
34 0 7 -8 9 -19 5 -11 -3 -22 -1 -26 5 -3 5 -16 10 -28 10 -20 0 -20 2 10 28
48 41 71 96 75 179 2 39 1 70 -2 68 -3 -2 -11 9 -18 25 -7 15 -24 40 -37 54
-14 15 -25 32 -25 38 0 5 -6 8 -14 5 -8 -3 -17 1 -20 8 -3 8 -12 12 -21 9 -8
-3 -15 -1 -15 5 0 6 -19 11 -45 11 -25 0 -45 -4 -45 -10z"/>
<path d="M365 1571 c-3 -8 -8 -11 -11 -8 -8 8 -94 -73 -94 -89 0 -7 -7 -19
-15 -28 -24 -24 -13 -145 18 -198 14 -24 24 -47 23 -53 0 -5 8 -10 19 -10 11
0 20 -7 20 -15 0 -10 -8 -14 -22 -13 -13 2 -23 -2 -23 -8 0 -6 -9 -9 -20 -6
-11 3 -20 1 -20 -4 0 -5 -7 -9 -15 -9 -8 0 -15 -5 -15 -11 0 -6 -6 -9 -13 -6
-7 3 -19 -3 -25 -13 -6 -10 -21 -20 -34 -22 -16 -2 -30 -17 -45 -50 -13 -27
-26 -48 -31 -48 -8 0 1 -156 10 -166 4 -3 160 -6 349 -7 l343 -2 23 23 c17 17
23 34 23 67 0 24 -4 46 -9 49 -4 3 -11 19 -14 35 -9 41 -82 111 -147 141 -30
14 -56 28 -58 31 -2 4 -11 5 -21 2 -34 -9 -32 16 3 53 19 20 40 51 46 70 7 19
16 34 21 34 11 0 12 97 0 102 -4 2 -19 25 -32 53 -38 79 -43 85 -61 85 -10 0
-18 5 -18 10 0 6 -7 10 -15 10 -8 0 -15 4 -15 8 0 15 -119 8 -125 -7z"/>
<path d="M1214 1574 c-5 -7 -15 -14 -23 -16 -22 -5 -67 -54 -81 -90 -7 -18
-20 -41 -28 -50 -8 -10 -11 -22 -6 -30 10 -16 10 -50 1 -65 -4 -6 -3 -14 3
-18 6 -3 16 -21 24 -39 7 -18 30 -49 50 -68 29 -28 33 -37 21 -41 -8 -4 -22
-4 -30 -1 -8 4 -15 1 -15 -5 0 -6 -9 -11 -20 -11 -11 0 -20 -5 -20 -11 0 -6
-6 -9 -14 -6 -8 3 -16 1 -18 -4 -2 -6 -10 -11 -19 -12 -24 -4 -98 -82 -110
-117 -6 -16 -15 -30 -19 -30 -14 0 2 -113 18 -135 14 -19 27 -20 351 -20 277
0 339 3 351 14 15 15 32 142 20 151 -4 3 -15 19 -23 37 -17 33 -96 103 -116
103 -6 0 -11 5 -11 11 0 5 -4 8 -9 4 -5 -3 -12 -1 -16 5 -3 5 -15 10 -26 10
-10 0 -19 5 -19 11 0 6 -8 8 -19 4 -32 -10 -34 14 -3 43 16 15 37 42 46 60 9
17 21 32 27 32 6 0 8 8 5 18 -3 9 -6 40 -8 67 -3 64 -28 114 -75 153 -21 18
-45 37 -53 44 -21 18 -124 20 -136 2z"/>
<path d="M2080 1578 c0 -4 -9 -8 -20 -8 -11 0 -20 -4 -20 -9 0 -5 -10 -12 -22
-15 -22 -6 -54 -62 -73 -123 -3 -13 -11 -23 -16 -23 -13 0 -11 -68 2 -72 6 -2
12 -16 12 -31 1 -15 5 -27 9 -27 4 0 10 -10 13 -21 4 -12 22 -35 41 -51 33
-29 38 -53 9 -41 -9 3 -21 0 -29 -6 -7 -6 -21 -9 -30 -5 -10 4 -16 1 -16 -8 0
-8 -16 -20 -35 -27 -58 -21 -135 -111 -135 -157 0 -13 -4 -24 -10 -24 -5 0
-10 -18 -10 -40 0 -22 4 -40 8 -40 5 0 14 -10 21 -22 l12 -23 337 0 c282 0
340 2 355 15 33 28 18 179 -23 220 -3 3 -10 14 -16 24 -5 11 -19 21 -29 22
-11 2 -25 10 -31 18 -6 9 -14 13 -17 9 -4 -3 -7 -1 -7 5 0 7 -9 12 -20 12 -11
0 -20 4 -20 9 0 5 -9 7 -20 4 -12 -3 -20 0 -20 7 0 7 -8 9 -19 5 -11 -3 -22
-1 -26 5 -9 14 -2 21 21 24 10 2 21 9 25 17 49 96 61 176 35 244 -19 48 -91
129 -106 120 -6 -4 -12 0 -15 7 -6 14 -115 20 -115 6z"/>
<path d="M2925 1572 c-3 -7 -9 -11 -14 -7 -13 7 -75 -56 -98 -98 -24 -45 -24
-159 0 -212 30 -65 32 -68 51 -71 23 -3 30 -10 21 -24 -4 -6 -15 -8 -26 -5
-11 4 -19 2 -19 -5 0 -7 -8 -10 -20 -7 -11 3 -20 1 -20 -4 0 -5 -9 -9 -20 -9
-11 0 -20 -5 -20 -12 0 -6 -3 -8 -7 -5 -3 4 -11 0 -17 -9 -6 -8 -19 -16 -28
-18 -26 -3 -56 -35 -63 -67 -4 -16 -11 -31 -16 -34 -5 -4 -9 -39 -9 -78 0 -57
4 -76 18 -87 14 -13 72 -15 354 -15 l337 0 12 23 c7 12 16 22 21 22 4 0 8 18
8 40 0 22 -4 40 -10 40 -5 0 -10 11 -10 24 0 46 -77 136 -135 157 -19 7 -35
19 -35 27 0 9 -7 13 -20 9 -11 -3 -23 -1 -26 5 -3 5 -15 8 -25 5 -33 -9 -30
10 5 41 19 16 37 39 41 51 3 11 10 21 15 21 5 0 7 6 4 14 -3 7 2 20 10 29 17
17 22 87 7 87 -5 0 -14 15 -20 32 -26 73 -47 108 -68 114 -13 3 -23 10 -23 15
0 5 -9 9 -20 9 -11 0 -20 3 -20 8 0 13 -109 8 -115 -6z"/>
<path d="M3770 1572 c-8 -7 -32 -26 -53 -44 -48 -39 -72 -89 -75 -153 -2 -28
-5 -58 -8 -67 -3 -10 -1 -18 5 -18 6 0 18 -15 27 -32 9 -18 30 -45 46 -60 31
-29 29 -53 -3 -43 -11 4 -19 2 -19 -4 0 -6 -9 -11 -19 -11 -11 0 -23 -5 -26
-10 -4 -6 -11 -8 -16 -5 -5 4 -9 1 -9 -4 0 -6 -4 -11 -10 -11 -22 0 -90 -58
-111 -95 -12 -22 -25 -42 -29 -45 -12 -9 5 -136 20 -151 12 -11 74 -14 351
-14 324 0 337 1 351 20 16 22 32 135 18 135 -4 0 -13 14 -19 30 -12 35 -86
113 -110 117 -9 1 -17 6 -19 12 -2 5 -10 7 -18 4 -8 -3 -14 0 -14 6 0 6 -9 11
-20 11 -11 0 -20 5 -20 11 0 6 -7 9 -15 5 -8 -3 -22 -3 -30 0 -12 5 -6 15 24
46 22 22 43 49 47 61 3 12 11 28 16 34 12 15 17 113 6 120 -5 2 -14 19 -22 36
-17 41 -67 101 -86 105 -8 2 -19 8 -25 15 -13 16 -116 15 -135 -1z"/>
<path d="M4626 1573 c-3 -7 -18 -16 -34 -19 -29 -6 -33 -10 -71 -89 -13 -28
-28 -51 -32 -53 -12 -5 -11 -102 0 -102 5 0 15 -15 21 -34 6 -19 29 -53 51
-75 37 -36 38 -40 19 -46 -11 -3 -24 -3 -30 0 -5 3 -10 2 -10 -3 0 -6 -9 -8
-20 -5 -11 3 -20 0 -20 -6 0 -6 -17 -19 -37 -29 -51 -23 -133 -108 -133 -138
0 -12 -4 -26 -10 -29 -5 -3 -10 -26 -10 -50 0 -33 6 -50 23 -67 l23 -23 343 2
c189 1 346 4 349 7 9 10 18 166 10 166 -5 0 -18 21 -31 48 -15 33 -29 48 -45
50 -13 2 -28 12 -34 22 -6 10 -18 16 -25 13 -7 -3 -13 0 -13 6 0 6 -7 11 -15
11 -8 0 -15 4 -15 9 0 5 -9 7 -20 4 -11 -3 -20 0 -20 6 0 6 -10 10 -22 8 -15
-1 -23 3 -23 13 0 8 8 15 17 15 10 0 17 2 16 5 -1 3 10 25 24 50 58 99 43 214
-37 289 -25 23 -45 38 -45 34 0 -4 -6 -1 -13 7 -16 20 -124 23 -131 3z"/>
</g>
</svg>
