<?xml version="1.0" standalone="no"?>
<!DOCTYPE svg PUBLIC "-//W3C//DTD SVG 20010904//EN"
 "http://www.w3.org/TR/2001/REC-SVG-20010904/DTD/svg10.dtd">
<svg version="1.0" xmlns="http://www.w3.org/2000/svg"
 width="512.000000pt" height="512.000000pt" viewBox="0 0 512.000000 512.000000"
 preserveAspectRatio="xMidYMid meet">
<metadata>
Created by potrace 1.16, written by Peter Selinger 2001-2019
</metadata>
<g transform="translate(0.000000,512.000000) scale(0.100000,-0.100000)"
fill="#000000" stroke="none">
<path d="M1297 4689 c-3 -12 -12 -19 -22 -17 -18 3 -23 -3 -50 -64 -9 -21 -19
-38 -23 -38 -4 0 -5 -55 -4 -122 l4 -123 -313 3 c-274 2 -314 1 -321 -13 -6
-10 -17 -13 -34 -9 -15 4 -24 2 -24 -5 0 -7 -15 -27 -34 -46 -61 -61 -68 -102
-62 -372 3 -131 8 -262 11 -290 5 -36 3 -53 -4 -53 -6 0 -11 -4 -11 -10 0 -5
7 -7 15 -4 16 6 31 -36 22 -60 -3 -8 1 -17 9 -20 8 -3 14 -15 14 -26 0 -11 4
-29 10 -40 6 -11 15 -29 20 -40 6 -11 10 -27 10 -35 0 -8 5 -15 10 -15 6 0 10
-4 10 -9 0 -39 148 -229 224 -289 30 -23 57 -51 61 -62 4 -12 12 -17 22 -13 9
4 21 -1 29 -12 8 -10 21 -20 29 -21 31 -5 135 -59 135 -71 0 -9 10 -11 30 -6
24 4 30 2 30 -11 0 -14 6 -16 35 -10 28 5 35 3 35 -10 0 -13 10 -15 48 -13 43
2 47 0 50 -23 2 -14 8 -29 13 -34 5 -6 9 -18 9 -28 0 -22 126 -272 146 -288 7
-7 14 -17 14 -22 0 -5 16 -28 35 -51 19 -22 35 -49 35 -59 0 -10 6 -18 13 -18
14 0 108 -96 140 -144 10 -14 23 -24 28 -20 12 7 79 -37 79 -52 0 -6 14 -14
30 -18 19 -3 30 -12 30 -22 0 -10 5 -14 15 -10 9 3 15 0 15 -8 0 -15 27 -30
47 -27 6 1 28 -8 48 -19 19 -11 43 -20 51 -20 9 0 18 -9 21 -21 4 -16 11 -19
29 -15 18 5 24 2 24 -9 0 -12 4 -13 18 -6 21 11 48 -2 38 -18 -5 -8 4 -10 33
-5 34 5 41 4 41 -10 0 -14 6 -16 37 -10 28 5 39 3 49 -11 10 -13 21 -16 44
-12 25 6 30 3 30 -13 0 -11 -4 -20 -10 -20 -6 0 -10 -61 -10 -164 0 -99 4
-167 10 -171 6 -3 10 -13 10 -21 0 -12 -58 -14 -425 -12 -354 3 -425 1 -425
-11 0 -8 -7 -11 -20 -8 -11 3 -20 1 -20 -4 0 -5 -14 -22 -30 -37 -24 -22 -43
-64 -95 -217 -38 -114 -69 -189 -76 -187 -7 2 -9 -5 -6 -20 6 -23 -53 -215
-69 -227 -11 -7 -13 -131 -3 -131 5 0 15 -17 24 -37 26 -60 31 -68 46 -69 8
-1 20 -2 28 -3 7 -1 11 -7 7 -16 -3 -9 0 -15 8 -15 8 0 16 5 18 11 3 9 9 9 25
0 31 -16 2385 -16 2416 0 16 9 22 9 25 0 6 -18 30 -13 28 7 -1 12 6 17 23 17
25 0 28 4 56 68 9 20 19 37 23 37 4 0 7 29 7 65 0 45 -4 65 -12 65 -7 0 -13 8
-13 18 0 9 -14 55 -30 102 -17 49 -27 94 -23 108 3 15 1 22 -6 20 -17 -4 -83
190 -77 224 4 18 1 27 -6 25 -6 -1 -23 29 -38 67 -15 38 -39 79 -53 92 -15 13
-27 27 -27 33 0 5 -9 7 -20 4 -13 -3 -20 0 -20 8 0 12 -71 14 -425 11 -367 -2
-425 0 -425 12 0 8 5 18 10 21 6 4 10 72 10 171 0 103 -4 164 -10 164 -5 0
-10 9 -10 20 0 16 5 19 30 13 23 -4 34 -1 44 12 10 14 21 16 48 11 28 -5 37
-3 42 10 5 13 14 15 42 9 26 -4 34 -3 29 5 -11 17 16 30 37 19 14 -7 18 -6 18
6 0 11 6 14 24 9 18 -4 25 -1 29 15 3 12 12 21 21 21 8 0 32 9 51 20 20 11 42
20 48 19 20 -3 47 12 47 27 0 8 6 11 15 8 10 -4 15 0 15 10 0 10 11 19 30 23
16 3 30 11 30 17 0 15 64 58 80 54 8 -2 19 8 26 21 17 32 125 141 141 141 7 0
13 8 13 18 0 10 16 37 35 59 19 23 35 46 35 51 0 5 7 15 15 22 18 15 145 269
145 291 0 8 4 19 9 25 5 5 11 20 13 34 3 23 7 25 51 23 37 -2 47 0 47 13 0 13
7 15 35 10 29 -6 35 -4 35 10 0 13 6 15 30 11 20 -5 30 -3 30 6 0 12 104 66
135 71 8 1 21 11 29 21 8 11 20 16 29 12 10 -4 18 1 22 13 4 11 31 39 61 62
30 24 78 72 107 108 53 66 117 165 117 181 0 5 5 9 10 9 6 0 10 7 10 15 0 8 5
24 10 35 6 11 15 29 20 40 6 11 10 29 10 40 0 11 6 23 14 26 8 3 12 12 9 20
-9 24 6 66 22 60 8 -3 15 -1 15 4 0 6 -5 10 -11 10 -7 0 -9 17 -5 53 4 28 9
159 12 290 6 269 -1 311 -62 372 -19 19 -34 39 -34 46 0 7 -9 9 -24 5 -17 -4
-28 -1 -34 9 -7 14 -47 15 -321 13 l-313 -3 4 123 c1 67 0 122 -4 122 -4 0
-14 17 -23 38 -26 59 -31 67 -46 68 -8 1 -20 2 -28 3 -7 1 -11 7 -7 16 3 9 0
15 -8 15 -8 0 -16 -5 -18 -11 -3 -9 -9 -9 -25 0 -31 16 -2385 16 -2416 0 -16
-9 -22 -9 -25 0 -6 18 -29 12 -35 -10z m2211 -380 c16 -10 17 -55 16 -691 -2
-611 -3 -687 -19 -744 -10 -35 -21 -67 -26 -70 -5 -3 -9 -13 -9 -23 0 -36
-118 -234 -146 -245 -8 -3 -14 -11 -14 -19 0 -19 -104 -119 -120 -115 -8 2
-20 -9 -27 -24 -8 -16 -19 -29 -26 -30 -43 -5 -67 -18 -67 -35 0 -9 -6 -13
-15 -9 -9 3 -15 0 -15 -10 0 -11 -6 -15 -20 -11 -13 3 -20 0 -20 -10 0 -11 -7
-14 -25 -9 -19 5 -25 2 -25 -10 0 -10 -5 -14 -15 -10 -8 3 -24 -4 -35 -17 -16
-16 -23 -19 -29 -9 -6 9 -13 7 -31 -8 -18 -15 -32 -19 -53 -14 -19 4 -32 2
-37 -6 -11 -18 -359 -18 -370 0 -5 8 -18 10 -37 6 -21 -5 -35 -1 -53 14 -18
15 -25 17 -31 8 -6 -10 -13 -7 -29 9 -11 13 -27 20 -35 17 -10 -4 -15 0 -15
10 0 12 -6 15 -25 10 -18 -5 -25 -2 -25 9 0 10 -7 13 -20 10 -14 -4 -20 0 -20
11 0 10 -6 13 -15 10 -9 -4 -15 0 -15 9 0 17 -24 30 -67 35 -7 1 -18 14 -26
30 -7 15 -19 26 -27 24 -16 -4 -120 96 -120 115 0 8 -6 16 -14 19 -28 11 -146
209 -146 245 0 10 -4 20 -9 23 -5 3 -17 35 -26 70 -16 58 -18 132 -19 743 -1
592 1 680 14 690 20 17 1861 19 1888 2z m-2308 -761 c0 -342 -4 -393 -25 -357
-4 6 -13 8 -21 5 -8 -3 -17 1 -20 9 -4 8 -15 15 -25 15 -11 0 -19 7 -19 16 0
10 -6 14 -14 11 -19 -7 -55 20 -66 49 -6 13 -20 28 -33 33 -45 17 -124 149
-153 253 -15 54 -31 295 -22 319 4 11 46 14 202 14 l196 0 0 -367z m3124 221
c-1 -78 -5 -144 -10 -148 -5 -3 -10 -21 -11 -39 -5 -68 -104 -235 -150 -253
-13 -5 -27 -20 -33 -33 -10 -28 -47 -56 -65 -50 -7 3 -15 -4 -18 -15 -3 -13
-11 -19 -20 -15 -8 3 -17 -2 -20 -10 -4 -9 -13 -13 -21 -10 -8 3 -17 1 -21 -5
-21 -36 -25 15 -25 357 l0 367 197 -2 198 -3 -1 -141z m-927 -2801 c1 -11 7
-25 14 -29 6 -4 22 -36 34 -72 19 -58 20 -64 4 -60 -9 3 -20 0 -23 -6 -10 -16
-1712 -16 -1722 0 -3 6 -14 9 -23 6 -16 -4 -15 2 4 60 12 36 28 68 34 72 7 4
13 18 14 29 l1 22 831 0 831 0 1 -22z"/>
<path d="M2470 3733 c-89 -182 -119 -228 -135 -203 -9 15 -62 12 -68 -4 -8
-20 -91 -30 -117 -14 -18 11 -23 11 -31 -4 -12 -21 -67 -34 -82 -19 -15 15
-47 14 -47 -2 0 -7 14 -26 31 -43 17 -16 35 -39 40 -52 5 -13 14 -20 19 -17
15 9 67 -31 83 -63 7 -15 20 -26 30 -26 27 3 107 -74 107 -102 0 -14 -6 -27
-14 -30 -10 -4 -12 -18 -8 -50 4 -36 2 -44 -12 -44 -13 0 -15 -9 -13 -47 1
-34 -2 -47 -11 -45 -9 1 -11 -8 -6 -38 4 -22 2 -46 -3 -52 -6 -7 -13 -33 -16
-58 -3 -24 -11 -46 -16 -48 -14 -5 -14 -32 -1 -32 6 0 10 6 10 14 0 14 34 30
59 26 7 -1 10 3 7 9 -8 13 44 53 61 47 8 -3 17 4 23 18 8 23 32 39 59 40 8 1
19 10 25 21 15 27 28 36 44 30 7 -3 16 3 19 13 4 9 14 21 22 26 34 21 82 7 94
-26 3 -10 12 -16 19 -13 16 6 29 -3 44 -30 6 -11 17 -20 25 -21 27 -1 51 -17
59 -40 6 -14 15 -21 23 -18 17 6 69 -34 61 -47 -3 -6 0 -10 7 -9 25 4 59 -12
59 -26 0 -8 5 -14 10 -14 13 0 13 27 -1 32 -5 2 -13 24 -16 48 -3 25 -10 51
-16 58 -5 6 -7 30 -3 52 5 30 3 39 -6 38 -9 -2 -12 11 -11 45 2 38 0 47 -13
47 -14 0 -16 8 -12 44 4 32 2 46 -8 50 -42 16 19 108 82 125 17 4 34 19 42 34
15 31 68 71 82 62 5 -3 14 4 19 17 5 13 23 36 40 51 17 16 31 35 31 43 0 16
-31 19 -46 4 -14 -14 -74 -1 -74 16 0 16 -31 19 -46 4 -15 -15 -110 2 -106 18
3 14 -64 17 -73 2 -15 -25 -44 18 -133 200 l-97 198 -95 -195z"/>
</g>
</svg>
