<?xml version="1.0" standalone="no"?>
<!DOCTYPE svg PUBLIC "-//W3C//DTD SVG 20010904//EN"
 "http://www.w3.org/TR/2001/REC-SVG-20010904/DTD/svg10.dtd">
<svg version="1.0" xmlns="http://www.w3.org/2000/svg"
 width="512.000000pt" height="512.000000pt" viewBox="0 0 512.000000 512.000000"
 preserveAspectRatio="xMidYMid meet">
<metadata>
Created by potrace 1.16, written by Peter Selinger 2001-2019
</metadata>
<g transform="translate(0.000000,512.000000) scale(0.100000,-0.100000)"
fill="#000000" stroke="none">
<path d="M2940 4320 c0 -5 -21 -18 -47 -30 -27 -11 -60 -26 -75 -33 -16 -6
-28 -15 -28 -19 0 -5 -5 -8 -11 -8 -26 0 -164 -126 -194 -178 -11 -17 -22 -32
-25 -32 -3 0 -14 -20 -25 -45 -11 -25 -23 -45 -27 -45 -5 0 -8 -11 -8 -25 0
-14 -4 -25 -10 -25 -5 0 -10 -15 -10 -34 0 -19 -6 -36 -12 -38 -20 -7 -24
-278 -5 -331 8 -23 20 -62 27 -87 8 -25 20 -52 27 -61 7 -8 13 -23 13 -32 0
-9 4 -17 8 -17 5 0 15 -12 23 -27 41 -81 188 -212 272 -244 15 -6 27 -15 27
-20 0 -5 9 -9 20 -9 11 0 28 -4 38 -9 52 -26 107 -34 237 -35 79 0 153 4 170
11 17 6 50 17 75 24 25 7 47 16 50 19 3 4 19 13 35 21 75 38 116 69 198 156
53 56 61 68 103 153 33 66 48 103 63 151 14 45 15 305 1 314 -5 3 -10 19 -10
34 0 15 -7 36 -15 47 -8 10 -15 29 -15 42 0 12 -4 22 -10 22 -5 0 -10 9 -10
20 0 11 -4 20 -10 20 -5 0 -10 6 -10 14 0 8 -6 21 -12 28 -7 7 -26 31 -43 53
-77 104 -186 184 -322 236 -13 5 -23 13 -23 19 0 6 -75 10 -215 10 -130 0
-215 -4 -215 -10z m252 -244 l-4 -53 32 -7 c18 -3 47 -6 66 -6 18 0 36 -4 39
-10 3 -5 17 -10 31 -10 22 0 24 -3 18 -27 -4 -16 -11 -32 -15 -37 -5 -6 -9
-18 -9 -28 0 -20 -11 -23 -26 -9 -18 19 -146 34 -189 22 -115 -31 -113 -126 4
-178 20 -8 50 -21 66 -28 124 -54 195 -107 195 -146 0 -10 5 -21 10 -24 15 -9
12 -78 -5 -118 -18 -44 -72 -107 -91 -107 -8 0 -14 -4 -14 -10 0 -5 -7 -10
-15 -10 -8 0 -33 -7 -55 -16 -40 -16 -40 -16 -40 -70 l0 -54 -45 0 -45 0 0 54
0 54 -47 5 c-57 6 -134 28 -149 42 -9 8 -8 16 2 30 8 10 14 34 14 52 0 29 2
32 18 24 63 -35 90 -41 171 -41 80 0 88 2 119 29 43 38 45 90 4 129 -35 34
-66 52 -91 52 -10 0 -24 7 -31 15 -7 8 -21 15 -31 15 -48 0 -159 91 -159 131
0 10 -4 21 -10 24 -39 24 32 189 89 209 9 3 39 14 66 24 l50 18 2 50 c1 27 2
52 2 57 1 4 18 7 39 7 l39 0 -5 -54z"/>
<path d="M1920 2860 c-8 -5 -27 -10 -42 -10 -15 0 -30 -4 -33 -10 -3 -5 -17
-10 -29 -10 -13 0 -29 -7 -36 -15 -7 -8 -18 -15 -25 -15 -27 0 -179 -93 -280
-172 -16 -12 -97 -90 -178 -171 -164 -164 -167 -169 -109 -232 15 -17 40 -48
57 -70 16 -22 35 -47 42 -55 7 -8 23 -29 35 -46 39 -54 111 -149 117 -154 4
-3 19 -23 36 -45 16 -22 32 -42 35 -45 4 -3 21 -25 38 -50 18 -25 47 -64 65
-86 17 -23 65 -86 106 -140 91 -121 121 -154 139 -154 8 0 42 19 76 43 34 24
76 50 94 58 18 8 32 17 32 21 0 5 9 8 19 8 11 0 23 4 26 10 3 5 23 17 43 26
20 8 45 20 54 25 10 5 26 9 36 9 10 0 22 4 28 9 36 34 172 51 509 61 302 9
427 19 462 38 12 7 33 12 47 12 14 0 28 5 31 10 3 6 15 10 26 10 10 0 27 4 37
9 69 36 126 61 138 61 8 0 14 5 14 10 0 6 7 10 15 10 9 0 32 10 53 23 20 13
44 26 52 30 8 4 33 18 55 32 22 14 48 28 58 31 9 4 17 9 17 13 0 3 15 12 33
20 17 8 34 17 37 20 8 9 89 61 95 61 3 0 18 11 33 25 15 14 32 25 39 25 7 0
13 5 13 10 0 6 7 10 15 10 8 0 15 5 15 10 0 6 6 10 13 10 7 0 24 11 39 25 15
14 32 25 38 25 5 0 10 5 10 10 0 6 6 10 14 10 8 0 16 4 18 8 2 5 37 33 78 62
41 29 80 58 86 64 7 6 35 29 64 51 48 37 151 136 193 184 13 17 17 40 17 112
l0 91 -41 36 c-22 20 -52 42 -66 49 -30 15 -109 17 -118 3 -3 -5 -19 -10 -35
-10 -16 0 -32 -4 -35 -10 -3 -5 -14 -10 -23 -10 -15 0 -78 -27 -162 -71 -19
-9 -71 -36 -115 -59 -44 -22 -98 -52 -120 -66 -22 -13 -47 -27 -55 -31 -8 -4
-29 -17 -46 -30 -17 -13 -38 -23 -46 -23 -23 0 -28 -22 -28 -120 0 -49 -4 -92
-10 -95 -5 -3 -10 -16 -10 -29 0 -22 -51 -86 -80 -99 -8 -4 -28 -16 -45 -26
-16 -11 -39 -20 -50 -20 -12 -1 -25 -5 -30 -10 -6 -5 -30 -12 -55 -15 -25 -3
-72 -9 -105 -15 -108 -17 -721 -10 -675 8 13 5 274 23 460 31 228 11 300 18
315 31 5 5 19 9 32 9 13 0 23 5 23 10 0 6 6 10 13 10 19 0 107 84 107 103 0 9
5 17 10 17 6 0 10 36 10 87 l0 87 -46 43 c-26 24 -57 43 -68 43 -12 0 -26 4
-32 10 -5 5 -118 11 -259 14 -305 5 -446 21 -517 57 -10 5 -29 9 -42 9 -14 0
-28 5 -31 10 -3 6 -15 10 -26 10 -10 0 -27 4 -37 9 -17 8 -62 28 -117 51 -16
7 -38 16 -47 21 -10 5 -24 9 -32 9 -7 0 -19 7 -26 15 -7 8 -23 15 -36 15 -12
0 -26 5 -29 10 -3 6 -19 10 -35 10 -16 0 -32 5 -35 10 -8 13 -295 13 -315 0z"/>
<path d="M929 2222 c-75 -55 -274 -207 -279 -212 -3 -3 -23 -18 -45 -35 -22
-16 -49 -37 -59 -47 -11 -10 -28 -20 -38 -24 -15 -4 -18 -16 -18 -74 0 -58 4
-73 23 -92 23 -24 61 -71 99 -124 13 -17 42 -56 65 -85 46 -59 146 -190 263
-345 41 -54 77 -101 80 -104 4 -3 19 -23 36 -45 16 -22 37 -49 47 -59 9 -11
17 -23 17 -27 0 -4 16 -24 34 -45 19 -22 45 -56 58 -76 23 -37 23 -37 91 -38
38 0 67 4 67 10 0 5 35 35 78 67 42 31 79 59 82 62 3 4 23 19 45 36 22 16 42
31 45 34 3 4 41 33 85 66 44 33 87 68 97 78 28 26 24 88 -8 123 -14 16 -37 47
-51 68 -14 22 -36 50 -49 63 -13 13 -24 27 -24 32 0 4 -8 16 -18 27 -10 10
-31 37 -47 59 -17 22 -32 42 -35 45 -3 3 -23 30 -45 60 -22 30 -42 57 -45 60
-3 3 -18 23 -35 45 -16 22 -31 42 -35 45 -3 3 -19 23 -35 45 -16 22 -35 47
-42 55 -7 8 -23 29 -35 46 -39 54 -111 149 -117 154 -4 3 -20 23 -36 45 -83
111 -109 135 -149 135 -18 -1 -47 -12 -67 -28z m563 -919 c35 -33 38 -88 7
-127 -17 -22 -28 -26 -69 -26 -42 0 -52 4 -74 31 -28 33 -32 58 -15 92 31 61
103 76 151 30z"/>
</g>
</svg>
