<?xml version="1.0" standalone="no"?>
<!DOCTYPE svg PUBLIC "-//W3C//DTD SVG 20010904//EN"
 "http://www.w3.org/TR/2001/REC-SVG-20010904/DTD/svg10.dtd">
<svg version="1.0" xmlns="http://www.w3.org/2000/svg"
 width="512.000000pt" height="512.000000pt" viewBox="0 0 512.000000 512.000000"
 preserveAspectRatio="xMidYMid meet">
<metadata>
Created by potrace 1.16, written by Peter Selinger 2001-2019
</metadata>
<g transform="translate(0.000000,512.000000) scale(0.100000,-0.100000)"
fill="#000000" stroke="none">
<path d="M2475 4362 c-50 -23 -91 -70 -105 -120 -6 -24 -10 -311 -10 -817 l0
-780 -277 277 c-183 182 -291 282 -315 293 -153 63 -318 -84 -268 -241 10 -31
103 -130 459 -488 245 -246 464 -461 485 -477 35 -26 47 -29 117 -29 75 0 79
1 126 39 26 21 244 236 485 477 392 395 437 444 448 484 43 162 -124 302 -275
231 -26 -12 -137 -116 -310 -290 l-270 -271 -5 797 c-5 782 -5 799 -25 833
-51 86 -171 124 -260 82z"/>
<path d="M884 2273 c-53 -31 -70 -47 -98 -91 l-26 -42 3 -388 c2 -278 7 -401
16 -437 21 -78 79 -174 147 -242 72 -71 124 -103 213 -132 64 -21 74 -21 1421
-21 l1356 0 65 21 c125 42 235 135 302 255 66 118 67 128 67 563 l0 391 -25
40 c-50 79 -148 117 -230 90 -40 -13 -98 -60 -118 -94 -9 -15 -13 -129 -17
-397 l-5 -376 -29 -37 c-53 -70 39 -66 -1373 -66 -1197 0 -1280 1 -1312 18
-19 9 -44 30 -55 45 -20 27 -21 44 -26 405 l-5 377 -24 36 c-58 86 -175 124
-247 82z"/>
</g>
</svg>
