<?xml version="1.0" standalone="no"?>
<!DOCTYPE svg PUBLIC "-//W3C//DTD SVG 20010904//EN"
 "http://www.w3.org/TR/2001/REC-SVG-20010904/DTD/svg10.dtd">
<svg version="1.0" xmlns="http://www.w3.org/2000/svg"
 width="512.000000pt" height="512.000000pt" viewBox="0 0 512.000000 512.000000"
 preserveAspectRatio="xMidYMid meet">
<metadata>
Created by potrace 1.16, written by Peter Selinger 2001-2019
</metadata>
<g transform="translate(0.000000,512.000000) scale(0.100000,-0.100000)"
fill="#000000" stroke="none">
<path d="M703 3934 c-18 -8 -33 -11 -33 -8 0 3 -7 -2 -16 -11 -14 -13 -19 -14
-25 -3 -7 10 -9 9 -9 -4 0 -10 -6 -18 -12 -18 -23 0 -100 -94 -132 -160 l-31
-65 -3 -1095 c-2 -1084 -2 -1095 18 -1156 12 -35 34 -81 51 -103 16 -23 29
-44 29 -49 0 -4 20 -18 45 -32 25 -14 45 -28 45 -33 0 -4 4 -5 10 -2 5 3 10 1
10 -5 0 -6 4 -8 10 -5 5 3 10 1 10 -5 0 -6 5 -8 11 -5 5 4 19 -1 30 -11 10 -9
19 -12 19 -6 0 8 7 9 26 2 35 -14 3583 -14 3618 0 19 7 26 6 26 -2 0 -6 9 -3
19 6 11 10 25 15 30 11 6 -3 11 -1 11 5 0 6 5 8 10 5 6 -3 10 -1 10 6 0 7 3
10 6 6 3 -3 15 3 27 14 11 10 33 25 49 31 15 7 28 16 28 21 0 4 13 25 29 48
17 22 39 69 51 103 20 62 20 72 18 1157 l-3 1094 -31 65 c-29 61 -112 160
-134 160 -6 0 -10 8 -10 18 0 13 -2 14 -9 4 -7 -11 -11 -11 -23 2 -9 8 -18 13
-21 10 -3 -3 -19 2 -35 10 -28 14 -217 16 -1859 15 -1555 -1 -1833 -3 -1860
-15z m3687 -164 c0 -5 -4 -10 -10 -10 -5 0 -20 -10 -33 -22 -12 -13 -43 -39
-66 -58 -24 -19 -49 -40 -55 -45 -41 -37 -121 -100 -127 -100 -4 0 -17 -12
-29 -27 -12 -16 -27 -28 -35 -28 -7 0 -20 -12 -30 -26 -11 -17 -22 -23 -33
-19 -9 3 -13 3 -9 -1 9 -9 -49 -64 -68 -64 -8 0 -15 -6 -15 -14 0 -7 -12 -22
-27 -32 -16 -9 -32 -23 -38 -29 -16 -18 -109 -90 -116 -90 -4 0 -17 -12 -29
-27 -12 -16 -27 -28 -34 -28 -7 0 -22 -13 -34 -30 -13 -16 -27 -30 -32 -30 -4
0 -22 -14 -39 -31 -17 -17 -35 -28 -40 -25 -5 3 -11 -3 -14 -15 -3 -11 -19
-25 -36 -32 -17 -6 -31 -17 -31 -23 0 -6 -12 -20 -27 -29 -16 -10 -39 -29 -52
-41 -13 -13 -28 -21 -35 -17 -6 3 -8 3 -4 -2 7 -7 -49 -60 -63 -60 -4 0 -17
-12 -29 -27 -12 -16 -26 -28 -31 -28 -6 0 -22 -13 -36 -30 -13 -16 -29 -30
-35 -30 -5 0 -20 -13 -34 -30 -15 -17 -31 -27 -39 -23 -9 3 -15 -1 -15 -11 0
-8 -12 -23 -27 -33 -16 -10 -37 -26 -49 -38 -40 -38 -97 -80 -106 -77 -5 1 -7
-1 -4 -6 6 -9 -54 -58 -66 -54 -5 1 -8 -3 -8 -9 0 -12 -40 -48 -53 -49 -5 0
-20 -14 -34 -30 -13 -17 -29 -30 -35 -30 -6 0 -19 -11 -29 -24 -22 -29 -45
-28 -70 2 -9 12 -22 22 -27 22 -6 0 -21 13 -35 29 -14 17 -27 28 -30 25 -3 -3
-15 8 -28 25 -13 17 -27 31 -32 31 -5 0 -24 12 -41 28 -18 15 -52 43 -76 62
-25 19 -54 44 -65 55 -11 12 -32 28 -47 38 -16 10 -28 24 -28 32 0 8 -6 12
-14 9 -7 -3 -25 9 -39 25 -14 17 -30 31 -35 31 -6 0 -23 15 -38 33 -15 17 -30
31 -33 31 -11 -3 -50 33 -44 40 3 3 1 6 -6 6 -12 0 -113 78 -119 92 -2 4 -19
17 -38 28 -19 12 -34 27 -34 34 0 6 -14 17 -31 23 -17 7 -33 21 -36 32 -3 11
-11 17 -18 15 -7 -3 -24 9 -38 25 -14 17 -30 31 -36 31 -6 0 -20 13 -32 30
-12 16 -26 27 -30 25 -4 -3 -18 7 -31 23 -12 15 -27 28 -31 29 -9 2 -90 68
-116 94 -9 9 -28 24 -43 34 -16 9 -28 24 -28 31 0 8 -7 14 -15 14 -15 0 -53
30 -106 83 -15 15 -32 27 -37 27 -6 0 -20 12 -32 28 -12 15 -25 27 -29 27 -4
0 -32 20 -61 45 -30 25 -66 54 -79 65 -13 11 -32 28 -42 37 -10 9 -29 24 -43
33 -14 10 -26 24 -26 31 0 8 -9 14 -20 14 -11 0 -20 5 -20 10 0 7 615 10 1825
10 1210 0 1825 -3 1825 -10z m-3724 -150 c19 -12 34 -28 34 -36 0 -8 8 -14 18
-14 21 0 74 -54 64 -65 -3 -3 1 -3 10 0 10 4 23 -3 36 -19 11 -14 25 -26 30
-26 6 0 20 -12 32 -27 12 -16 25 -28 29 -28 7 0 89 -65 141 -112 14 -13 28
-23 32 -23 5 0 8 -6 8 -12 0 -7 15 -20 33 -29 17 -9 37 -25 43 -37 6 -12 14
-19 18 -15 4 4 21 -6 37 -22 17 -17 43 -42 59 -57 15 -16 33 -28 38 -28 6 0
20 -12 32 -27 12 -16 25 -28 29 -28 4 0 32 -20 61 -45 30 -25 66 -54 79 -65
13 -11 32 -27 40 -35 9 -8 31 -26 49 -38 17 -13 32 -30 32 -37 0 -8 6 -12 13
-10 6 3 37 -19 68 -48 31 -30 64 -57 73 -60 12 -5 -128 -151 -581 -605 -514
-515 -600 -597 -610 -584 -19 23 -19 2090 -1 2139 7 19 14 30 16 24 2 -6 19
-20 38 -31z m3861 -1082 c-1 -683 -5 -1050 -12 -1056 -6 -6 -227 209 -608 590
-470 471 -593 600 -580 605 17 6 37 23 104 90 17 16 32 23 40 18 8 -5 11 -5 7
0 -8 8 8 25 82 85 23 19 48 40 54 45 41 37 121 100 127 100 4 0 17 12 29 28
12 15 26 27 32 27 5 0 23 12 38 28 16 15 41 39 57 55 15 15 36 27 44 27 9 0
19 8 22 19 2 10 18 24 36 32 17 8 31 20 31 26 0 7 3 13 8 13 4 0 18 10 32 23
52 47 134 112 141 112 4 0 17 12 29 28 12 15 26 27 31 27 6 0 22 14 36 30 13
17 29 30 35 30 6 0 19 11 30 25 11 14 28 25 39 25 10 0 19 6 19 14 0 8 16 24
35 36 19 12 35 27 36 33 1 7 7 -6 14 -28 11 -32 13 -243 12 -1087z m-2546 -9
c13 -12 34 -28 47 -36 12 -9 22 -22 22 -30 0 -8 4 -12 9 -9 5 3 23 -8 41 -24
18 -17 35 -30 39 -30 3 0 32 -25 64 -55 32 -30 62 -55 67 -55 4 0 18 -12 30
-27 12 -16 23 -26 24 -23 1 3 26 -16 56 -42 30 -27 58 -48 62 -48 5 0 8 -6 8
-13 0 -6 13 -18 28 -25 16 -6 38 -21 50 -32 21 -20 57 -27 64 -12 6 14 76 61
82 55 3 -4 6 1 6 10 0 10 3 17 8 17 4 0 32 21 62 48 30 26 55 45 56 42 1 -3
12 7 24 23 12 15 26 27 32 27 5 0 24 14 41 30 18 17 43 42 57 55 14 14 29 25
32 25 4 0 20 14 37 31 17 17 35 28 41 24 5 -3 10 0 10 8 0 8 10 21 23 30 12 8
32 24 45 35 13 11 28 19 35 18 17 -2 1218 -1208 1211 -1215 -8 -8 -3651 -7
-3659 1 -8 7 1195 1216 1211 1217 6 1 22 -9 35 -20z"/>
</g>
</svg>
