<?xml version="1.0" standalone="no"?>
<!DOCTYPE svg PUBLIC "-//W3C//DTD SVG 20010904//EN"
 "http://www.w3.org/TR/2001/REC-SVG-20010904/DTD/svg10.dtd">
<svg version="1.0" xmlns="http://www.w3.org/2000/svg"
 width="512.000000pt" height="512.000000pt" viewBox="0 0 512.000000 512.000000"
 preserveAspectRatio="xMidYMid meet">
<metadata>
Created by potrace 1.16, written by Peter Selinger 2001-2019
</metadata>
<g transform="translate(0.000000,512.000000) scale(0.100000,-0.100000)"
fill="#000000" stroke="none">
<path d="M487 4303 c-26 -14 -55 -39 -64 -55 -10 -15 -21 -28 -25 -28 -4 0 -8
-635 -8 -1410 l0 -1410 25 -39 c36 -53 91 -77 175 -73 36 1 79 6 95 11 17 5
72 13 123 16 l93 7 -3 112 -3 111 -50 1 c-27 1 -57 -2 -65 -6 -8 -4 -48 -10
-87 -13 l-73 -6 0 1283 0 1282 28 -3 c329 -42 659 -73 1102 -104 222 -16 1379
-16 1615 0 416 27 986 82 1100 106 l30 7 0 -1287 0 -1286 -55 6 c-30 3 -80 10
-110 16 -31 6 -69 9 -85 7 l-29 -3 3 -96 c2 -88 1 -97 -17 -101 -15 -4 -18 -1
-15 13 4 13 0 19 -11 19 -11 0 -16 -9 -16 -32 l0 -33 108 -1 c59 0 123 -6 143
-13 20 -6 71 -12 115 -12 95 -2 138 18 171 77 l23 39 0 1396 c0 1098 -3 1402
-12 1420 -23 42 -42 64 -70 77 -16 6 -39 17 -52 23 -14 7 -35 8 -48 4 -44 -14
-397 -57 -608 -75 -63 -5 -144 -12 -180 -15 -36 -3 -137 -10 -225 -16 -88 -5
-216 -14 -285 -21 -167 -16 -1200 -16 -1370 0 -69 6 -199 16 -290 22 -230 14
-481 36 -640 55 -74 9 -148 18 -165 20 -31 4 -158 22 -210 30 -20 3 -46 -4
-78 -22z"/>
<path d="M3465 3709 c-59 -18 -139 -84 -175 -145 -32 -54 -35 -66 -38 -149 -3
-106 14 -161 72 -231 51 -60 100 -90 186 -110 57 -14 78 -15 103 -6 18 6 52
14 76 18 38 6 56 18 113 75 44 44 71 80 75 99 3 17 10 33 15 36 6 4 7 -2 3
-15 -3 -11 -2 -21 3 -21 15 0 3 210 -14 250 -30 70 -39 82 -85 123 -72 64 -75
66 -121 77 -53 12 -172 11 -213 -1z"/>
<path d="M2005 3421 c-124 -40 -205 -157 -205 -296 0 -40 4 -76 9 -80 5 -3 12
-19 16 -35 4 -17 11 -30 16 -30 5 0 9 -5 9 -11 0 -6 -6 -9 -13 -6 -9 3 -13 -5
-14 -28 -1 -22 5 -36 15 -40 19 -7 36 16 19 27 -6 4 -8 10 -4 14 4 4 20 -4 35
-18 62 -58 111 -80 194 -86 61 -4 78 -8 74 -18 -3 -9 2 -14 15 -14 16 0 18 3
10 19 -9 16 -6 20 22 26 18 4 35 7 40 6 4 0 7 4 7 10 0 7 10 9 26 5 23 -6 26
-4 21 13 -3 12 1 22 9 25 19 7 77 102 93 152 19 58 4 181 -25 214 -7 9 -11 27
-8 40 4 16 3 21 -3 13 -7 -10 -18 -3 -44 23 -56 59 -120 84 -214 83 -44 -1
-89 -4 -100 -8z"/>
<path d="M3471 3024 c-63 -8 -119 -18 -125 -23 -6 -5 -25 -12 -43 -16 -76 -16
-172 -80 -225 -150 -73 -96 -78 -130 -78 -508 0 -366 1 -370 61 -422 17 -14
26 -25 20 -25 -6 0 -11 -7 -11 -15 0 -8 7 -15 15 -15 8 0 15 5 15 11 0 6 8 8
18 6 9 -3 29 -8 44 -11 l28 -6 2 -463 c2 -254 5 -468 8 -476 9 -27 57 -71 104
-96 54 -29 98 -32 150 -10 43 18 118 83 110 96 -3 5 -1 9 5 9 6 0 16 -10 22
-22 7 -13 20 -29 31 -36 10 -7 18 -19 17 -25 0 -9 -2 -9 -6 1 -2 6 -11 12 -18
12 -7 0 -15 4 -17 9 -1 4 -13 12 -25 15 -19 6 -23 4 -23 -13 0 -14 6 -21 20
-21 13 0 20 -7 20 -18 0 -14 8 -19 34 -20 23 -1 36 4 38 13 3 13 7 13 32 0 31
-16 111 -20 120 -6 3 5 15 11 26 14 11 3 18 1 15 -3 -3 -5 -1 -11 4 -14 12 -8
72 24 66 35 -4 5 -1 9 4 9 6 0 11 7 11 15 0 19 -19 20 -26 1 -3 -8 -13 -17
-22 -21 -11 -4 -7 4 10 22 58 61 58 65 58 554 l0 449 27 0 c30 0 103 30 103
42 0 4 5 8 10 8 6 0 10 -7 10 -16 0 -8 5 -12 10 -9 7 4 8 11 1 18 -6 8 -3 25
10 51 18 37 19 65 19 375 0 273 -3 344 -15 381 -22 65 -36 91 -68 129 -16 18
-25 36 -20 40 15 10 13 51 -3 51 -8 0 -14 -9 -14 -20 0 -11 -2 -20 -4 -20 -2
0 -27 15 -55 34 -30 21 -46 37 -38 40 6 3 2 3 -11 0 -13 -3 -28 -2 -35 3 -27
21 -108 44 -187 53 -47 6 -92 12 -100 14 -8 2 -66 -3 -129 -10z"/>
<path d="M1970 2781 c-8 -5 -33 -12 -55 -16 -22 -4 -70 -22 -107 -40 -41 -20
-76 -31 -89 -28 -16 5 -20 2 -17 -14 1 -11 -10 -34 -25 -52 -15 -19 -37 -52
-48 -73 -24 -48 -43 -196 -27 -216 8 -9 118 -12 507 -10 l496 3 -1 85 c0 68
-5 95 -24 135 -70 146 -253 235 -485 235 -60 -1 -117 -4 -125 -9z"/>
<path d="M1070 2200 c-8 -5 -26 -6 -39 -3 -17 4 -22 2 -19 -8 3 -8 9 -13 14
-12 5 1 8 -211 6 -485 -1 -268 0 -496 2 -508 3 -11 17 -26 31 -32 19 -9 278
-12 1005 -12 l980 0 0 305 0 305 -41 26 c-22 14 -38 28 -34 32 4 4 10 1 12 -5
8 -21 30 -15 37 10 9 33 8 37 -10 37 -10 0 -14 -6 -10 -15 3 -8 1 -15 -4 -15
-6 0 -10 5 -10 10 0 15 -30 12 -30 -2 -1 -14 -60 51 -60 65 0 5 7 7 15 3 8 -3
15 -1 15 4 0 6 4 10 9 10 5 0 7 -13 5 -29 -6 -34 3 -42 31 -30 17 7 18 8 2 8
-14 1 -16 5 -7 20 7 13 7 22 0 26 -5 3 -10 15 -10 26 0 10 -7 19 -15 19 -8 0
-15 -6 -15 -14 0 -7 -8 -16 -18 -18 -33 -9 -47 44 -47 174 l0 118 -890 0
c-540 0 -896 -4 -905 -10z"/>
</g>
</svg>
