<?xml version="1.0" standalone="no"?>
<!DOCTYPE svg PUBLIC "-//W3C//DTD SVG 20010904//EN"
 "http://www.w3.org/TR/2001/REC-SVG-20010904/DTD/svg10.dtd">
<svg version="1.0" xmlns="http://www.w3.org/2000/svg"
 width="512.000000pt" height="512.000000pt" viewBox="0 0 512.000000 512.000000"
 preserveAspectRatio="xMidYMid meet">
<metadata>
Created by potrace 1.16, written by Peter Selinger 2001-2019
</metadata>
<g transform="translate(0.000000,512.000000) scale(0.100000,-0.100000)"
fill="#000000" stroke="none">
<path d="M4136 4705 c-14 -13 -26 -28 -26 -34 0 -5 -6 -16 -13 -23 -8 -7 -22
-37 -31 -66 -10 -28 -22 -54 -27 -57 -22 -14 -8 -44 26 -55 19 -6 35 -15 35
-19 0 -4 19 -13 41 -20 23 -7 67 -25 98 -41 31 -15 73 -33 94 -40 20 -6 37
-15 37 -19 0 -4 15 -12 33 -18 41 -13 49 -5 78 81 13 36 26 66 31 66 4 0 8 27
8 61 0 51 -4 64 -22 80 -13 10 -29 18 -35 19 -7 0 -13 4 -13 8 0 5 -29 19 -65
31 -36 13 -65 26 -65 30 0 10 -95 41 -127 41 -18 0 -41 -10 -57 -25z"/>
<path d="M3975 4377 c-6 -7 -19 -34 -29 -62 -11 -27 -22 -52 -26 -55 -3 -3
-17 -33 -29 -67 -13 -35 -27 -63 -32 -63 -5 0 -9 -7 -9 -15 0 -8 -17 -52 -39
-97 -21 -46 -42 -94 -46 -108 -4 -14 -18 -43 -30 -65 -12 -22 -28 -59 -35 -82
-7 -24 -17 -43 -21 -43 -4 0 -15 -25 -25 -56 -9 -31 -23 -61 -29 -68 -7 -6
-20 -35 -29 -64 -10 -29 -24 -59 -32 -66 -8 -8 -14 -19 -14 -24 0 -16 -44
-117 -52 -120 -4 -2 -8 -9 -8 -15 0 -7 -10 -32 -22 -57 -12 -25 -22 -47 -23
-50 -4 -12 -39 -89 -63 -140 -20 -41 -29 -84 -37 -170 -6 -63 -14 -122 -17
-130 -10 -23 -31 -367 -25 -384 14 -37 52 -15 142 81 50 53 118 125 153 159
34 35 62 66 62 69 0 3 21 27 48 54 26 26 56 65 67 87 11 21 23 41 27 44 3 3
16 32 27 65 12 33 26 62 31 63 6 2 10 10 10 18 0 7 17 51 39 96 21 46 42 94
46 108 4 14 18 43 30 65 12 22 28 59 35 83 7 23 17 42 21 42 4 0 15 25 25 56
9 31 23 61 29 68 7 6 18 29 25 51 7 22 25 65 40 95 15 30 34 72 41 93 7 20 17
37 21 37 4 0 8 6 8 13 0 6 10 32 22 57 12 25 22 47 23 50 4 11 38 87 60 135
13 28 31 68 41 90 10 22 20 43 22 48 2 4 -3 7 -12 7 -9 0 -16 4 -16 8 0 4 -25
16 -55 27 -30 10 -55 21 -55 25 0 3 -29 17 -64 29 -36 13 -66 26 -68 30 -3 6
-39 21 -128 55 -8 3 -20 0 -25 -7z m-452 -1449 c15 -5 27 -14 27 -18 0 -4 12
-11 27 -15 15 -3 42 -13 61 -21 l34 -14 -37 -42 c-93 -105 -138 -149 -144
-141 -3 5 -18 14 -33 20 -26 11 -26 14 -21 70 3 32 9 74 14 93 5 19 9 48 9 64
0 23 3 27 18 21 9 -4 29 -12 45 -17z"/>
<path d="M1260 3921 c-8 -5 -59 -19 -112 -31 -54 -12 -98 -25 -98 -30 0 -4
-25 -18 -55 -30 -30 -12 -55 -25 -55 -29 0 -4 -15 -15 -32 -26 -38 -22 -158
-138 -158 -152 0 -6 -8 -17 -17 -26 -10 -9 -27 -33 -38 -54 -11 -21 -22 -40
-25 -43 -9 -7 -37 -90 -45 -127 -4 -18 -11 -35 -16 -38 -5 -4 -9 -582 -9
-1459 0 -1395 1 -1454 18 -1469 10 -10 28 -17 40 -17 16 0 118 96 344 321 178
176 331 325 341 331 12 6 304 9 815 8 775 -2 920 2 957 29 6 4 51 18 100 31
50 13 92 26 95 30 3 3 32 17 65 30 33 13 62 27 65 31 3 3 25 16 49 29 25 12
50 27 56 34 6 6 28 20 48 31 20 11 37 23 37 26 0 4 16 17 35 29 66 41 256 244
291 312 8 15 18 28 23 28 18 0 141 267 157 340 8 41 19 84 24 95 38 87 65
1105 30 1105 -10 0 -66 -115 -76 -154 -3 -14 -9 -26 -13 -26 -4 0 -18 -29 -30
-65 -13 -36 -27 -68 -32 -71 -5 -3 -7 -10 -4 -15 4 -5 2 -9 -2 -9 -5 0 -17
-25 -28 -55 -10 -30 -22 -55 -27 -55 -5 0 -7 -4 -4 -9 4 -5 3 -11 -1 -13 -5
-1 -18 -24 -31 -50 -13 -27 -27 -48 -32 -48 -4 0 -11 -55 -14 -122 -9 -170
-27 -342 -36 -348 -4 -3 -10 -25 -14 -50 -9 -58 -35 -140 -45 -140 -5 0 -16
-21 -26 -47 -10 -27 -23 -52 -30 -58 -6 -5 -19 -24 -28 -42 -9 -17 -22 -37
-30 -45 -7 -7 -24 -29 -37 -48 -45 -65 -201 -203 -271 -241 -13 -7 -29 -18
-36 -25 -7 -7 -34 -20 -60 -30 -27 -10 -50 -21 -53 -25 -7 -10 -94 -38 -140
-45 -22 -4 -40 -10 -40 -14 0 -20 -155 -24 -920 -25 -665 0 -833 -3 -865 -14
-22 -7 -42 -17 -45 -21 -3 -4 -23 -17 -46 -28 -22 -11 -92 -73 -156 -136 -63
-64 -118 -116 -122 -116 -12 0 -2 2205 10 2221 6 8 14 28 18 44 22 91 96 184
195 246 100 61 56 59 1222 59 l1066 0 19 43 c10 23 21 44 25 47 3 3 10 16 14
30 4 14 23 58 41 98 19 40 34 75 34 77 0 3 -11 5 -24 5 -14 0 -28 5 -32 12 -5
8 -147 9 -578 3 -666 -10 -615 -10 -1186 -1 -268 4 -451 3 -460 -3z"/>
<path d="M1400 3075 l0 -85 220 0 220 0 0 85 0 85 -220 0 -220 0 0 -85z"/>
<path d="M1990 3075 l0 -85 567 2 568 3 6 35 c3 19 14 49 23 65 9 17 16 38 16
48 0 16 -35 17 -590 17 l-590 0 0 -85z"/>
<path d="M1400 2545 l0 -85 834 0 834 0 6 31 c3 17 6 56 6 85 l0 54 -840 0
-840 0 0 -85z"/>
<path d="M1407 2093 c-4 -3 -7 -41 -7 -84 0 -61 3 -78 16 -83 24 -9 1067 -7
1082 3 9 5 12 30 10 87 l-3 79 -546 3 c-300 1 -549 -1 -552 -5z"/>
<path d="M2640 2016 c0 -67 3 -85 16 -90 24 -9 717 -7 732 3 9 5 12 30 10 87
l-3 79 -377 3 -378 2 0 -84z"/>
</g>
</svg>
