<?xml version="1.0" standalone="no"?>
<!DOCTYPE svg PUBLIC "-//W3C//DTD SVG 20010904//EN"
 "http://www.w3.org/TR/2001/REC-SVG-20010904/DTD/svg10.dtd">
<svg version="1.0" xmlns="http://www.w3.org/2000/svg"
 width="512.000000pt" height="512.000000pt" viewBox="0 0 512.000000 512.000000"
 preserveAspectRatio="xMidYMid meet">
<metadata>
Created by potrace 1.16, written by Peter Selinger 2001-2019
</metadata>
<g transform="translate(0.000000,512.000000) scale(0.100000,-0.100000)"
fill="#000000" stroke="none">
<path d="M1825 4144 c-41 -5 -206 -27 -225 -29 -8 -1 -27 -7 -41 -13 -14 -6
-40 -12 -57 -15 -40 -7 -220 -87 -302 -136 -36 -22 -69 -39 -74 -39 -5 0 -12
-5 -15 -10 -3 -5 -29 -27 -57 -48 -303 -229 -518 -605 -560 -979 -3 -33 -10
-82 -16 -110 -5 -27 -9 -61 -8 -74 0 -12 -3 -28 -7 -34 -4 -7 -6 -24 -4 -39 1
-16 -2 -28 -8 -28 -6 0 -8 -6 -5 -13 3 -8 -19 -173 -47 -368 -75 -504 -74
-617 8 -800 58 -131 198 -280 317 -341 23 -11 43 -24 46 -27 10 -13 148 -51
225 -62 172 -24 378 27 517 126 26 19 50 35 53 35 8 0 88 90 123 139 19 25
101 180 183 344 l149 297 540 0 540 0 146 -292 c186 -373 226 -430 371 -527
130 -88 272 -129 431 -125 146 4 197 16 322 79 183 92 319 255 382 455 37 120
32 286 -19 625 -23 149 -44 293 -47 320 -4 28 -11 78 -17 113 -5 35 -7 67 -4
72 3 5 0 12 -6 16 -6 3 -9 19 -5 35 3 15 1 31 -5 34 -5 4 -9 14 -8 23 1 10 -1
33 -4 52 -4 19 -9 53 -11 75 -15 133 -79 353 -139 472 -103 202 -258 386 -441
520 -39 29 -75 56 -81 61 -35 28 -295 149 -338 158 -11 2 -56 12 -101 23 -44
11 -97 23 -116 27 -36 7 -1531 15 -1585 8z m1600 -337 c39 -10 77 -20 85 -24
8 -3 21 -5 28 -4 6 1 12 -3 12 -9 0 -6 5 -8 10 -5 6 3 10 1 10 -5 0 -6 4 -9 9
-5 13 8 148 -56 228 -108 230 -148 407 -394 472 -654 19 -76 44 -232 40 -249
-1 -5 1 -16 4 -24 6 -14 76 -498 82 -565 1 -16 5 -41 9 -55 14 -56 38 -271 41
-360 5 -194 -75 -328 -245 -409 -154 -74 -348 -40 -475 84 -45 44 -74 95 -236
414 -133 264 -192 371 -212 385 -28 21 -39 21 -725 21 l-697 0 -33 -23 c-26
-19 -67 -94 -213 -385 -162 -323 -187 -366 -235 -413 -131 -129 -315 -157
-486 -75 -159 75 -244 223 -233 405 3 48 7 91 9 94 2 4 7 34 10 67 4 33 9 73
12 89 6 29 13 78 15 106 1 8 7 58 15 110 7 52 16 118 19 145 26 200 78 552 90
608 74 331 311 621 622 763 41 19 79 32 84 29 5 -4 9 -1 9 4 0 6 3 10 8 9 4
-1 18 3 32 9 24 10 152 38 215 46 17 3 372 4 790 2 674 -1 768 -3 830 -18z"/>
<path d="M1715 3504 c-16 -7 -46 -29 -65 -49 -35 -36 -35 -37 -40 -146 l-5
-110 -105 -1 c-78 -2 -109 -6 -124 -17 -102 -82 -113 -178 -30 -258 l44 -42
107 -3 108 -3 1 -95 c0 -106 11 -136 65 -185 25 -23 46 -31 79 -34 25 -1 48
-5 52 -8 5 -2 8 1 8 6 0 6 5 11 11 11 26 0 72 46 96 96 23 48 25 64 21 134
l-5 80 101 0 c83 0 107 4 134 20 46 28 72 76 72 133 0 54 -16 90 -54 126 -32
30 -37 31 -156 38 l-95 5 3 75 c5 108 -34 189 -108 221 -46 20 -78 21 -115 6z"/>
<path d="M3312 3509 c-12 -5 -22 -6 -22 -3 0 15 -70 -63 -80 -89 -6 -18 -16
-40 -21 -49 -5 -9 -5 -19 0 -22 5 -3 11 -19 14 -35 6 -29 75 -116 84 -107 3 2
22 -2 44 -9 22 -8 39 -10 39 -5 0 6 8 10 18 10 24 0 78 35 96 63 29 44 35 110
14 153 -36 74 -121 117 -186 93z"/>
<path d="M2990 3188 c-67 -19 -110 -78 -110 -150 0 -90 65 -158 152 -158 80 0
137 41 157 115 32 117 -82 227 -199 193z"/>
<path d="M3624 3184 c-107 -37 -146 -162 -77 -244 36 -43 74 -60 132 -60 42 0
56 5 87 32 41 36 64 82 64 128 0 43 -34 106 -70 127 -16 9 -30 20 -30 23 0 10
-70 6 -106 -6z"/>
<path d="M3305 2870 c-40 -13 -93 -64 -101 -98 -3 -15 -8 -33 -10 -41 -2 -7 1
-32 7 -54 11 -43 68 -107 95 -107 8 0 14 -3 14 -7 0 -5 20 -8 45 -8 25 0 45 4
45 9 0 5 3 7 6 3 10 -9 75 55 93 93 56 115 -67 249 -194 210z"/>
</g>
</svg>
