<?xml version="1.0" standalone="no"?>
<!DOCTYPE svg PUBLIC "-//W3C//DTD SVG 20010904//EN"
 "http://www.w3.org/TR/2001/REC-SVG-20010904/DTD/svg10.dtd">
<svg version="1.0" xmlns="http://www.w3.org/2000/svg"
 width="512.000000pt" height="512.000000pt" viewBox="0 0 512.000000 512.000000"
 preserveAspectRatio="xMidYMid meet">
<metadata>
Created by potrace 1.16, written by Peter Selinger 2001-2019
</metadata>
<g transform="translate(0.000000,512.000000) scale(0.100000,-0.100000)"
fill="#000000" stroke="none">
<path d="M3356 4385 c-73 -30 -138 -92 -174 -165 -23 -46 -27 -68 -27 -136 0
-73 4 -88 35 -150 59 -115 158 -174 294 -174 256 0 407 292 263 506 -86 129
-248 178 -391 119z"/>
<path d="M865 3786 c-54 -24 -55 -31 -55 -487 0 -472 0 -469 68 -489 25 -8
240 -10 690 -8 l654 3 24 28 24 28 0 439 0 439 -24 28 -24 28 -664 2 c-533 2
-669 0 -693 -11z"/>
<path d="M3052 3650 c-97 -20 -222 -123 -270 -222 -21 -42 -262 -805 -262
-827 0 -7 49 -11 153 -11 l152 0 94 310 c52 170 98 315 103 322 4 7 8 -132 8
-309 l0 -323 410 0 410 0 0 350 c0 343 0 350 20 350 20 0 20 -7 20 -350 l0
-350 150 0 150 0 0 348 c0 378 -4 417 -57 515 -37 68 -130 150 -200 178 -57
23 -66 24 -448 26 -214 1 -409 -3 -433 -7z"/>
<path d="M1088 2729 c-24 -13 -23 -61 0 -82 17 -15 62 -17 448 -17 467 0 474
1 474 55 0 56 7 55 -468 55 -278 0 -443 -4 -454 -11z"/>
<path d="M315 2539 c-106 -30 -125 -173 -32 -229 31 -20 68 -20 2286 -20
l2253 0 39 39 c35 35 39 44 39 89 0 62 -32 106 -88 122 -47 13 -4453 12 -4497
-1z"/>
<path d="M463 2230 c-66 -40 -63 5 -63 -889 l0 -809 26 -32 c55 -65 -117 -60
2119 -60 2236 0 2064 -5 2119 60 l26 32 0 799 c0 875 2 840 -59 892 l-33 27
-2051 0 c-2018 0 -2053 0 -2084 -20z m2297 -226 c188 -59 344 -216 406 -408
23 -68 27 -99 27 -196 0 -97 -4 -128 -27 -196 -62 -193 -217 -348 -410 -410
-116 -38 -276 -38 -392 0 -193 62 -348 217 -410 410 -23 68 -27 99 -27 196 0
97 4 128 27 196 74 228 272 397 510 435 79 12 210 0 296 -27z"/>
<path d="M2574 1780 c-28 -11 -54 -48 -54 -78 0 -83 117 -121 170 -55 58 75
-25 170 -116 133z"/>
<path d="M2495 1523 c-69 -15 -113 -36 -118 -54 -5 -17 -2 -19 28 -13 82 15
95 -17 60 -148 -47 -176 -50 -195 -31 -234 17 -36 64 -64 109 -64 36 0 124 29
142 46 25 25 18 31 -35 26 -45 -4 -50 -2 -61 20 -9 21 -6 45 16 129 42 160 47
189 34 227 -16 49 -83 79 -144 65z"/>
</g>
</svg>
