<?xml version="1.0" standalone="no"?>
<!DOCTYPE svg PUBLIC "-//W3C//DTD SVG 20010904//EN"
 "http://www.w3.org/TR/2001/REC-SVG-20010904/DTD/svg10.dtd">
<svg version="1.0" xmlns="http://www.w3.org/2000/svg"
 width="512.000000pt" height="512.000000pt" viewBox="0 0 512.000000 512.000000"
 preserveAspectRatio="xMidYMid meet">
<metadata>
Created by potrace 1.16, written by Peter Selinger 2001-2019
</metadata>
<g transform="translate(0.000000,512.000000) scale(0.100000,-0.100000)"
fill="#000000" stroke="none">
<path d="M1955 4229 c-5 -5 -23 -19 -39 -31 -59 -44 -56 48 -58 -1620 l-3
-1533 -5 1535 -5 1535 -3 -1553 c-1 -1046 1 -1551 8 -1547 6 4 13 -7 16 -23 6
-28 29 -58 73 -95 20 -16 65 -17 622 -17 465 0 603 3 616 12 44 36 73 68 73
82 0 9 7 16 15 16 13 0 15 181 15 1570 0 1327 -2 1570 -14 1570 -7 0 -19 13
-26 29 -6 16 -29 41 -51 55 l-39 26 -592 0 c-368 -1 -597 -5 -603 -11z m706
-306 c21 -20 21 -27 20 -459 l-1 -438 -25 -24 c-21 -19 -32 -22 -58 -16 -18 4
-41 8 -51 9 -33 3 -74 84 -48 93 9 3 12 90 12 323 l0 319 -24 0 c-14 0 -27 4
-30 9 -7 10 -56 2 -56 -10 0 -5 -9 -9 -20 -9 -11 0 -20 4 -20 8 0 5 -10 8 -22
8 -25 -1 -53 43 -38 58 5 5 7 21 4 36 -6 30 17 56 41 46 9 -3 15 0 15 8 0 18
31 29 44 16 14 -14 26 -13 26 4 0 17 27 29 35 16 7 -11 37 -1 47 15 5 8 30 12
68 11 46 -1 65 -7 81 -23z"/>
<path d="M426 3394 c-4 -11 -13 -14 -29 -10 -21 5 -26 -1 -45 -47 l-22 -53 3
-1154 c2 -635 7 -1170 11 -1188 5 -17 12 -32 17 -32 5 0 9 -7 9 -15 0 -8 5
-15 10 -15 6 0 10 5 10 10 0 6 7 10 15 10 8 0 15 -4 15 -10 0 -16 1132 -14
1148 2 10 10 15 10 23 -2 8 -13 11 -12 22 5 43 72 42 36 42 1250 0 1083 -1
1152 -18 1183 -10 17 -15 32 -11 32 4 0 1 6 -5 14 -6 7 -22 11 -36 8 -18 -3
-25 0 -25 12 0 15 -51 16 -564 16 -509 0 -564 -2 -570 -16z m696 -303 c-2 -9
4 -12 18 -8 28 7 77 -19 83 -44 3 -12 10 -19 14 -16 13 8 61 -45 77 -85 9 -21
11 -39 5 -49 -6 -12 -4 -19 6 -23 20 -7 21 -94 1 -102 -10 -4 -13 -15 -9 -37
4 -25 -4 -45 -35 -92 -43 -67 -117 -136 -141 -133 -8 2 -21 -9 -29 -25 -16
-32 -56 -62 -72 -52 -7 4 -14 -2 -17 -13 -2 -11 -22 -34 -44 -52 -70 -56 -61
-60 144 -61 100 -1 187 -1 194 0 14 2 18 -5 27 -42 5 -21 4 -27 -5 -21 -9 5
-10 -1 -6 -25 4 -20 3 -30 -3 -26 -6 3 -14 -5 -20 -19 l-10 -26 -301 0 c-292
0 -301 1 -306 20 -3 13 -14 20 -28 20 -18 0 -25 7 -30 32 -5 21 -4 33 4 36 6
2 11 16 11 31 0 38 34 79 73 89 20 5 37 18 45 35 14 30 64 69 83 65 7 -2 19 9
26 23 14 30 81 84 90 75 9 -8 43 24 43 40 0 7 18 28 40 47 22 18 45 48 51 65
6 18 17 32 25 32 10 0 14 13 14 45 0 38 -5 51 -30 75 -16 16 -30 36 -30 45 0
11 -6 14 -25 9 -18 -4 -27 -1 -31 10 -8 22 -64 22 -64 0 0 -12 -7 -14 -30 -9
-24 5 -29 4 -24 -8 3 -9 -8 -23 -33 -38 -21 -13 -40 -25 -43 -25 -34 -10 -50
-18 -54 -31 -3 -8 -10 -11 -16 -8 -6 4 -7 11 -4 17 4 7 -4 8 -24 3 -27 -6 -33
-3 -46 24 -21 39 -20 54 4 101 22 42 67 80 89 72 8 -3 11 0 7 6 -11 18 50 53
80 46 18 -5 25 -3 20 4 -9 15 3 17 127 17 88 -1 111 -4 109 -14z"/>
<path d="M3532 2536 c-18 -18 -39 -43 -46 -57 -7 -13 -18 -23 -24 -21 -9 1
-12 -178 -12 -733 0 -601 2 -735 13 -735 7 0 21 -16 30 -35 9 -20 28 -41 42
-47 14 -6 25 -15 25 -20 0 -4 257 -8 570 -8 373 0 570 3 570 10 0 6 7 10 15
10 8 0 15 -5 15 -12 0 -6 8 -3 19 8 10 10 17 22 14 26 -2 4 3 21 12 37 13 27
15 117 12 768 -2 406 -7 751 -12 768 -10 37 -28 55 -54 55 -12 0 -21 5 -21 10
0 7 -188 10 -567 9 l-568 -2 -33 -31z m939 -334 c2 -29 -2 -45 -17 -59 -8 -8
-14 -20 -14 -27 0 -16 -75 -89 -95 -92 -8 -1 -35 -23 -60 -49 -36 -38 -45 -55
-45 -82 0 -35 0 -35 35 -29 22 4 35 3 35 -4 0 -5 11 -10 25 -10 14 0 25 -4 25
-10 0 -5 6 -10 14 -10 22 0 73 -68 91 -119 27 -79 16 -173 -29 -260 -20 -38
-72 -84 -98 -87 -13 -1 -26 -3 -30 -3 -5 -1 -8 -7 -8 -15 0 -18 -23 -27 -41
-15 -20 12 -29 11 -29 -5 0 -15 -42 -26 -100 -26 -58 0 -100 11 -100 26 0 16
-22 18 -36 4 -14 -14 -44 -2 -44 16 0 10 -7 13 -25 8 -18 -5 -25 -2 -25 9 0
10 -7 13 -20 10 -14 -4 -20 0 -20 10 0 9 -11 24 -25 35 -14 11 -25 23 -25 27
0 4 -8 13 -17 20 -24 18 -6 79 24 83 11 2 23 12 26 23 4 13 14 19 34 19 32 0
44 -7 59 -35 6 -11 20 -20 30 -21 34 -2 64 -16 64 -30 0 -10 19 -12 80 -10 44
2 80 -1 80 -5 0 -5 7 -6 15 -3 8 4 15 11 15 18 0 6 9 17 20 24 11 7 20 19 20
27 0 8 9 19 20 25 25 13 26 46 2 59 -10 5 -24 21 -32 35 -7 14 -19 26 -27 26
-7 0 -13 7 -13 16 0 10 -5 14 -15 10 -9 -3 -38 0 -66 6 -40 9 -47 14 -33 20
12 5 -3 7 -37 5 -71 -3 -89 11 -89 69 0 37 4 46 23 53 25 10 74 59 68 69 -2 4
5 11 16 16 11 5 24 19 29 30 5 12 15 20 22 19 7 -2 12 3 12 11 0 8 11 23 24
34 44 34 16 42 -146 42 -137 0 -148 1 -158 20 -6 11 -17 20 -25 20 -17 0 -32
43 -16 48 6 2 8 14 5 26 -11 43 5 46 309 43 186 -1 287 2 287 8 1 16 50 -45
51 -63z"/>
</g>
</svg>
