<?xml version="1.0" standalone="no"?>
<!DOCTYPE svg PUBLIC "-//W3C//DTD SVG 20010904//EN"
 "http://www.w3.org/TR/2001/REC-SVG-20010904/DTD/svg10.dtd">
<svg version="1.0" xmlns="http://www.w3.org/2000/svg"
 width="512.000000pt" height="512.000000pt" viewBox="0 0 512.000000 512.000000"
 preserveAspectRatio="xMidYMid meet">
<metadata>
Created by potrace 1.16, written by Peter Selinger 2001-2019
</metadata>
<g transform="translate(0.000000,512.000000) scale(0.100000,-0.100000)"
fill="#000000" stroke="none">
<path d="M2447 4649 c-21 -11 -73 -53 -115 -92 -42 -40 -124 -115 -182 -166
-58 -52 -139 -126 -181 -165 -196 -183 -303 -281 -311 -284 -4 -2 -8 127 -8
287 0 310 -5 347 -48 370 -13 7 -89 11 -195 11 l-175 0 -26 -31 -26 -31 0
-523 0 -523 -197 -179 c-109 -98 -231 -209 -273 -248 -41 -38 -117 -108 -168
-155 -51 -46 -106 -105 -123 -129 -27 -41 -29 -52 -29 -133 0 -100 11 -136 60
-192 52 -59 116 -86 202 -86 93 0 133 20 241 118 46 42 155 142 242 222 229
209 359 328 634 581 134 123 308 281 385 350 78 70 199 181 271 248 71 66 132
121 135 121 3 0 102 -88 220 -196 118 -108 282 -258 365 -333 82 -75 185 -170
230 -211 44 -41 123 -113 175 -160 51 -47 133 -121 180 -165 47 -44 158 -145
245 -225 87 -80 197 -180 244 -223 112 -103 159 -127 251 -127 106 0 181 44
239 140 17 29 21 51 21 131 0 88 -2 99 -29 141 -16 24 -98 107 -182 184 -146
132 -415 378 -634 579 -55 50 -266 244 -470 430 -203 186 -439 402 -523 479
-206 189 -224 200 -327 204 -65 2 -87 -2 -118 -19z"/>
<path d="M2270 3468 c-157 -143 -460 -421 -674 -617 -215 -196 -413 -377 -440
-402 -28 -26 -61 -55 -74 -65 l-23 -19 3 -910 c2 -725 6 -915 16 -935 7 -14
29 -37 49 -50 l37 -25 460 -3 c254 -1 471 0 484 3 50 12 53 38 50 515 l-3 440
408 0 407 0 0 -458 0 -459 23 -21 c23 -22 25 -22 484 -22 l460 0 44 23 c85 44
79 -26 79 997 l0 905 -186 170 c-102 94 -221 201 -263 239 -42 38 -121 111
-176 161 -559 514 -870 795 -876 795 -2 -1 -132 -118 -289 -262z"/>
</g>
</svg>
