<?xml version="1.0" standalone="no"?>
<!DOCTYPE svg PUBLIC "-//W3C//DTD SVG 20010904//EN"
 "http://www.w3.org/TR/2001/REC-SVG-20010904/DTD/svg10.dtd">
<svg version="1.0" xmlns="http://www.w3.org/2000/svg"
 width="512.000000pt" height="512.000000pt" viewBox="0 0 512.000000 512.000000"
 preserveAspectRatio="xMidYMid meet">
<metadata>
Created by potrace 1.16, written by Peter Selinger 2001-2019
</metadata>
<g transform="translate(0.000000,512.000000) scale(0.100000,-0.100000)"
fill="#000000" stroke="none">
<path d="M1002 4461 c-112 -32 -191 -79 -278 -166 -65 -65 -90 -98 -122 -166
-76 -157 -72 -79 -72 -1569 0 -1490 -4 -1412 72 -1569 54 -114 168 -230 278
-283 141 -70 112 -68 1045 -68 941 0 905 -2 1049 72 119 62 211 157 269 279
25 52 51 121 57 154 7 39 10 164 8 352 l-3 291 -30 44 c-45 64 -102 90 -191
86 -85 -4 -136 -33 -175 -101 -23 -41 -24 -49 -29 -317 l-5 -275 -28 -47 c-18
-31 -44 -57 -75 -75 l-47 -28 -780 -3 c-562 -2 -792 0 -821 9 -55 15 -112 63
-135 113 -18 39 -19 98 -19 1366 0 1268 1 1327 19 1366 23 50 80 98 135 113
29 9 259 11 821 9 l780 -3 47 -28 c31 -18 57 -44 75 -75 l28 -47 5 -275 c5
-268 6 -276 29 -317 39 -68 90 -97 175 -101 89 -4 146 22 191 86 l30 44 3 291
c2 188 -1 313 -8 352 -6 33 -32 102 -57 154 -58 122 -150 217 -269 279 -144
74 -107 72 -1059 71 -787 0 -855 -2 -913 -18z"/>
<path d="M2170 3408 c-26 -8 -129 -105 -388 -362 -195 -193 -362 -368 -373
-388 -26 -50 -26 -146 0 -196 11 -20 178 -195 373 -388 321 -320 357 -352 400
-364 135 -36 266 54 276 189 7 99 -5 120 -171 289 l-151 152 1134 0 c820 0
1143 3 1171 11 91 28 149 109 149 209 0 100 -58 181 -149 209 -28 8 -351 11
-1171 11 l-1134 0 151 153 c166 168 178 189 171 288 -5 72 -43 133 -106 167
-49 27 -131 36 -182 20z"/>
</g>
</svg>
