<?xml version="1.0" standalone="no"?>
<!DOCTYPE svg PUBLIC "-//W3C//DTD SVG 20010904//EN"
 "http://www.w3.org/TR/2001/REC-SVG-20010904/DTD/svg10.dtd">
<svg version="1.0" xmlns="http://www.w3.org/2000/svg"
 width="512.000000pt" height="512.000000pt" viewBox="0 0 512.000000 512.000000"
 preserveAspectRatio="xMidYMid meet">
<metadata>
Created by potrace 1.16, written by Peter Selinger 2001-2019
</metadata>
<g transform="translate(0.000000,512.000000) scale(0.100000,-0.100000)"
fill="#000000" stroke="none">
<path d="M2514 4882 c-10 -10 -70 -98 -133 -195 l-113 -177 -405 0 -404 0 -24
-25 -25 -24 0 -741 0 -742 29 -29 29 -29 1102 0 1101 0 24 25 25 24 0 749 0
749 -23 21 c-23 22 -28 22 -447 24 l-423 3 -94 175 c-51 96 -103 183 -114 193
-27 22 -80 22 -105 -1z m951 -578 c44 -17 45 -34 45 -594 l0 -532 -29 -29 -29
-29 -877 0 c-930 0 -921 0 -939 45 -3 9 -6 259 -6 556 l0 540 25 24 24 25 885
0 c486 0 892 -3 901 -6z"/>
<path d="M1800 3715 l0 -425 768 2 767 3 3 423 2 422 -770 0 -770 0 0 -425z"/>
<path d="M1410 2568 c-68 -35 -103 -86 -108 -157 -6 -79 11 -123 64 -170 l44
-39 0 -906 0 -907 25 -24 c37 -38 88 -37 123 1 l22 25 0 736 c0 405 3 734 6
731 3 -3 12 -32 21 -65 37 -143 133 -304 252 -424 164 -163 357 -256 587 -281
443 -48 876 228 1020 649 57 170 72 328 33 377 -27 35 -89 37 -123 3 -19 -19
-24 -37 -29 -109 -8 -115 -30 -195 -82 -303 -147 -304 -469 -481 -805 -444
-112 13 -178 33 -280 85 -253 130 -414 375 -437 664 -5 69 -10 88 -29 107 -27
27 -79 31 -112 7 -22 -15 -22 -15 -22 33 0 43 3 51 30 66 35 21 76 87 85 138
20 110 -83 228 -200 229 -23 0 -60 -10 -85 -22z"/>
<path d="M3570 2579 c-79 -32 -130 -106 -130 -190 0 -64 22 -110 71 -153 l39
-33 0 -896 c0 -569 4 -905 10 -922 11 -29 69 -58 97 -48 10 3 28 15 41 26 l22
20 0 905 0 905 48 46 c79 75 92 164 38 256 -44 74 -158 115 -236 84z"/>
<path d="M1221 2116 c-19 -20 -24 -41 -31 -123 -18 -204 -98 -372 -241 -509
-146 -138 -288 -203 -493 -225 -105 -11 -130 -23 -147 -67 -13 -33 13 -90 48
-103 18 -7 58 -8 108 -4 481 41 858 418 900 901 7 87 -6 134 -40 148 -36 14
-82 6 -104 -18z"/>
<path d="M3791 2114 c-59 -76 5 -376 121 -564 160 -261 432 -430 741 -462 102
-11 109 -11 135 9 50 37 55 108 9 137 -12 8 -69 20 -126 25 -287 30 -523 193
-646 446 -52 108 -74 188 -82 303 -5 72 -10 90 -29 109 -34 34 -96 32 -123 -3z"/>
</g>
</svg>
