<?xml version="1.0" standalone="no"?>
<!DOCTYPE svg PUBLIC "-//W3C//DTD SVG 20010904//EN"
 "http://www.w3.org/TR/2001/REC-SVG-20010904/DTD/svg10.dtd">
<svg version="1.0" xmlns="http://www.w3.org/2000/svg"
 width="512.000000pt" height="512.000000pt" viewBox="0 0 512.000000 512.000000"
 preserveAspectRatio="xMidYMid meet">
<metadata>
Created by potrace 1.16, written by Peter Selinger 2001-2019
</metadata>
<g transform="translate(0.000000,512.000000) scale(0.100000,-0.100000)"
fill="#000000" stroke="none">
<path d="M4327 4380 c-4 -16 -11 -18 -41 -13 -28 4 -40 2 -50 -12 -11 -15 -22
-17 -59 -12 -35 5 -46 3 -44 -6 1 -8 -12 -11 -44 -10 -34 2 -49 -2 -53 -12 -4
-11 -16 -13 -51 -8 -36 5 -45 3 -45 -9 0 -18 -37 -31 -46 -17 -9 15 -54 10
-54 -5 0 -18 -39 -31 -52 -18 -12 12 -36 5 -57 -16 -9 -9 -26 -11 -51 -7 -29
5 -39 3 -44 -10 -4 -12 -14 -14 -41 -9 -25 4 -39 2 -51 -10 -12 -13 -26 -15
-59 -11 -34 6 -43 4 -49 -10 -5 -14 -14 -16 -51 -10 -35 5 -45 3 -43 -7 2 -10
-9 -12 -43 -10 -36 2 -48 -1 -53 -14 -5 -13 -15 -15 -51 -10 -37 6 -45 4 -45
-8 0 -10 -9 -16 -22 -17 -23 -1 -29 -1 -60 8 -12 4 -18 0 -18 -10 0 -17 -37
-30 -46 -16 -9 16 -39 10 -57 -11 -14 -17 -25 -19 -52 -14 -25 4 -39 2 -51
-11 -12 -12 -26 -15 -54 -10 -30 5 -39 3 -44 -11 -5 -13 -15 -16 -50 -11 -35
5 -45 3 -50 -9 -5 -12 -15 -14 -45 -9 -30 5 -40 3 -44 -10 -5 -12 -15 -14 -47
-9 -32 5 -44 3 -53 -10 -13 -17 -49 -22 -85 -11 -17 6 -22 4 -20 -6 2 -11 -9
-13 -44 -12 -37 2 -48 -1 -48 -12 0 -13 -9 -15 -50 -9 -41 5 -50 4 -50 -9 0
-18 -27 -30 -43 -20 -16 10 -47 4 -64 -13 -10 -10 -26 -12 -52 -8 -30 5 -39 3
-45 -11 -5 -14 -14 -16 -50 -11 -35 6 -45 4 -50 -9 -4 -12 -14 -14 -41 -9 -25
4 -39 2 -51 -11 -12 -12 -26 -15 -51 -10 l-33 6 0 -829 0 -829 -25 5 c-14 2
-25 9 -25 14 0 5 -13 7 -30 3 -21 -5 -32 -2 -35 7 -4 9 -25 13 -67 13 -40 0
-63 4 -65 13 -6 16 -100 16 -105 0 -3 -9 -25 -13 -66 -12 -44 1 -63 -3 -67
-13 -3 -11 -14 -13 -35 -8 -23 5 -30 3 -28 -7 2 -8 -6 -12 -23 -10 -20 2 -28
-2 -32 -18 -3 -13 -13 -21 -24 -20 -33 4 -41 0 -46 -21 -4 -16 -11 -19 -26
-14 -13 4 -21 2 -21 -5 0 -7 -32 -45 -70 -85 -66 -68 -140 -173 -140 -199 0
-7 -4 -16 -8 -22 -8 -8 -18 -40 -37 -111 -4 -13 -13 -23 -21 -23 -8 0 -14 -10
-14 -25 0 -14 5 -25 10 -25 6 0 10 -33 10 -80 0 -47 -4 -80 -10 -80 -5 0 -10
-13 -10 -30 0 -22 4 -28 15 -24 10 4 16 -3 20 -23 13 -64 47 -147 93 -227 9
-17 52 -65 95 -108 42 -42 77 -82 77 -88 0 -6 6 -10 13 -8 18 3 57 -12 57 -23
0 -5 9 -9 20 -9 11 0 20 -6 20 -14 0 -9 7 -12 20 -9 13 3 22 -1 26 -11 5 -13
14 -15 35 -11 25 6 29 3 29 -14 0 -24 12 -26 39 -9 15 9 25 9 46 0 35 -16 190
-16 215 0 16 10 24 10 40 0 28 -17 40 -15 40 8 0 17 4 19 26 14 18 -5 29 -1
38 11 8 11 20 16 30 12 11 -4 16 -1 16 9 0 11 6 15 20 11 12 -3 20 0 20 8 0
14 22 25 51 25 10 0 19 6 19 14 0 8 18 28 39 46 22 17 64 61 93 98 29 37 56
69 60 70 5 2 8 11 8 19 0 8 9 32 19 52 11 20 22 44 25 54 3 10 9 16 14 13 4
-2 6 11 4 30 -3 22 0 36 9 39 12 4 14 163 11 960 -2 951 -2 954 18 965 11 6
26 7 33 3 17 -10 47 -4 65 13 10 10 24 13 43 9 20 -5 34 -2 46 10 12 13 26 15
58 10 33 -4 44 -2 48 9 5 12 16 14 53 9 33 -4 45 -3 40 5 -9 14 26 24 59 16
19 -5 30 -2 39 11 10 14 21 17 51 12 26 -4 42 -2 49 7 14 18 63 29 71 16 9
-15 35 -12 35 4 0 16 37 28 46 15 9 -15 44 -10 44 7 0 12 8 14 44 9 36 -6 46
-4 54 11 8 14 22 19 54 18 24 0 49 6 56 13 9 9 27 11 51 7 30 -5 39 -3 45 11
5 14 14 16 50 11 34 -5 45 -4 50 9 4 12 14 14 46 9 33 -5 43 -3 54 11 10 14
22 17 54 13 31 -5 42 -2 46 9 5 12 16 14 51 9 37 -6 45 -5 45 9 0 13 8 15 50
9 41 -5 50 -4 50 9 0 19 62 35 68 18 5 -16 32 -14 32 3 0 19 24 27 60 20 20
-5 34 -1 46 11 13 12 26 15 51 10 26 -5 38 -2 46 10 9 11 21 14 42 9 l30 -6 0
-569 c0 -313 -1 -569 -2 -569 -18 0 -53 23 -47 31 4 8 -3 9 -24 5 -19 -5 -34
-2 -43 7 -20 20 -308 18 -332 -2 -10 -8 -27 -11 -41 -7 -16 4 -26 1 -30 -9 -3
-8 -12 -15 -21 -15 -9 0 -26 -7 -39 -15 -13 -9 -28 -15 -32 -14 -22 4 -34 -2
-34 -17 0 -11 -6 -14 -20 -9 -11 4 -19 3 -18 -2 2 -4 -36 -47 -84 -94 -72 -73
-93 -102 -131 -180 -48 -101 -67 -158 -67 -207 0 -17 -7 -37 -15 -46 -21 -20
-20 -103 1 -124 12 -12 15 -29 12 -69 -3 -36 -1 -53 7 -53 6 0 18 -23 25 -51
8 -27 18 -52 22 -55 4 -3 8 -14 8 -25 0 -10 5 -19 10 -19 6 0 10 -6 10 -13 0
-8 9 -22 20 -32 11 -10 20 -23 20 -29 0 -6 26 -36 58 -68 31 -31 62 -64 69
-75 6 -10 17 -17 23 -15 7 1 27 -9 45 -23 19 -14 38 -25 44 -25 6 0 11 -6 11
-14 0 -9 7 -12 19 -9 10 3 22 0 25 -6 4 -6 18 -11 32 -11 14 0 27 -7 31 -16 4
-12 14 -14 40 -9 24 4 35 2 39 -8 7 -20 241 -20 249 1 4 10 15 12 44 7 30 -5
40 -3 44 9 4 9 18 16 32 16 14 0 25 5 25 11 0 7 10 9 25 5 18 -5 24 -3 23 6
-2 8 6 13 18 12 14 0 20 4 17 12 -5 14 26 34 52 34 18 0 45 23 45 38 0 6 26
34 59 64 32 30 62 64 65 75 4 12 13 24 21 27 8 3 15 12 15 21 0 8 11 38 25 67
14 28 25 60 25 70 0 11 7 18 20 18 13 0 20 7 20 20 0 11 -4 20 -10 20 -5 0
-10 11 -10 24 0 14 5 28 10 31 7 4 10 447 10 1296 0 1116 -2 1289 -14 1289 -8
0 -18 -4 -21 -10 -3 -5 -15 -10 -26 -10 -10 0 -19 5 -19 10 0 19 -47 11 -53
-10z"/>
</g>
</svg>
