<?xml version="1.0" standalone="no"?>
<!DOCTYPE svg PUBLIC "-//W3C//DTD SVG 20010904//EN"
 "http://www.w3.org/TR/2001/REC-SVG-20010904/DTD/svg10.dtd">
<svg version="1.0" xmlns="http://www.w3.org/2000/svg"
 width="512.000000pt" height="512.000000pt" viewBox="0 0 512.000000 512.000000"
 preserveAspectRatio="xMidYMid meet">
<metadata>
Created by potrace 1.16, written by Peter Selinger 2001-2019
</metadata>
<g transform="translate(0.000000,512.000000) scale(0.100000,-0.100000)"
fill="#000000" stroke="none">
<path d="M4327 4379 c-5 -19 -11 -21 -43 -16 -26 4 -41 2 -52 -10 -12 -11 -27
-14 -59 -9 -35 5 -43 3 -43 -10 0 -13 -8 -15 -50 -9 -41 6 -50 4 -50 -8 0 -20
-28 -26 -58 -13 -17 7 -25 6 -35 -7 -15 -20 -63 -32 -71 -18 -4 6 -14 11 -22
11 -8 0 -13 -4 -9 -9 10 -16 -35 -33 -70 -27 -25 5 -34 3 -39 -10 -5 -13 -14
-15 -41 -10 -25 5 -40 3 -50 -8 -10 -10 -26 -13 -50 -9 -24 4 -39 1 -51 -12
-13 -12 -28 -16 -55 -12 -28 4 -39 1 -43 -10 -5 -12 -16 -14 -50 -9 -34 5 -45
4 -50 -9 -4 -12 -14 -14 -46 -9 -30 5 -44 3 -53 -8 -15 -19 -55 -29 -63 -17
-8 14 -34 11 -34 -5 0 -17 -73 -33 -78 -17 -5 16 -22 14 -22 -3 0 -17 -41 -29
-54 -16 -15 15 -46 12 -46 -4 0 -18 -31 -30 -41 -15 -5 9 -19 6 -50 -10 -30
-16 -54 -21 -75 -18 -23 4 -34 1 -38 -10 -5 -12 -16 -14 -50 -9 -35 6 -45 4
-50 -10 -5 -13 -15 -15 -50 -10 -35 6 -45 4 -50 -9 -5 -13 -14 -15 -45 -10
-31 5 -40 3 -45 -11 -5 -14 -15 -15 -56 -10 -43 6 -50 4 -50 -10 0 -14 -7 -16
-51 -10 -33 5 -49 3 -45 -3 4 -6 -2 -15 -13 -21 -13 -7 -22 -7 -26 0 -3 5 -20
10 -36 10 -17 0 -28 -4 -24 -9 9 -15 -27 -30 -59 -24 -18 4 -31 1 -37 -8 -5
-8 -24 -13 -50 -13 -25 1 -49 -4 -57 -12 -15 -16 -28 -18 -36 -5 -9 14 -51 1
-65 -21 -12 -19 4 -38 225 -259 196 -196 243 -239 272 -244 27 -5 38 -3 44 9
7 12 19 14 53 9 39 -5 45 -3 45 12 0 15 6 16 44 11 35 -6 45 -4 50 10 5 14 15
15 56 10 36 -5 50 -3 48 5 -4 15 53 32 66 19 13 -13 39 -13 31 -1 -9 16 35 35
48 22 16 -16 47 -14 47 3 0 17 37 27 67 20 14 -4 29 0 39 11 13 12 27 15 52
11 23 -3 39 0 49 9 10 11 26 13 52 9 30 -5 39 -3 45 11 5 14 14 16 50 11 34
-5 45 -4 50 9 4 12 14 14 46 9 33 -5 43 -3 54 11 10 14 22 17 54 13 31 -5 42
-2 46 9 5 12 16 14 51 9 37 -6 45 -5 45 9 0 13 8 15 50 9 41 -5 50 -4 50 9 0
17 43 31 71 22 11 -4 26 0 35 10 11 11 26 14 50 9 24 -4 38 -2 50 11 13 12 26
15 51 10 26 -5 38 -2 46 10 9 11 21 14 42 9 l30 -6 0 -567 0 -567 -22 4 c-13
2 -23 11 -23 19 0 11 -7 13 -29 8 -19 -4 -33 -1 -43 9 -12 11 -41 14 -141 12
-70 -1 -127 1 -127 5 0 11 -43 -3 -59 -19 -9 -8 -25 -12 -42 -8 -18 3 -29 0
-33 -9 -3 -8 -14 -15 -25 -15 -11 0 -21 -5 -23 -10 -3 -9 -25 -15 -70 -19 -5
-1 -8 -8 -8 -17 0 -10 -6 -14 -15 -10 -8 3 -15 0 -16 -7 0 -7 -22 -29 -50 -50
-27 -20 -49 -45 -49 -55 0 -9 216 -233 483 -500 l483 -483 47 53 c65 73 77 87
77 93 0 2 13 32 29 67 17 35 31 72 33 83 2 12 10 19 21 17 11 -2 17 4 17 18 0
11 -4 20 -10 20 -5 0 -10 11 -10 24 0 14 5 28 10 31 7 4 10 447 10 1296 0
1116 -2 1289 -14 1289 -8 0 -18 -4 -21 -10 -3 -5 -15 -10 -26 -10 -10 0 -19 5
-19 10 0 6 -11 10 -24 10 -16 0 -26 -7 -29 -21z"/>
<path d="M812 4067 l-123 -121 496 -496 495 -495 0 -396 c0 -218 -3 -398 -6
-401 -10 -11 -44 4 -44 19 0 11 -7 13 -30 8 -21 -5 -32 -2 -35 7 -4 9 -25 13
-67 13 -39 1 -63 5 -66 13 -5 16 -99 16 -104 0 -3 -8 -27 -12 -66 -13 -42 0
-63 -4 -67 -13 -3 -9 -14 -12 -35 -7 -23 5 -30 3 -30 -9 0 -9 -7 -16 -14 -16
-8 0 -41 -15 -72 -34 -31 -19 -63 -32 -70 -29 -8 3 -14 0 -14 -7 0 -7 -32 -45
-70 -85 -99 -101 -156 -204 -184 -327 -4 -16 -13 -28 -21 -28 -9 0 -15 -10
-15 -25 0 -14 5 -25 10 -25 6 0 10 -33 10 -80 0 -47 -4 -80 -10 -80 -5 0 -10
-13 -10 -29 0 -20 6 -30 20 -34 14 -4 20 -14 20 -35 0 -17 5 -34 10 -37 6 -3
10 -13 10 -20 0 -15 38 -99 68 -149 18 -30 151 -166 163 -166 4 0 9 -9 12 -21
3 -12 10 -18 16 -15 14 9 51 -11 51 -28 0 -9 7 -12 20 -9 14 4 20 0 20 -10 0
-10 6 -13 20 -10 13 3 22 -1 26 -11 5 -13 14 -15 35 -11 22 5 29 3 29 -9 0
-13 8 -14 45 -9 36 4 46 2 51 -11 9 -24 179 -24 188 0 5 13 15 15 51 10 38 -6
45 -5 45 9 0 13 6 15 29 10 21 -4 30 -2 35 11 4 10 13 14 26 11 13 -3 20 0 20
10 0 11 7 14 25 9 19 -5 23 -3 19 8 -4 10 3 17 22 22 32 8 157 129 199 192 15
23 32 42 36 42 5 0 9 7 9 16 0 9 10 35 21 58 12 22 25 49 30 58 5 10 9 31 9
48 0 17 5 30 13 30 9 0 11 122 9 585 -2 468 0 585 10 585 7 0 443 -430 969
-956 l956 -956 119 122 c98 101 118 127 116 148 -4 34 -3244 3276 -3282 3285
-22 5 -41 -9 -148 -116z"/>
</g>
</svg>
