<?xml version="1.0" standalone="no"?>
<!DOCTYPE svg PUBLIC "-//W3C//DTD SVG 20010904//EN"
 "http://www.w3.org/TR/2001/REC-SVG-20010904/DTD/svg10.dtd">
<svg version="1.0" xmlns="http://www.w3.org/2000/svg"
 width="512.000000pt" height="512.000000pt" viewBox="0 0 512.000000 512.000000"
 preserveAspectRatio="xMidYMid meet">
<metadata>
Created by potrace 1.16, written by Peter Selinger 2001-2019
</metadata>
<g transform="translate(0.000000,512.000000) scale(0.100000,-0.100000)"
fill="#000000" stroke="none">
<path d="M2437 4699 c-4 -16 -11 -20 -26 -16 -12 3 -22 -1 -25 -10 -3 -8 -11
-13 -18 -11 -6 2 -22 -6 -35 -18 -14 -13 -31 -20 -39 -17 -8 3 -17 -3 -20 -13
-4 -11 -19 -32 -35 -49 -36 -39 -99 -160 -99 -190 0 -32 -10 -56 -21 -49 -5 3
-9 -19 -9 -50 0 -32 5 -56 11 -58 7 -2 18 -29 26 -58 7 -30 29 -80 48 -112 19
-31 35 -60 35 -65 0 -5 11 -20 25 -33 14 -13 25 -20 25 -16 0 5 11 1 24 -8 49
-31 97 -56 111 -56 7 0 20 -6 27 -13 16 -16 56 -28 62 -18 3 4 42 6 87 5 61
-1 86 2 97 13 8 8 21 12 28 9 8 -3 14 0 14 5 0 6 8 9 18 7 12 -3 24 2 31 14 7
11 19 17 27 14 8 -3 17 1 21 11 4 9 25 36 49 60 44 46 104 149 104 177 0 9 7
19 15 22 16 7 20 39 6 48 -10 7 -7 83 3 93 13 13 6 53 -9 53 -9 0 -15 9 -15
23 0 56 -59 136 -191 260 -11 9 -26 17 -34 17 -8 0 -15 5 -15 11 0 7 -10 9
-25 5 -20 -5 -25 -3 -25 14 0 11 -7 20 -15 20 -8 0 -15 -4 -15 -9 0 -5 -40 -8
-90 -8 -49 1 -90 5 -90 9 0 18 -38 6 -43 -13z"/>
<path d="M4360 4448 c0 -7 -21 -9 -69 -4 -39 3 -72 2 -75 -3 -3 -5 -18 -8 -33
-8 -15 0 -29 -6 -31 -12 -2 -6 -12 -11 -22 -11 -10 0 -21 -7 -24 -16 -4 -10
-13 -13 -26 -9 -15 5 -22 0 -29 -17 -5 -13 -26 -39 -47 -58 -85 -81 -118 -167
-119 -312 -1 -60 2 -108 5 -108 4 0 17 -26 30 -57 13 -32 32 -67 42 -77 10
-11 18 -26 18 -33 0 -19 43 -60 58 -55 6 2 23 -8 37 -22 15 -15 31 -24 36 -21
5 4 12 -1 15 -10 4 -10 13 -13 25 -10 12 4 21 1 24 -7 4 -10 23 -14 57 -14 31
0 53 -5 56 -12 5 -16 49 -15 55 1 2 8 21 11 54 10 39 -2 53 2 57 13 3 9 13 14
20 11 8 -3 17 1 20 9 3 9 11 14 18 12 6 -2 22 6 36 19 14 13 33 23 42 23 16 0
50 29 50 42 0 3 18 36 40 72 22 36 40 73 40 81 0 9 10 20 23 25 12 5 16 9 10
9 -16 1 -19 211 -3 211 6 0 10 5 10 10 0 6 -7 10 -15 10 -9 0 -18 8 -21 18 -4
9 -17 40 -30 67 -25 54 -131 172 -151 167 -7 -1 -17 6 -23 17 -6 12 -16 18
-25 15 -8 -3 -34 3 -57 14 -63 29 -78 33 -78 20z"/>
<path d="M710 4438 c0 -10 -78 -30 -90 -23 -5 3 -14 -4 -20 -15 -6 -11 -16
-19 -23 -18 -19 4 -120 -107 -149 -164 -41 -82 -48 -114 -48 -219 0 -72 -3
-99 -12 -100 -7 0 -3 -4 10 -9 12 -5 22 -16 22 -25 0 -8 18 -45 40 -81 22 -36
40 -70 40 -74 0 -10 29 -34 45 -36 18 -3 65 -35 65 -45 0 -5 7 -6 15 -3 10 4
15 0 15 -11 0 -12 5 -15 20 -10 13 4 22 1 26 -9 4 -11 19 -15 57 -13 33 1 52
-2 54 -10 6 -17 33 -16 72 3 19 10 42 13 60 9 21 -4 30 -2 35 10 4 11 13 14
25 10 12 -3 21 0 25 10 3 9 10 14 15 10 5 -3 21 6 36 21 14 14 31 24 37 22 13
-5 58 35 58 51 0 12 62 115 73 119 4 2 7 15 7 28 0 13 4 24 9 24 4 0 8 48 7
108 -2 145 -36 233 -125 320 -20 20 -40 45 -44 55 -5 13 -13 16 -27 12 -13 -4
-22 -1 -26 9 -3 8 -23 18 -45 21 -22 4 -45 12 -52 19 -13 13 -207 17 -207 4z"/>
<path d="M2300 3702 c-7 -8 -21 -12 -31 -9 -10 3 -20 -1 -23 -8 -3 -8 -13 -11
-25 -8 -15 4 -21 1 -21 -11 0 -10 -4 -15 -9 -12 -5 3 -23 -7 -40 -23 -18 -17
-41 -31 -53 -33 -12 -2 -22 -11 -24 -21 -1 -10 -13 -32 -26 -50 -35 -47 -68
-106 -68 -123 0 -8 -7 -14 -16 -14 -13 0 -14 -3 -5 -14 6 -7 9 -20 7 -27 -2
-8 -7 -27 -10 -42 -4 -15 -11 -25 -16 -22 -6 4 -10 -94 -10 -269 0 -220 3
-276 13 -276 7 0 18 -5 23 -10 7 -7 214 -11 582 -13 469 -2 573 0 577 11 3 8
5 137 5 288 0 176 4 274 10 274 6 0 10 11 10 25 0 14 -6 25 -13 25 -7 0 -19
22 -26 49 -14 57 -57 128 -112 188 -22 24 -39 48 -39 54 0 6 -7 8 -16 5 -9 -3
-28 3 -44 14 -15 11 -33 20 -39 20 -7 0 -14 7 -18 16 -4 11 -13 14 -30 9 -14
-3 -25 -1 -28 7 -8 19 -467 19 -485 0z"/>
<path d="M690 3467 c0 -5 -9 -7 -21 -4 -12 3 -22 0 -26 -9 -3 -8 -12 -13 -20
-10 -7 3 -16 -1 -20 -10 -3 -8 -22 -32 -43 -52 -21 -20 -47 -57 -59 -81 -21
-44 -21 -50 -21 -834 l0 -789 25 -50 c14 -27 25 -57 25 -65 0 -20 49 -63 66
-56 7 2 17 -5 23 -16 7 -12 17 -18 26 -15 8 4 15 1 15 -5 0 -7 9 -9 25 -5 18
4 27 1 31 -10 6 -15 39 -16 318 -16 l311 1 -1 -38 c-1 -21 5 -43 13 -52 10
-10 14 -28 11 -56 -4 -28 0 -45 10 -54 10 -10 13 -26 8 -57 -4 -31 -2 -44 8
-47 14 -6 25 -66 29 -157 1 -25 8 -51 16 -59 8 -9 11 -27 7 -49 -3 -24 0 -39
10 -50 12 -11 14 -26 10 -54 -5 -29 -2 -43 10 -55 11 -12 15 -28 11 -55 -3
-21 -1 -38 3 -38 5 0 19 -21 31 -46 25 -49 94 -119 134 -134 14 -5 25 -16 25
-25 0 -8 7 -15 15 -15 8 0 15 4 15 8 0 11 125 10 136 -1 14 -14 32 -7 37 14 3
12 10 18 16 15 6 -4 19 2 31 14 11 11 28 20 38 20 12 0 30 25 57 77 38 73 40
83 40 165 0 49 3 88 7 88 5 0 8 5 8 10 0 6 -5 9 -12 8 -14 -4 -30 64 -17 76
13 14 11 36 -3 34 -9 -2 -13 12 -12 49 1 32 -2 51 -9 50 -15 -3 -30 74 -17 87
14 14 13 27 -2 24 -16 -4 -29 63 -16 80 8 9 7 16 -4 25 -20 16 -52 177 -38
191 14 14 13 27 -2 24 -9 -2 -13 12 -12 50 1 41 -2 52 -14 52 -12 0 -14 9 -9
49 4 36 2 51 -7 54 -15 6 -27 75 -14 83 12 8 9 34 -4 32 -6 -2 -15 14 -19 35
-5 20 -18 55 -29 76 -20 40 -105 121 -127 121 -7 0 -13 7 -13 16 0 12 -7 14
-29 9 -21 -4 -32 -2 -38 10 -8 14 -41 16 -291 13 l-282 -3 0 583 c0 559 -1
585 -20 643 -15 45 -34 74 -75 116 -30 30 -55 52 -55 48 0 -3 -7 0 -15 9 -9 8
-22 13 -30 10 -8 -4 -15 -2 -15 2 0 5 -36 9 -80 10 -44 0 -80 -4 -80 -9z"/>
<path d="M4270 3466 c0 -4 -7 -6 -15 -2 -8 3 -21 -2 -30 -10 -8 -9 -15 -12
-15 -9 0 4 -25 -18 -55 -48 -41 -42 -60 -71 -75 -116 -19 -58 -20 -84 -20
-643 l0 -583 -282 3 c-250 3 -283 1 -291 -13 -6 -12 -17 -14 -38 -10 -22 5
-29 3 -29 -9 0 -9 -6 -17 -12 -18 -7 0 -17 -2 -23 -3 -5 -2 -16 -3 -23 -4 -7
0 -11 -5 -8 -9 3 -5 -9 -22 -26 -38 -34 -32 -78 -117 -78 -151 0 -12 -7 -26
-16 -31 -11 -6 -14 -14 -8 -23 11 -19 5 -72 -10 -84 -7 -6 -12 -31 -12 -60 1
-32 -3 -49 -10 -48 -8 1 -11 -16 -10 -50 1 -37 -3 -51 -11 -49 -16 3 -17 -14
-3 -23 14 -9 2 -77 -16 -91 -9 -7 -11 -23 -7 -49 5 -30 2 -41 -12 -51 -13 -10
-15 -17 -7 -26 13 -17 0 -84 -16 -80 -15 3 -16 -10 -2 -24 14 -14 0 -84 -17
-84 -11 0 -13 -6 -8 -22 11 -36 6 -72 -12 -85 -12 -9 -13 -16 -5 -25 13 -17 0
-84 -16 -80 -7 1 -12 -2 -12 -8 0 -5 3 -10 8 -10 4 0 7 -39 7 -88 0 -82 2 -92
40 -165 27 -52 45 -77 57 -77 10 0 27 -9 38 -20 12 -12 25 -18 31 -14 6 3 13
-3 16 -15 5 -21 23 -28 37 -14 11 11 136 13 136 2 0 -5 7 -9 15 -9 8 0 15 7
15 15 0 9 11 20 25 25 40 15 115 90 136 137 11 24 23 43 28 43 5 0 7 17 4 38
-4 27 0 43 11 55 12 12 15 26 10 56 -5 33 -3 42 10 47 14 5 16 15 11 49 -5 29
-3 46 7 56 7 8 14 34 15 59 4 91 15 151 29 157 10 3 12 16 8 47 -5 31 -2 47 8
57 10 9 14 26 10 54 -3 28 1 46 11 56 8 9 14 31 13 52 l-1 38 311 -1 c277 0
312 1 318 16 4 12 13 14 36 9 23 -5 30 -3 30 8 0 13 27 28 56 31 22 2 64 41
64 58 0 10 10 37 23 60 l22 43 5 803 c3 441 2 802 -2 802 -4 0 -15 17 -23 37
-9 20 -33 54 -54 74 -21 21 -41 45 -44 53 -4 9 -13 13 -20 10 -8 -3 -17 2 -21
12 -5 13 -9 14 -21 4 -12 -10 -16 -9 -20 2 -4 11 -25 14 -85 14 -44 -1 -80 -5
-80 -10z"/>
<path d="M1414 2537 c-2 -7 -3 -71 -2 -143 l3 -129 1145 0 1145 0 6 115 c3 63
3 126 -1 140 l-6 25 -1143 3 c-932 2 -1143 0 -1147 -11z"/>
<path d="M2110 2002 c0 -11 6 -22 14 -25 17 -7 28 -97 14 -115 -8 -9 -6 -16 7
-26 15 -11 17 -22 11 -75 -5 -42 -4 -61 3 -57 15 10 24 -38 17 -85 -5 -30 -2
-44 10 -56 13 -13 15 -29 10 -74 -3 -38 -2 -59 5 -61 15 -5 32 -112 19 -116
-6 -2 -10 -10 -10 -18 0 -9 4 -12 10 -9 14 9 23 -40 16 -86 -5 -30 -2 -44 10
-56 13 -13 15 -29 11 -71 -4 -42 -2 -58 10 -70 12 -12 14 -28 9 -73 -5 -40 -3
-58 5 -61 16 -5 30 -100 17 -115 -7 -9 -5 -17 6 -28 9 -9 16 -25 16 -36 0 -53
104 -190 131 -173 5 3 11 -1 14 -8 4 -9 30 -13 94 -13 49 0 87 3 84 8 -5 8 47
30 55 22 9 -9 52 37 52 55 0 9 7 25 15 36 8 10 15 27 15 37 0 10 6 20 13 22 8
4 11 21 9 54 -3 33 1 52 12 63 11 12 14 28 9 65 -4 37 -2 54 10 64 10 9 13 26
9 51 -5 44 5 91 18 83 6 -4 7 17 4 54 -6 50 -4 62 9 67 13 5 15 16 10 56 -5
43 -3 53 13 65 15 11 16 17 7 32 -7 10 -10 27 -8 37 13 65 17 74 25 69 7 -4 8
14 4 51 -6 49 -4 59 12 71 14 10 16 18 9 31 -14 23 -3 98 13 95 14 -3 16 9 2
23 -14 14 3 110 19 106 10 -2 12 4 6 20 -11 37 -6 92 10 104 8 6 15 23 15 38
0 20 -5 26 -22 26 -200 0 -830 11 -850 16 -23 5 -28 2 -28 -14z"/>
</g>
</svg>
