<?xml version="1.0" standalone="no"?>
<!DOCTYPE svg PUBLIC "-//W3C//DTD SVG 20010904//EN"
 "http://www.w3.org/TR/2001/REC-SVG-20010904/DTD/svg10.dtd">
<svg version="1.0" xmlns="http://www.w3.org/2000/svg"
 width="512.000000pt" height="512.000000pt" viewBox="0 0 512.000000 512.000000"
 preserveAspectRatio="xMidYMid meet">
<metadata>
Created by potrace 1.16, written by Peter Selinger 2001-2019
</metadata>
<g transform="translate(0.000000,512.000000) scale(0.100000,-0.100000)"
fill="#000000" stroke="none">
<path d="M2368 4679 c-99 -26 -168 -119 -168 -226 0 -68 18 -126 38 -118 7 3
54 10 103 15 82 9 112 8 274 -12 15 -2 22 5 30 30 5 17 12 32 15 32 7 0 4 80
-4 105 -4 11 -18 43 -32 70 -21 42 -35 55 -83 79 -59 29 -123 39 -173 25z"/>
<path d="M2324 4280 c-33 -5 -94 -20 -135 -35 -41 -14 -80 -26 -86 -27 -7 -1
-13 -5 -13 -10 0 -4 -3 -7 -7 -6 -5 1 -28 -8 -52 -21 -244 -127 -451 -355
-552 -606 -70 -174 -89 -309 -124 -850 -10 -162 -15 -195 -40 -260 -27 -74
-105 -227 -180 -360 -85 -147 -162 -297 -183 -350 -10 -27 -22 -59 -27 -70 -4
-11 -9 -38 -11 -60 -2 -22 -7 -47 -10 -55 -7 -19 -11 -120 -4 -120 3 0 13 -20
24 -45 30 -73 82 -109 225 -156 69 -23 137 -43 151 -46 13 -2 29 -8 36 -14 6
-5 13 -6 16 -4 3 3 18 0 34 -6 16 -7 35 -11 42 -10 6 1 12 -3 12 -10 0 -6 7
-9 15 -5 8 3 15 1 15 -3 0 -5 9 -7 20 -4 12 3 20 0 20 -7 0 -7 6 -10 13 -7 8
3 67 -8 133 -24 65 -16 135 -32 154 -35 19 -2 49 -7 65 -9 17 -3 40 -5 52 -5
12 0 25 -5 28 -10 3 -5 19 -7 34 -4 17 4 32 1 36 -5 4 -7 19 -9 40 -5 18 3 35
2 39 -4 3 -5 28 -7 56 -4 27 2 50 1 50 -4 0 -11 417 -9 443 1 10 4 35 5 57 1
24 -4 41 -2 46 5 4 6 20 8 39 5 19 -4 36 -2 40 4 3 6 18 10 33 10 15 0 42 2
60 5 17 3 44 7 60 9 15 3 38 7 52 10 14 3 41 8 60 11 19 4 71 16 115 27 44 11
89 21 100 22 12 1 26 6 33 10 7 4 17 4 22 1 6 -3 10 -1 10 6 0 6 8 9 20 6 10
-3 20 -1 22 4 2 6 15 11 29 13 13 1 30 6 37 10 7 4 17 4 22 1 6 -3 10 -1 10 5
0 6 4 9 9 6 4 -3 61 12 126 34 65 22 122 37 126 34 5 -3 9 0 9 6 0 6 5 8 10 5
6 -3 10 -1 10 5 0 6 5 8 10 5 6 -3 10 -1 10 5 0 6 5 8 10 5 6 -3 10 -2 10 4 0
5 8 12 18 15 22 7 70 83 78 125 4 17 11 34 15 37 13 7 11 61 -2 69 -5 4 -9 17
-8 28 1 12 -1 29 -5 38 -4 9 -6 20 -4 25 8 30 -81 225 -198 431 -148 261 -213
401 -228 494 l-6 36 -73 6 c-84 8 -122 15 -159 31 -9 4 -25 9 -35 11 -10 2
-20 4 -23 5 -3 1 -8 2 -12 1 -5 0 -8 4 -8 11 0 6 -3 9 -6 5 -13 -13 -149 68
-201 119 -17 18 -34 30 -36 27 -3 -2 -14 9 -26 24 -12 15 -36 45 -54 66 -109
128 -177 322 -177 507 0 142 58 326 140 445 39 57 141 167 148 160 3 -3 12 4
19 15 12 17 12 22 1 33 -23 23 -181 122 -190 119 -4 -1 -8 3 -8 9 0 5 -4 7
-10 4 -5 -3 -10 -1 -10 4 0 6 -3 10 -7 9 -13 -3 -53 13 -53 21 0 3 -8 7 -17 8
-10 1 -50 11 -90 22 -86 24 -215 33 -299 21z"/>
<path d="M3360 4116 c-218 -47 -404 -190 -504 -388 -55 -110 -76 -198 -76
-329 0 -334 222 -618 550 -705 88 -23 263 -23 350 0 253 68 448 255 525 506 9
31 19 106 22 170 5 97 2 129 -16 200 -63 252 -242 444 -486 525 -98 33 -263
42 -365 21z m255 -348 c3 -13 4 -148 3 -301 l-3 -277 76 0 76 0 0 -65 -1 -65
-237 0 -237 0 0 65 0 65 89 0 89 0 0 220 c0 121 -3 220 -7 220 -3 0 -39 -18
-78 -40 l-73 -39 -21 55 c-11 31 -21 57 -21 59 0 2 30 19 68 38 37 19 87 47
112 61 34 19 59 26 102 26 51 0 58 -2 63 -22z"/>
<path d="M2105 912 c-10 -26 -19 -54 -22 -62 -7 -21 -7 -112 0 -130 3 -8 11
-33 17 -55 29 -94 141 -200 235 -220 17 -4 65 -7 107 -7 68 0 84 4 140 34 78
41 121 86 158 163 39 80 47 153 26 235 -9 35 -21 69 -27 76 -7 9 -35 11 -102
6 -120 -8 -297 -8 -419 1 l-96 7 -17 -48z m355 -13 c0 -6 6 -9 14 -6 7 3 27
-8 42 -24 25 -26 29 -39 29 -84 0 -43 -5 -59 -24 -79 -77 -82 -213 -31 -213
79 0 46 26 89 64 108 38 19 88 22 88 6z"/>
</g>
</svg>
