<?xml version="1.0" standalone="no"?>
<!DOCTYPE svg PUBLIC "-//W3C//DTD SVG 20010904//EN"
 "http://www.w3.org/TR/2001/REC-SVG-20010904/DTD/svg10.dtd">
<svg version="1.0" xmlns="http://www.w3.org/2000/svg"
 width="512.000000pt" height="512.000000pt" viewBox="0 0 512.000000 512.000000"
 preserveAspectRatio="xMidYMid meet">
<metadata>
Created by potrace 1.16, written by Peter Selinger 2001-2019
</metadata>
<g transform="translate(0.000000,512.000000) scale(0.100000,-0.100000)"
fill="#000000" stroke="none">
<path d="M1430 4681 c-8 -5 -17 -8 -21 -6 -3 3 -34 -9 -68 -25 -34 -17 -64
-30 -67 -30 -3 0 -12 -7 -21 -15 -8 -8 -19 -13 -24 -10 -5 4 -9 1 -9 -5 0 -6
-15 -24 -32 -39 -50 -44 -95 -127 -118 -215 -19 -76 -20 -109 -20 -923 l0
-843 -30 0 c-16 0 -30 -4 -30 -9 0 -5 -16 -12 -35 -15 -45 -9 -101 -64 -115
-113 -8 -26 -10 -223 -8 -633 l3 -595 30 -42 c34 -48 73 -70 139 -79 l46 -7 0
-111 c0 -62 7 -138 15 -174 17 -72 63 -168 94 -196 12 -11 21 -24 21 -30 0 -6
8 -16 19 -21 40 -22 127 -74 139 -85 7 -6 17 -8 22 -5 6 3 10 1 10 -5 0 -7 7
-10 15 -7 8 4 17 2 20 -3 4 -6 483 -10 1259 -10 1059 0 1259 2 1292 14 21 8
50 17 64 20 46 10 155 106 201 177 17 27 40 76 50 110 18 58 19 115 19 1465
l0 1404 -530 530 -529 530 -864 0 c-476 0 -877 2 -893 5 -16 3 -36 1 -44 -4z
m1682 -603 l3 -333 26 -55 c21 -45 119 -164 119 -145 0 3 19 -5 43 -17 41 -22
51 -23 368 -26 l326 -3 7 -882 c3 -485 9 -1073 12 -1307 5 -306 3 -437 -5
-467 -11 -39 -81 -132 -81 -108 0 6 -5 3 -10 -5 -8 -13 -156 -15 -1217 -18
-664 -1 -1222 0 -1240 3 -42 8 -92 50 -112 95 -12 28 -15 62 -13 153 l3 117
1087 0 c740 0 1099 4 1125 11 55 15 104 65 127 128 18 51 19 84 20 600 0 516
-1 549 -19 599 -20 54 -66 114 -92 120 -8 2 -15 7 -17 12 -2 4 -12 6 -22 3
-11 -3 -20 0 -20 6 0 8 -295 11 -1095 11 l-1095 0 -2 847 c-3 792 -2 850 15
886 20 47 60 84 102 96 17 5 395 10 842 10 l811 1 4 -332z m-1394 -1912 c121
-52 176 -211 113 -334 -45 -88 -130 -133 -263 -140 l-88 -4 0 -134 0 -134 -85
0 -85 0 0 379 0 380 33 4 c17 3 100 4 182 3 118 -2 159 -6 193 -20z m632 14
c128 -24 230 -102 271 -208 32 -80 32 -232 0 -313 -45 -117 -114 -180 -241
-220 -74 -24 -241 -36 -343 -25 l-67 8 0 378 0 379 38 4 c81 8 292 6 342 -3z
m880 -65 l0 -75 -145 0 -145 0 0 -85 0 -85 135 0 135 0 0 -70 0 -70 -135 0
-135 0 0 -155 0 -155 -90 0 -90 0 0 378 c0 208 3 382 7 385 3 4 109 7 235 7
l228 0 0 -75z"/>
<path d="M1485 2048 c-3 -8 -4 -61 -3 -119 l3 -104 50 0 c95 1 147 41 149 116
2 76 -35 109 -131 117 -49 4 -64 2 -68 -10z"/>
<path d="M2163 2054 l-23 -5 0 -251 0 -250 83 3 c72 4 90 8 132 34 67 41 99
103 104 203 6 125 -30 201 -112 241 -43 21 -141 34 -184 25z"/>
</g>
</svg>
