<?xml version="1.0" standalone="no"?>
<!DOCTYPE svg PUBLIC "-//W3C//DTD SVG 20010904//EN"
 "http://www.w3.org/TR/2001/REC-SVG-20010904/DTD/svg10.dtd">
<svg version="1.0" xmlns="http://www.w3.org/2000/svg"
 width="512.000000pt" height="512.000000pt" viewBox="0 0 512.000000 512.000000"
 preserveAspectRatio="xMidYMid meet">
<metadata>
Created by potrace 1.16, written by Peter Selinger 2001-2019
</metadata>
<g transform="translate(0.000000,512.000000) scale(0.100000,-0.100000)"
fill="#000000" stroke="none">
<path d="M1490 4690 c0 -7 -143 -35 -172 -34 -10 0 -18 -4 -18 -9 0 -5 -7 -7
-15 -3 -8 3 -15 1 -15 -4 0 -5 -7 -7 -15 -4 -8 4 -15 1 -15 -6 0 -6 -4 -9 -9
-5 -5 3 -12 1 -16 -5 -4 -6 -11 -8 -16 -5 -5 4 -9 2 -9 -3 0 -9 -47 -27 -62
-24 -5 1 -8 -2 -8 -6 0 -5 -18 -17 -40 -27 -48 -22 -51 -32 -10 -32 49 0 111
-51 145 -122 21 -43 34 -60 45 -56 8 2 62 21 120 41 l105 37 170 -1 c153 -1
179 -3 260 -27 235 -68 418 -201 554 -405 59 -89 123 -232 125 -282 0 -16 5
-28 10 -28 4 0 6 -9 3 -20 -3 -11 -1 -23 4 -26 5 -3 9 -17 9 -32 0 -15 0 -79
0 -142 -1 -63 -1 -127 -1 -142 0 -15 -4 -30 -10 -33 -5 -4 -7 -11 -3 -16 9
-15 -34 -146 -76 -230 -101 -203 -247 -351 -448 -453 -29 -15 -57 -24 -62 -21
-6 4 -10 2 -10 -3 0 -14 -87 -42 -105 -35 -8 3 -15 0 -15 -7 0 -7 -6 -10 -14
-7 -8 3 -17 3 -21 -1 -9 -9 -36 -11 -198 -15 -76 -1 -141 1 -144 6 -2 4 -13 5
-23 2 -10 -3 -21 -1 -25 5 -4 6 -15 8 -26 5 -11 -4 -19 -2 -19 5 0 6 -5 8 -10
5 -6 -4 -16 -2 -23 3 -7 6 -15 11 -19 11 -5 1 -9 1 -10 2 -2 0 -13 2 -25 5
-91 17 -271 133 -376 243 -86 90 -134 160 -183 266 -38 83 -78 220 -70 241 3
8 1 14 -5 14 -8 0 -9 15 -5 44 4 27 3 47 -4 51 -17 10 -12 55 6 55 13 0 15 7
9 38 -13 83 53 299 109 351 l22 20 80 -68 c65 -55 84 -67 101 -60 36 13 38 20
62 214 5 44 10 143 10 221 1 135 0 142 -23 167 -30 33 -86 41 -219 33 -56 -4
-129 -9 -162 -11 -33 -2 -80 -6 -105 -9 -25 -3 -54 -6 -64 -6 -40 -2 -76 -29
-76 -58 0 -22 16 -43 79 -100 l80 -72 -39 -83 c-43 -91 -94 -241 -112 -329 -7
-32 -15 -58 -19 -58 -4 0 -7 -85 -6 -190 0 -104 3 -190 7 -190 4 0 10 -21 14
-46 9 -66 60 -212 106 -306 65 -129 127 -215 235 -324 183 -184 409 -305 660
-355 103 -20 339 -18 445 5 230 50 444 163 612 324 161 154 265 318 332 524
45 138 60 230 59 373 -1 312 -121 605 -342 837 -101 107 -207 188 -321 247
-47 24 -87 47 -90 50 -3 3 -14 8 -25 9 -11 2 -23 9 -27 15 -4 7 -8 8 -8 3 0
-5 -7 -3 -15 4 -8 7 -15 9 -15 4 0 -4 -5 -3 -11 3 -6 6 -18 9 -27 6 -11 -5
-13 -3 -7 7 5 8 4 11 -2 7 -11 -7 -165 23 -173 34 -6 8 -340 8 -340 -1z"/>
<path d="M3639 4358 c-14 -4 -36 -26 -50 -48 -13 -22 -28 -40 -32 -40 -5 0 -5
-5 -2 -10 4 -6 2 -17 -4 -24 -8 -10 -10 -95 -8 -287 3 -151 5 -282 6 -291 1
-10 21 -38 44 -63 49 -53 91 -65 176 -51 39 6 89 59 108 116 16 43 18 537 3
590 -5 20 -27 53 -49 74 -36 35 -44 39 -103 41 -34 1 -75 -2 -89 -7z"/>
<path d="M1891 3840 c-197 -183 -217 -199 -250 -199 -54 0 -81 -4 -81 -13 0
-4 -6 -8 -13 -8 -34 0 -97 -100 -97 -155 0 -37 42 -128 68 -147 15 -11 21 -44
36 -223 19 -212 33 -270 63 -258 7 3 13 0 13 -6 0 -6 9 -11 20 -11 11 0 20 5
20 10 0 6 6 10 13 10 8 0 24 11 36 24 21 22 24 40 37 227 7 111 11 205 9 209
-2 3 12 38 31 76 26 50 34 77 31 100 -5 28 10 49 184 250 201 233 212 251 169
294 -44 44 -61 33 -289 -180z"/>
<path d="M2920 4032 c0 -4 4 -12 8 -17 27 -30 108 -296 97 -315 -3 -6 -1 -10
6 -10 7 0 9 -10 6 -30 -4 -17 -2 -30 3 -30 6 0 7 -18 4 -44 -4 -27 -2 -46 5
-50 14 -9 15 -162 1 -171 -7 -4 -8 -24 -4 -51 4 -31 3 -44 -6 -44 -8 0 -9 -10
-5 -30 4 -20 3 -30 -5 -30 -6 0 -9 -8 -6 -18 4 -10 -3 -45 -14 -78 -11 -32
-20 -62 -20 -67 0 -4 311 -6 690 -5 l690 3 0 -1095 c0 -1224 5 -1141 -70
-1185 -35 -20 -47 -20 -1550 -23 -1111 -2 -1525 0 -1554 8 -43 13 -106 70
-106 98 0 9 0 317 0 685 0 531 -2 667 -12 667 -7 0 -38 15 -70 34 -31 19 -59
32 -62 29 -3 -4 -6 -1 -6 5 0 7 -7 12 -15 12 -8 0 -15 5 -15 10 0 6 -7 10 -15
10 -8 0 -15 5 -15 10 0 6 -5 10 -10 10 -6 0 -16 5 -23 10 -7 6 -28 24 -47 40
-19 16 -41 30 -48 30 -10 0 -11 -154 -8 -767 3 -766 4 -815 18 -829 5 -4 8
-14 8 -22 0 -8 15 -47 34 -86 38 -79 139 -191 181 -202 14 -3 25 -10 25 -16 0
-5 5 -6 10 -3 6 3 10 1 10 -4 0 -6 3 -10 8 -10 4 1 10 0 15 -1 13 -4 21 -6 59
-14 21 -5 36 -11 34 -15 -5 -8 3158 -8 3164 1 3 4 19 9 35 12 17 2 31 5 33 6
1 2 7 4 12 5 6 1 13 4 18 5 4 1 10 2 15 1 4 0 7 4 7 10 0 5 5 7 10 4 6 -3 10
-1 10 5 0 6 5 8 10 5 6 -3 13 1 16 9 3 9 10 13 15 10 5 -3 12 2 15 10 3 9 12
16 18 16 15 0 76 62 76 78 0 7 5 12 10 12 6 0 10 6 10 14 0 8 4 16 8 18 10 4
62 125 62 144 0 8 4 14 10 14 11 0 14 2837 2 2842 -7 3 -42 92 -45 117 -1 8
-12 26 -25 39 -12 14 -21 27 -19 29 4 4 -98 107 -108 110 -4 1 -11 5 -14 10
-9 13 -128 61 -181 73 -25 5 -96 10 -158 10 l-113 0 0 -182 c0 -161 -3 -237
-9 -245 -2 -2 -3 -6 -4 -10 -4 -23 -30 -73 -37 -73 -5 0 -9 -6 -9 -13 0 -15
-60 -76 -60 -61 0 5 -6 2 -13 -6 -16 -20 -70 -45 -130 -61 -57 -14 -122 -7
-183 20 -24 11 -47 20 -50 20 -3 0 -12 8 -20 18 -7 10 -14 14 -14 9 0 -12 -50
34 -50 46 0 5 -9 19 -20 31 -12 12 -23 33 -26 47 -3 14 -8 32 -11 40 -10 25
-10 28 -11 228 l-2 192 -235 0 c-129 0 -235 -4 -235 -8z"/>
<path d="M2895 2721 c-3 -2 -5 -80 -5 -173 l0 -168 170 0 170 0 0 170 c0 94
-3 171 -7 172 -21 4 -324 4 -328 -1z"/>
<path d="M3550 2716 c-6 -6 -10 -82 -10 -173 l0 -163 175 0 175 0 0 170 0 170
-37 2 c-118 6 -295 2 -303 -6z"/>
<path d="M1572 1898 l3 -173 165 0 165 0 1 160 c0 88 -1 166 -4 173 -3 9 -46
12 -168 12 l-164 0 2 -172z"/>
<path d="M2230 1895 l0 -175 165 0 165 0 0 175 0 175 -165 0 -165 0 0 -175z"/>
<path d="M2890 1895 l0 -175 170 0 170 0 0 175 0 175 -170 0 -170 0 0 -175z"/>
<path d="M3546 2054 c-3 -9 -6 -85 -6 -169 0 -130 2 -154 16 -159 20 -8 298
-8 318 0 14 5 16 30 16 175 l0 169 -169 0 c-145 0 -170 -2 -175 -16z"/>
<path d="M1570 1235 l0 -165 169 0 168 0 -1 163 -1 162 -167 3 -168 2 0 -165z"/>
<path d="M2230 1235 l0 -165 165 0 165 0 0 165 0 165 -165 0 -165 0 0 -165z"/>
<path d="M2890 1235 l0 -165 170 0 170 0 0 165 0 165 -170 0 -170 0 0 -165z"/>
<path d="M3540 1235 l0 -165 175 0 175 0 0 165 0 165 -175 0 -175 0 0 -165z"/>
</g>
</svg>
