<?xml version="1.0" standalone="no"?>
<!DOCTYPE svg PUBLIC "-//W3C//DTD SVG 20010904//EN"
 "http://www.w3.org/TR/2001/REC-SVG-20010904/DTD/svg10.dtd">
<svg version="1.0" xmlns="http://www.w3.org/2000/svg"
 width="512.000000pt" height="512.000000pt" viewBox="0 0 512.000000 512.000000"
 preserveAspectRatio="xMidYMid meet">
<metadata>
Created by potrace 1.16, written by Peter Selinger 2001-2019
</metadata>
<g transform="translate(0.000000,512.000000) scale(0.100000,-0.100000)"
fill="#000000" stroke="none">
<path d="M1965 4224 c-36 -18 -115 -91 -286 -264 l-235 -239 -415 -3 c-410 -3
-414 -3 -461 -26 -71 -35 -141 -104 -177 -173 l-31 -61 0 -1174 c0 -681 4
-1174 9 -1174 5 0 12 -12 15 -27 17 -67 101 -152 191 -194 39 -18 112 -19
1986 -19 l1946 0 47 25 c96 51 165 123 182 188 3 15 10 27 15 27 5 0 9 493 9
1174 l0 1174 -31 61 c-36 69 -111 143 -179 175 -43 20 -62 21 -450 24 l-405 3
-245 243 c-170 169 -259 249 -291 264 -45 22 -52 22 -595 22 l-549 -1 -50 -25z
m2460 -825 c98 -86 41 -239 -90 -239 -108 0 -173 121 -112 211 29 43 60 59
119 59 39 0 54 -6 83 -31z m-1695 -63 c202 -44 351 -120 488 -251 129 -123
196 -224 248 -379 50 -147 59 -196 59 -331 -1 -116 -4 -141 -33 -238 -59 -200
-137 -333 -264 -452 -151 -143 -273 -205 -498 -255 -119 -25 -221 -25 -340 0
-202 45 -329 105 -458 219 -154 137 -242 277 -304 486 -29 99 -32 123 -33 240
0 135 9 184 59 331 80 237 274 454 492 550 66 29 196 72 255 83 70 14 258 12
329 -3z"/>
<path d="M2405 3116 c-159 -43 -260 -100 -371 -210 -100 -100 -140 -166 -191
-317 -25 -74 -28 -98 -28 -209 1 -110 4 -135 29 -210 48 -143 91 -216 186
-310 101 -101 179 -149 315 -193 89 -28 113 -32 215 -32 102 0 126 4 215 32
136 44 214 92 315 193 94 95 139 169 186 310 25 75 28 100 29 210 0 111 -3
134 -28 210 -49 145 -91 215 -191 316 -96 95 -178 146 -316 194 -81 29 -285
38 -365 16z"/>
</g>
</svg>
