<?xml version="1.0" standalone="no"?>
<!DOCTYPE svg PUBLIC "-//W3C//DTD SVG 20010904//EN"
 "http://www.w3.org/TR/2001/REC-SVG-20010904/DTD/svg10.dtd">
<svg version="1.0" xmlns="http://www.w3.org/2000/svg"
 width="512.000000pt" height="512.000000pt" viewBox="0 0 512.000000 512.000000"
 preserveAspectRatio="xMidYMid meet">
<metadata>
Created by potrace 1.16, written by Peter Selinger 2001-2019
</metadata>
<g transform="translate(0.000000,512.000000) scale(0.100000,-0.100000)"
fill="#000000" stroke="none">
<path d="M2275 4720 c-66 -10 -147 -25 -180 -34 -32 -8 -62 -13 -66 -10 -4 2
-11 -1 -14 -7 -4 -5 -13 -8 -21 -5 -8 3 -14 0 -14 -5 0 -6 -9 -9 -20 -6 -11 3
-20 1 -20 -4 0 -5 -3 -8 -7 -8 -5 1 -10 1 -13 -1 -3 -1 -16 -3 -29 -6 -13 -2
-49 -15 -80 -29 -31 -13 -63 -26 -71 -27 -8 -2 -18 -7 -21 -11 -3 -4 -16 -9
-27 -10 -12 -1 -22 -5 -22 -10 0 -4 -4 -6 -9 -3 -5 4 -11 2 -13 -3 -1 -5 -37
-25 -78 -46 -41 -21 -99 -53 -128 -71 -29 -19 -55 -34 -57 -34 -11 0 -196
-143 -277 -213 -290 -255 -529 -637 -638 -1023 -29 -102 -67 -270 -68 -304 -1
-8 -4 -44 -9 -80 -9 -75 -9 -340 -1 -420 13 -118 20 -159 45 -265 121 -514
405 -956 813 -1264 112 -85 327 -218 342 -214 5 2 8 -2 8 -9 0 -6 3 -9 6 -5 3
3 42 -12 87 -34 45 -22 101 -45 125 -51 23 -6 42 -14 42 -19 0 -5 7 -6 15 -3
8 4 15 1 15 -5 0 -6 7 -8 15 -5 8 4 15 1 15 -6 0 -7 7 -10 15 -6 8 3 15 1 15
-5 0 -6 4 -8 8 -5 5 3 51 -6 103 -19 180 -46 275 -56 529 -52 268 4 294 7 456
46 65 16 122 27 126 25 5 -3 8 -1 8 5 0 6 7 8 15 5 8 -4 15 -1 15 6 0 7 7 10
15 6 8 -3 15 -1 15 5 0 6 7 9 15 5 8 -3 15 -2 15 3 0 4 19 14 43 20 23 7 76
29 117 48 41 19 83 36 93 38 24 5 197 111 302 184 417 291 720 732 854 1244
53 201 64 286 63 532 0 230 -9 313 -53 494 -134 543 -436 988 -879 1294 -52
36 -103 73 -112 81 -10 9 -20 16 -23 15 -7 -1 -208 102 -215 110 -3 3 -13 7
-22 9 -10 2 -41 14 -70 27 -29 14 -58 25 -65 25 -6 0 -24 5 -40 12 -15 6 -31
11 -35 10 -5 -1 -8 3 -8 9 0 6 -7 9 -15 5 -8 -3 -15 -1 -15 3 0 5 -9 7 -20 4
-12 -3 -20 0 -20 6 0 7 -4 9 -10 6 -5 -3 -16 -3 -22 1 -7 5 -19 9 -28 10 -8 1
-60 11 -115 22 -217 45 -485 54 -700 22z m490 -869 c107 -30 115 -33 115 -40
0 -4 6 -8 14 -8 25 0 126 -66 192 -127 106 -96 180 -213 224 -351 19 -60 22
-93 22 -225 0 -132 -3 -165 -22 -225 -54 -171 -161 -318 -300 -411 -92 -62
-252 -127 -289 -117 -12 3 -21 1 -21 -5 0 -6 -15 -11 -32 -11 -18 0 -59 -3
-91 -7 -38 -4 -63 -2 -72 6 -9 7 -26 9 -45 5 -20 -4 -30 -3 -30 5 0 8 -8 10
-21 7 -25 -7 -132 30 -215 72 -177 92 -328 283 -379 481 -25 94 -26 284 -3
382 34 150 113 285 226 390 64 59 156 120 166 111 3 -4 6 -1 6 6 0 7 5 9 10 6
6 -3 10 -1 10 5 0 6 5 8 10 5 6 -3 10 -1 10 4 0 6 8 11 18 11 10 0 22 4 28 8
8 8 111 35 174 46 52 10 227 -4 295 -23z m45 -1787 c47 -9 92 -17 100 -18 9
-1 21 -5 28 -10 6 -4 17 -4 22 -1 6 3 10 2 10 -4 0 -6 7 -8 15 -5 8 4 15 1 15
-6 0 -6 4 -9 9 -5 11 6 139 -43 226 -87 198 -100 375 -250 511 -431 72 -95
153 -233 175 -295 11 -31 9 -33 -47 -84 -80 -74 -155 -132 -250 -194 -91 -59
-284 -158 -284 -147 0 5 -4 3 -8 -3 -10 -16 -249 -97 -262 -89 -5 3 -10 2 -10
-4 0 -6 -6 -8 -14 -5 -8 3 -17 0 -21 -5 -3 -6 -11 -9 -16 -5 -5 3 -15 1 -22
-4 -7 -5 -19 -10 -27 -10 -8 0 -30 -3 -48 -6 -207 -33 -418 -39 -582 -16 -52
7 -102 14 -110 14 -9 1 -21 5 -28 10 -6 4 -17 4 -22 1 -6 -4 -16 -3 -23 2 -7
5 -25 10 -42 11 -16 1 -31 6 -33 12 -2 5 -9 7 -16 4 -16 -6 -268 83 -278 98
-4 7 -8 9 -8 5 0 -13 -178 82 -275 146 -99 67 -212 156 -263 209 l-33 35 24
54 c123 276 392 556 663 692 91 46 224 98 234 92 6 -3 10 -1 10 5 0 7 7 10 15
6 8 -3 15 -1 15 5 0 6 5 7 10 4 6 -3 16 -3 22 1 7 5 19 9 28 10 8 1 24 4 35 7
22 5 151 25 205 31 67 8 266 -4 350 -20z"/>
</g>
</svg>
