<?xml version="1.0" standalone="no"?>
<!DOCTYPE svg PUBLIC "-//W3C//DTD SVG 20010904//EN"
 "http://www.w3.org/TR/2001/REC-SVG-20010904/DTD/svg10.dtd">
<svg version="1.0" xmlns="http://www.w3.org/2000/svg"
 width="512.000000pt" height="512.000000pt" viewBox="0 0 512.000000 512.000000"
 preserveAspectRatio="xMidYMid meet">

<g transform="translate(0.000000,512.000000) scale(0.100000,-0.100000)"
fill="#000000" stroke="none">
<path d="M943 4615 c-53 -12 -179 -66 -249 -108 -93 -56 -196 -177 -255 -302
-76 -161 -72 -108 -76 -1250 -4 -1041 -2 -1117 34 -1250 38 -139 139 -286 263
-382 134 -104 246 -142 440 -152 l135 -6 5 -342 5 -342 81 67 c45 37 108 88
140 113 109 86 338 269 429 343 220 181 195 166 281 166 69 0 75 2 69 18 -21
47 -36 125 -42 205 l-6 87 -99 0 -99 0 -121 -98 c-251 -201 -304 -242 -320
-242 -5 0 -8 76 -8 169 l0 169 -277 4 -278 3 -68 32 c-94 45 -166 116 -208
206 l-34 72 0 1110 0 1110 27 57 c48 102 147 192 255 229 54 18 93 19 1133 19
1039 0 1079 -1 1133 -19 110 -38 191 -112 253 -232 l28 -54 6 -250 5 -250 150
0 150 0 3 239 c3 272 -5 318 -81 476 -34 71 -58 101 -137 180 -93 94 -144 127
-280 184 -83 34 -143 36 -1239 35 -871 0 -1098 -3 -1148 -14z"/>
<path d="M1450 4044 c-239 -46 -406 -201 -471 -436 -29 -103 -29 -277 1 -385
33 -118 64 -177 135 -252 118 -125 253 -176 468 -176 125 -1 129 -2 148 -25
10 -14 19 -30 19 -35 0 -6 17 -27 38 -47 114 -110 284 -116 387 -13 50 50 75
117 82 218 l6 77 -57 0 -56 0 0 -46 c0 -57 -14 -84 -45 -84 -40 0 -75 50 -75
105 0 14 15 48 34 77 73 115 106 242 106 402 -1 305 -142 519 -395 598 -59 18
-269 33 -325 22z m193 -279 c46 -32 78 -81 105 -165 24 -72 41 -234 25 -243
-5 -3 -34 6 -64 21 -77 37 -179 42 -254 12 -30 -12 -59 -28 -66 -36 -6 -8 -18
-14 -25 -14 -11 0 -14 19 -14 85 0 108 14 175 53 249 59 111 155 148 240 91z
m-26 -537 c26 -29 39 -55 46 -95 5 -26 2 -36 -19 -52 -39 -31 -77 -35 -126
-13 -81 36 -86 71 -19 142 45 47 85 53 118 18z"/>
<path d="M2782 3285 c-178 -49 -324 -200 -361 -373 -15 -70 -15 -1517 0 -1581
36 -160 170 -303 336 -362 67 -23 76 -24 451 -26 l383 -2 92 -72 c51 -40 119
-95 152 -123 33 -29 71 -59 85 -69 14 -9 72 -55 129 -102 58 -47 108 -85 113
-85 4 0 9 102 10 227 l3 227 85 2 c229 5 412 143 483 364 20 63 21 86 25 768
3 791 2 818 -62 948 -50 100 -145 189 -252 235 l-79 34 -770 2 c-642 2 -779 0
-823 -12z m1085 -597 c6 -7 20 -47 33 -88 12 -41 28 -93 35 -115 8 -22 32
-101 55 -175 23 -74 48 -153 55 -175 7 -22 25 -80 40 -130 15 -49 38 -121 50
-160 l22 -70 57 -3 56 -3 0 -104 0 -105 -325 0 -325 0 0 105 0 105 76 0 76 0
-6 28 c-4 15 -12 39 -18 55 l-10 27 -164 0 c-184 0 -170 5 -189 -77 l-7 -33
61 0 61 0 0 -105 0 -105 -257 2 -258 3 -3 102 -3 102 57 3 c68 4 51 -31 165
343 9 33 27 92 39 130 12 39 30 99 41 135 11 36 22 73 25 82 5 12 -1 17 -23
20 l-28 3 -3 94 c-1 52 -1 100 2 108 8 19 599 19 613 1z"/>
<path d="M3557 2370 c-9 -25 -25 -79 -37 -120 -12 -41 -28 -95 -36 -119 -8
-25 -14 -46 -14 -48 0 -2 48 -3 106 -3 97 0 106 1 99 18 -4 9 -16 46 -26 82
-41 137 -47 156 -61 195 l-15 39 -16 -44z"/>
</g>
</svg>
