<?xml version="1.0" standalone="no"?>
<!DOCTYPE svg PUBLIC "-//W3C//DTD SVG 20010904//EN"
 "http://www.w3.org/TR/2001/REC-SVG-20010904/DTD/svg10.dtd">
<svg version="1.0" xmlns="http://www.w3.org/2000/svg"
 width="512.000000pt" height="512.000000pt" viewBox="0 0 512.000000 512.000000"
 preserveAspectRatio="xMidYMid meet">

<g transform="translate(0.000000,512.000000) scale(0.100000,-0.100000)"
fill="#000000" stroke="none">
<path d="M2524 4281 c-12 -5 -31 -22 -43 -37 -19 -24 -21 -39 -21 -155 0 -71
-2 -129 -4 -129 -2 0 -40 -7 -83 -15 -404 -77 -722 -373 -831 -772 l-26 -98
-6 -572 -5 -572 -151 -153 c-149 -150 -152 -154 -164 -213 -33 -157 20 -289
135 -341 11 -5 193 -11 404 -14 l384 -5 12 -40 c51 -170 195 -298 368 -327
217 -36 438 108 501 327 l12 40 384 5 c375 5 386 6 427 27 40 22 77 62 102
111 19 36 25 151 11 217 -12 59 -15 63 -164 213 l-151 153 -5 572 -6 572 -27
99 c-91 335 -336 605 -660 726 -43 16 -223 59 -249 60 -5 0 -8 58 -8 130 0
128 0 130 -27 160 -30 32 -75 45 -109 31z m239 -545 c276 -70 497 -269 595
-535 48 -131 51 -178 52 -756 0 -521 1 -542 21 -585 13 -30 69 -94 165 -191
142 -144 144 -146 144 -190 0 -25 -5 -50 -12 -57 -17 -17 -2319 -17 -2336 0
-7 7 -12 32 -12 57 0 44 2 46 144 190 96 97 152 161 165 191 20 43 21 64 21
585 1 578 4 625 52 756 150 408 585 640 1001 535z m27 -2536 c0 -21 -29 -65
-62 -96 -53 -51 -95 -68 -168 -68 -73 0 -115 17 -168 68 -33 31 -62 75 -62 96
0 7 76 10 230 10 154 0 230 -3 230 -10z"/>
<path d="M656 3549 c-162 -165 -288 -410 -331 -642 -8 -45 -20 -101 -25 -125
-13 -55 -13 -239 0 -294 5 -24 17 -79 25 -124 21 -112 48 -191 109 -319 62
-129 154 -261 236 -339 48 -46 65 -56 93 -56 52 0 97 45 97 99 0 35 -8 49 -61
108 -200 225 -299 481 -299 778 0 297 96 547 299 779 52 59 61 75 61 107 0 53
-33 89 -88 96 -43 6 -44 5 -116 -68z"/>
<path d="M4314 3610 c-32 -13 -54 -50 -54 -91 0 -30 11 -48 68 -113 126 -143
215 -309 263 -493 27 -100 36 -322 20 -447 -29 -218 -133 -435 -297 -618 -45
-51 -54 -67 -54 -98 0 -52 46 -100 97 -100 28 0 45 10 93 56 134 128 263 352
322 559 48 169 71 408 49 510 -6 28 -17 87 -26 132 -44 232 -170 477 -330 641
-73 75 -96 84 -151 62z"/>
<path d="M1074 3253 c-55 -32 -133 -132 -189 -242 -112 -223 -114 -526 -5
-742 68 -134 166 -252 219 -264 63 -14 131 57 115 121 -4 14 -28 51 -55 82
-54 63 -106 157 -135 242 -27 78 -27 292 0 370 29 85 81 180 135 242 27 32 52
71 56 87 8 38 -16 86 -55 106 -37 19 -48 19 -86 -2z"/>
<path d="M3954 3251 c-38 -23 -59 -76 -45 -113 5 -13 30 -49 56 -79 54 -63
118 -189 140 -274 8 -32 15 -100 15 -150 0 -50 -7 -118 -15 -150 -22 -88 -87
-212 -143 -277 -27 -31 -52 -68 -56 -82 -16 -63 52 -135 115 -121 80 18 221
226 271 402 33 114 33 344 0 456 -58 201 -208 407 -296 407 -6 0 -25 -9 -42
-19z"/>
</g>
</svg>
