<?xml version="1.0" standalone="no"?>
<!DOCTYPE svg PUBLIC "-//W3C//DTD SVG 20010904//EN"
 "http://www.w3.org/TR/2001/REC-SVG-20010904/DTD/svg10.dtd">
<svg version="1.0" xmlns="http://www.w3.org/2000/svg"
 width="512.000000pt" height="512.000000pt" viewBox="0 0 512.000000 512.000000"
 preserveAspectRatio="xMidYMid meet">

<g transform="translate(0.000000,512.000000) scale(0.100000,-0.100000)"
fill="#000000" stroke="none">
<path d="M433 4423 c-30 -6 -83 -60 -83 -84 0 -10 -4 -19 -10 -19 -5 0 -10
-13 -10 -30 0 -16 4 -30 9 -30 5 0 12 -11 15 -25 3 -13 23 -37 43 -52 l36 -28
291 -5 c366 -6 341 6 385 -190 12 -52 26 -111 31 -130 5 -19 19 -75 30 -125
12 -49 25 -106 30 -125 6 -19 19 -75 30 -125 23 -102 47 -204 60 -255 5 -19
19 -75 30 -125 12 -49 25 -106 30 -125 6 -19 19 -75 30 -125 23 -102 47 -204
60 -255 5 -19 19 -75 30 -125 12 -49 25 -106 30 -125 6 -19 19 -75 30 -125 12
-49 34 -146 51 -215 16 -69 37 -154 45 -190 29 -120 45 -175 59 -203 18 -34
19 -47 5 -47 -29 0 -146 -122 -176 -183 -13 -28 -31 -85 -41 -129 -15 -74 -15
-83 1 -161 36 -170 138 -289 301 -353 61 -23 235 -27 281 -5 16 7 45 21 64 30
50 23 112 66 135 93 114 133 147 286 100 471 l-7 27 521 0 521 0 -6 -27 c-4
-16 -11 -32 -15 -37 -12 -14 -11 -223 1 -231 6 -3 10 -13 10 -21 0 -30 49
-120 91 -168 47 -54 130 -111 175 -122 16 -4 35 -12 43 -18 19 -15 233 -15
252 0 8 7 29 15 47 19 17 3 32 10 32 13 0 4 13 13 29 20 54 24 139 119 178
200 35 73 37 82 37 182 1 119 -12 163 -77 267 -27 43 -58 76 -103 108 -119 85
-42 79 -1094 85 -514 3 -942 8 -950 11 -43 15 -81 43 -95 70 -17 33 -55 171
-55 201 0 17 38 18 1095 18 1023 0 1097 1 1123 17 55 36 62 50 97 208 13 55
26 113 60 255 8 30 21 87 30 125 9 39 23 95 30 125 8 30 21 87 30 125 9 39 23
97 31 130 8 33 21 87 29 120 7 33 20 87 28 120 8 33 22 92 31 130 25 107 46
194 63 260 8 33 17 75 20 93 3 17 9 32 14 32 15 0 10 65 -7 99 -8 17 -30 42
-48 56 l-33 25 -1529 2 -1529 3 -13 55 c-7 30 -16 71 -22 90 -5 19 -18 74 -30
122 -19 78 -44 145 -59 158 -3 3 -18 21 -33 42 -15 20 -45 46 -65 59 -21 13
-40 26 -43 29 -3 3 -25 14 -50 25 -41 17 -75 19 -350 21 -168 1 -315 0 -327
-3z m1792 -883 c4 -6 11 -72 16 -148 6 -75 12 -157 14 -182 1 -25 6 -82 10
-127 l8 -83 -326 0 -325 0 -12 48 c-6 26 -17 74 -25 107 -7 33 -23 98 -35 145
-48 193 -57 235 -53 243 7 12 721 9 728 -3z m1010 -132 c-4 -79 -11 -165 -16
-192 -5 -27 -9 -76 -9 -110 0 -33 -3 -71 -6 -83 l-6 -23 -323 0 -323 0 -7 65
c-4 36 -9 84 -10 107 -2 24 -8 102 -14 173 -6 72 -11 147 -11 168 l0 37 366 0
366 0 -7 -142z m1020 110 c-3 -18 -10 -44 -15 -58 -5 -14 -18 -70 -30 -125
-12 -55 -26 -111 -30 -125 -5 -14 -12 -43 -15 -65 -4 -22 -10 -51 -15 -65 -5
-14 -11 -37 -14 -52 l-6 -28 -327 0 -326 0 7 73 c4 39 9 92 11 117 13 201 26
343 31 351 3 5 161 9 370 9 l366 0 -7 -32z m-1969 -796 c6 -4 15 -59 19 -122
12 -170 13 -185 22 -303 5 -60 5 -111 1 -113 -4 -3 -119 -5 -255 -5 -281 0
-258 -8 -279 96 -7 33 -20 89 -29 125 -10 36 -23 92 -30 125 -7 33 -20 88 -29
123 -9 35 -14 68 -10 73 6 11 574 12 590 1z m888 -1 c4 -5 1 -69 -5 -143 -6
-73 -13 -162 -16 -198 -8 -127 -18 -201 -25 -200 -5 0 -122 0 -262 0 l-253 0
-8 113 c-5 61 -9 126 -10 142 -2 17 -7 86 -13 155 -5 69 -8 128 -5 133 6 10
591 9 597 -2z m880 0 c7 -11 -9 -89 -69 -331 -9 -36 -22 -94 -30 -128 -7 -35
-17 -68 -22 -73 -6 -6 -117 -10 -259 -10 l-249 0 1 78 c0 43 3 107 6 143 4 36
9 119 13 185 4 66 12 126 18 133 11 15 582 18 591 3z m-2025 -1429 c63 -50 88
-135 61 -206 -12 -32 -80 -107 -90 -101 -5 3 -11 1 -15 -5 -3 -5 -32 -10 -64
-10 -49 0 -65 5 -99 30 -103 74 -109 200 -14 284 45 40 65 46 131 41 41 -3 63
-11 90 -33z m1861 19 c19 -10 50 -38 69 -62 31 -41 33 -47 29 -110 -3 -53 -9
-73 -30 -101 -60 -78 -178 -92 -256 -30 -49 39 -77 104 -70 160 17 121 156
198 258 143z"/>
</g>
</svg>
