<?xml version="1.0" standalone="no"?>
<!DOCTYPE svg PUBLIC "-//W3C//DTD SVG 20010904//EN"
 "http://www.w3.org/TR/2001/REC-SVG-20010904/DTD/svg10.dtd">
<svg version="1.0" xmlns="http://www.w3.org/2000/svg"
 width="512.000000pt" height="512.000000pt" viewBox="0 0 512.000000 512.000000"
 preserveAspectRatio="xMidYMid meet">

<g transform="translate(0.000000,512.000000) scale(0.100000,-0.100000)"
fill="#000000" stroke="none">
<path d="M2460 4730 c-164 -20 -327 -88 -452 -188 -351 -280 -438 -759 -211
-1152 52 -89 209 -246 300 -299 140 -83 310 -131 458 -131 227 0 467 99 626
259 176 178 260 383 260 637 -1 344 -205 658 -523 802 -128 58 -324 89 -458
72z m161 -553 c54 -36 69 -77 69 -187 l0 -96 41 -39 c69 -67 84 -117 54 -175
-25 -48 -62 -70 -118 -70 -49 0 -51 1 -141 90 l-91 89 -3 158 c-2 145 -1 161
18 191 37 60 113 78 171 39z"/>
<path d="M1553 2340 c-64 -39 -63 -30 -63 -550 0 -509 1 -519 54 -553 49 -33
75 -30 205 17 l124 45 76 -42 c65 -36 84 -42 136 -42 50 0 75 7 148 42 l87 42
88 -42 c121 -58 173 -58 295 0 l87 42 88 -42 c76 -36 96 -42 152 -41 56 0 77
6 149 42 46 23 87 42 93 42 5 0 54 -21 109 -46 118 -54 151 -54 206 1 l33 33
0 492 c0 446 -2 495 -17 521 -37 62 13 59 -1050 59 -942 0 -969 -1 -1000 -20z"/>
<path d="M463 2315 c-18 -8 -42 -29 -53 -47 -20 -33 -20 -45 -18 -915 l3 -883
31 -31 c62 -62 167 -43 200 36 11 28 14 104 14 400 l0 365 190 -2 190 -3 3
-370 c2 -352 3 -372 22 -405 45 -77 165 -77 210 0 19 34 20 50 20 485 0 501 2
482 -68 525 -30 18 -52 20 -299 20 l-268 0 0 368 c0 411 -1 416 -71 454 -40
21 -63 22 -106 3z"/>
<path d="M4554 2316 c-17 -8 -40 -26 -52 -41 -22 -27 -22 -33 -22 -406 l0
-379 -267 0 c-302 0 -323 -4 -355 -70 -16 -32 -18 -76 -18 -478 0 -489 -1
-484 63 -522 41 -25 83 -25 124 0 63 38 63 40 63 450 l0 370 193 -2 192 -3 5
-380 c5 -416 5 -411 66 -440 67 -31 135 -8 164 57 19 42 20 72 20 893 0 948 4
894 -69 942 -39 26 -63 28 -107 9z"/>
<path d="M2430 810 l0 -160 -148 0 c-124 0 -153 -3 -181 -18 -66 -36 -87 -116
-46 -179 34 -51 50 -53 508 -53 l424 0 34 23 c60 40 76 105 39 164 -33 55 -61
63 -230 63 l-150 0 0 160 0 160 -27 -7 c-35 -9 -159 -9 -195 0 l-28 7 0 -160z"/>
</g>
</svg>
