<?xml version="1.0" standalone="no"?>
<!DOCTYPE svg PUBLIC "-//W3C//DTD SVG 20010904//EN"
 "http://www.w3.org/TR/2001/REC-SVG-20010904/DTD/svg10.dtd">
<svg version="1.0" xmlns="http://www.w3.org/2000/svg"
 width="512.000000pt" height="512.000000pt" viewBox="0 0 512.000000 512.000000"
 preserveAspectRatio="xMidYMid meet">

<g transform="translate(0.000000,512.000000) scale(0.100000,-0.100000)"
fill="#000000" stroke="none">
<path d="M2460 4631 c-157 -33 -296 -175 -336 -340 -19 -78 -19 -295 0 -310 9
-7 38 -11 73 -9 l58 3 6 145 c6 171 24 224 95 290 62 57 120 80 205 80 87 0
160 -31 214 -92 64 -71 78 -114 84 -278 l6 -145 58 -3 c85 -4 87 -1 87 137 0
196 -44 317 -149 413 -83 76 -163 109 -275 113 -50 2 -107 1 -126 -4z"/>
<path d="M1238 3793 c-26 -29 -192 -249 -222 -295 -14 -22 -19 -63 -26 -215
-5 -103 -16 -318 -25 -478 -8 -159 -20 -378 -25 -485 -24 -489 -30 -607 -40
-780 -5 -102 -14 -279 -20 -395 -6 -115 -15 -271 -20 -345 -6 -74 -10 -167
-10 -207 0 -65 2 -73 26 -92 l27 -21 1657 0 1657 0 27 21 c24 19 26 27 26 92
0 40 -4 133 -10 207 -5 74 -14 230 -20 345 -6 116 -15 291 -20 390 -6 99 -15
275 -20 390 -16 319 -28 561 -45 875 -8 157 -17 346 -20 420 -11 271 -2 242
-122 403 -58 78 -117 154 -131 170 l-26 27 -1296 0 -1296 0 -26 -27z m2591
-175 c28 -35 50 -69 51 -75 0 -10 -270 -13 -1320 -13 -1050 0 -1320 3 -1320
13 1 6 23 40 51 75 l49 62 1220 0 1220 0 49 -62z m-1571 -403 c77 -33 112 -86
112 -170 0 -67 -14 -98 -70 -147 l-41 -38 3 -297 3 -298 28 -57 c67 -137 227
-201 370 -148 73 27 130 79 164 148 l28 57 3 301 4 302 -41 42 c-22 23 -45 58
-52 77 -27 83 17 189 94 224 119 54 253 -21 264 -149 6 -63 -16 -112 -72 -159
l-45 -37 0 -276 c-1 -302 -8 -361 -56 -457 -83 -164 -282 -266 -460 -236 -137
24 -271 119 -329 233 -48 95 -55 152 -55 462 0 278 -1 288 -20 298 -11 6 -34
29 -50 52 -26 35 -30 50 -30 103 0 53 4 68 31 104 51 72 139 98 217 66z"/>
<path d="M2161 3061 c-13 -24 8 -55 34 -50 28 6 42 34 26 53 -18 22 -48 20
-60 -3z"/>
<path d="M2915 3061 c-8 -26 4 -51 25 -51 25 0 43 25 35 50 -8 26 -51 27 -60
1z"/>
</g>
</svg>
