<?xml version="1.0" standalone="no"?>
<!DOCTYPE svg PUBLIC "-//W3C//DTD SVG 20010904//EN"
 "http://www.w3.org/TR/2001/REC-SVG-20010904/DTD/svg10.dtd">
<svg version="1.0" xmlns="http://www.w3.org/2000/svg"
 width="512.000000pt" height="512.000000pt" viewBox="0 0 512.000000 512.000000"
 preserveAspectRatio="xMidYMid meet">

<g transform="translate(0.000000,512.000000) scale(0.100000,-0.100000)"
fill="#000000" stroke="none">
<path d="M2475 4360 c-62 -30 -928 -902 -954 -960 -27 -60 -26 -96 5 -158 43
-87 139 -125 235 -93 24 8 119 96 319 296 l285 285 5 -808 5 -808 28 -42 c39
-60 94 -85 172 -80 76 5 127 38 156 102 18 39 19 81 19 841 l0 799 293 -291
c276 -275 295 -291 340 -301 115 -24 222 49 234 162 11 92 15 87 -476 579
-251 252 -473 467 -493 478 -48 25 -122 25 -173 -1z"/>
<path d="M885 2266 c-38 -17 -91 -73 -104 -109 -7 -18 -11 -161 -11 -396 0
-405 3 -431 63 -551 40 -81 141 -184 222 -227 128 -67 42 -64 1527 -61 1299 3
1345 4 1393 22 171 66 287 185 342 351 27 80 27 81 31 436 2 234 0 370 -7 396
-33 121 -150 183 -259 138 -44 -19 -78 -49 -100 -90 -15 -26 -18 -81 -22 -402
-5 -356 -6 -373 -26 -399 -11 -15 -33 -37 -48 -48 -27 -21 -30 -21 -1329 -21
l-1302 0 -33 23 c-67 48 -66 47 -72 458 l-5 371 -24 35 c-38 55 -84 81 -149
85 -35 2 -69 -2 -87 -11z"/>
</g>
</svg>
