<?xml version="1.0" standalone="no"?>
<!DOCTYPE svg PUBLIC "-//W3C//DTD SVG 20010904//EN"
 "http://www.w3.org/TR/2001/REC-SVG-20010904/DTD/svg10.dtd">
<svg version="1.0" xmlns="http://www.w3.org/2000/svg"
 width="512.000000pt" height="512.000000pt" viewBox="0 0 512.000000 512.000000"
 preserveAspectRatio="xMidYMid meet">

<g transform="translate(0.000000,512.000000) scale(0.100000,-0.100000)"
fill="#000000" stroke="none">
<path d="M2399 4466 c-3 -3 -54 -12 -114 -21 -181 -26 -312 -59 -387 -96 -10
-5 -26 -9 -37 -9 -10 0 -24 -7 -31 -15 -7 -8 -20 -15 -29 -15 -10 0 -26 -7
-37 -15 -10 -8 -27 -15 -36 -15 -10 0 -18 -4 -18 -8 0 -4 -12 -13 -27 -19 -16
-7 -50 -26 -78 -42 -27 -17 -58 -34 -67 -37 -10 -4 -18 -10 -18 -15 0 -5 -5
-9 -11 -9 -10 0 -102 -67 -169 -123 -216 -183 -382 -396 -496 -637 -57 -119
-74 -164 -124 -326 -62 -195 -84 -561 -48 -779 27 -161 66 -317 99 -390 4 -11
17 -43 28 -71 92 -241 305 -533 521 -715 69 -59 195 -151 220 -163 8 -3 29
-15 45 -26 17 -11 38 -23 48 -26 9 -4 17 -10 17 -15 0 -5 8 -9 19 -9 10 0 24
-7 31 -15 7 -8 20 -15 30 -15 10 0 23 -7 30 -15 7 -8 23 -15 36 -15 13 0 24
-4 24 -9 0 -5 10 -11 23 -14 28 -6 83 -25 122 -42 17 -8 41 -16 55 -19 14 -2
54 -12 90 -21 36 -9 81 -19 100 -21 19 -3 73 -12 120 -20 63 -11 130 -15 255
-12 174 5 257 14 405 50 47 11 99 22 115 25 17 3 39 12 50 19 11 8 27 14 37
14 16 0 66 19 110 41 10 5 24 9 32 9 7 0 19 7 26 15 7 8 20 15 30 15 10 0 23
7 30 15 7 8 21 15 31 15 11 0 19 5 19 10 0 6 5 10 11 10 10 0 157 87 169 100
3 3 41 32 85 64 171 127 390 382 490 571 21 39 41 75 45 80 18 25 105 248 121
310 43 166 43 166 65 321 34 243 -6 635 -82 812 -8 18 -14 39 -14 47 0 14 -7
33 -54 138 -14 32 -26 59 -26 61 0 11 -133 231 -170 281 -78 104 -186 228
-251 285 -84 75 -235 190 -248 190 -6 0 -11 4 -11 8 0 5 -19 18 -42 31 -24 12
-52 27 -63 34 -69 43 -96 57 -109 57 -7 0 -19 7 -26 15 -7 8 -20 15 -30 15
-15 0 -59 17 -102 41 -10 5 -24 9 -33 9 -8 0 -29 6 -47 14 -55 23 -110 39
-163 48 -27 5 -93 16 -145 25 -91 15 -430 30 -441 19z m411 -254 c76 -11 184
-35 220 -50 14 -5 45 -15 70 -22 25 -7 72 -25 105 -40 33 -16 79 -36 103 -46
23 -10 42 -21 42 -26 0 -4 8 -8 19 -8 10 0 24 -7 31 -15 7 -8 18 -15 24 -15
13 0 181 -125 261 -195 197 -171 398 -488 474 -748 19 -65 43 -171 60 -273 14
-78 14 -350 0 -428 -29 -170 -78 -357 -107 -412 -6 -11 -26 -53 -46 -94 -155
-321 -396 -577 -705 -747 -57 -31 -71 -39 -116 -58 -22 -10 -52 -24 -67 -32
-14 -7 -35 -13 -45 -13 -10 0 -23 -4 -29 -8 -5 -5 -38 -16 -74 -26 -36 -9 -79
-22 -96 -27 -150 -46 -596 -46 -748 0 -17 5 -58 17 -91 26 -33 9 -69 20 -80
24 -11 5 -40 17 -65 26 -45 18 -207 96 -245 118 -11 7 -48 31 -82 55 -347 237
-593 595 -690 1002 -23 97 -33 180 -40 330 -25 575 272 1137 767 1455 133 85
347 184 400 185 8 0 28 7 44 15 15 8 38 15 51 15 12 0 42 7 65 15 23 8 66 15
94 16 28 1 62 5 76 9 30 11 328 4 420 -8z"/>
<path d="M2041 3483 c-64 -31 -61 13 -61 -932 l0 -859 31 -31 c39 -39 74 -49
98 -27 10 9 21 16 25 16 4 0 33 17 64 37 71 47 89 57 129 78 18 9 37 23 44 31
6 8 17 14 24 14 7 0 18 6 24 14 7 8 26 21 44 30 36 19 39 21 149 94 44 28 82
52 84 52 3 0 31 17 62 37 31 20 73 46 92 56 19 11 49 30 67 43 17 13 35 24 38
24 3 0 21 10 38 23 18 12 41 27 52 34 11 6 87 54 168 105 82 51 169 104 193
119 73 41 99 73 99 120 0 36 -6 46 -40 75 -22 19 -53 41 -70 50 -42 22 -66 36
-100 59 -17 11 -39 26 -50 32 -36 22 -187 118 -214 135 -14 10 -33 21 -41 25
-8 3 -28 16 -45 27 -34 24 -57 38 -102 61 -18 9 -37 23 -44 31 -6 8 -17 14
-24 14 -7 0 -18 6 -24 14 -7 8 -26 21 -44 30 -44 22 -66 36 -108 69 -20 15
-40 27 -44 27 -5 0 -23 11 -41 25 -18 14 -35 25 -38 25 -7 0 -189 112 -196
120 -3 4 -12 10 -20 13 -8 4 -28 16 -45 27 -37 24 -105 63 -126 71 -9 4 -30 0
-48 -8z"/>
</g>
</svg>
