<?xml version="1.0" standalone="no"?>
<!DOCTYPE svg PUBLIC "-//W3C//DTD SVG 20010904//EN"
 "http://www.w3.org/TR/2001/REC-SVG-20010904/DTD/svg10.dtd">
<svg version="1.0" xmlns="http://www.w3.org/2000/svg"
 width="512.000000pt" height="512.000000pt" viewBox="0 0 512.000000 512.000000"
 preserveAspectRatio="xMidYMid meet">

<g transform="translate(0.000000,512.000000) scale(0.100000,-0.100000)"
fill="#000000" stroke="none">
<path d="M2120 4830 c-20 -20 -20 -33 -20 -615 0 -525 2 -596 15 -601 25 -10
93 42 117 89 21 42 21 47 19 476 -1 298 2 444 9 467 23 67 -28 64 985 64 1028
0 977 4 993 -69 5 -20 8 -343 7 -719 l-1 -682 -27 -28 -28 -27 -717 -1 c-394
0 -735 -4 -756 -8 -22 -4 -60 -18 -85 -31 -49 -24 -141 -101 -141 -116 0 -6
361 -8 930 -7 l929 3 22 22 21 21 1 871 c0 825 -1 872 -18 891 -18 20 -33 20
-1127 20 -1095 0 -1108 0 -1128 -20z"/>
<path d="M2741 4157 c-6 -8 -10 -56 -8 -128 1 -95 -1 -120 -17 -149 -37 -69
-59 -91 -154 -157 -182 -125 -307 -217 -448 -329 -185 -147 -236 -180 -325
-211 -66 -23 -97 -26 -289 -33 -305 -12 -432 -46 -534 -147 -104 -102 -139
-218 -152 -509 l-7 -162 26 -26 26 -26 400 0 c274 0 416 4 451 12 79 18 84 31
90 222 8 228 20 248 230 397 58 41 275 201 482 356 273 204 385 294 405 324
38 58 36 103 -9 171 -50 76 -58 107 -65 253 -3 72 -10 136 -16 143 -13 16 -72
16 -86 -1z"/>
<path d="M1257 4130 c-120 -31 -241 -127 -290 -232 -141 -298 68 -638 392
-638 202 0 359 115 423 308 25 77 24 194 -3 278 -39 120 -134 219 -259 269
-52 20 -205 29 -263 15z"/>
<path d="M737 2060 c-112 -29 -234 -128 -286 -234 -68 -139 -57 -314 30 -441
140 -208 427 -258 628 -111 218 160 241 491 46 675 -30 29 -85 66 -121 83 -58
27 -80 32 -163 34 -53 2 -113 -1 -134 -6z"/>
<path d="M1880 2056 c-154 -45 -282 -181 -310 -332 -35 -182 38 -361 186 -459
174 -115 395 -98 547 43 59 56 89 101 119 180 31 80 30 214 -1 294 -46 119
-141 215 -261 263 -58 23 -218 30 -280 11z"/>
<path d="M3048 2059 c-103 -24 -219 -111 -275 -206 -31 -53 -62 -162 -63 -218
0 -61 37 -181 74 -238 169 -264 538 -278 728 -29 102 134 117 318 38 472 -30
59 -124 152 -186 183 -87 44 -220 59 -316 36z"/>
<path d="M4190 2056 c-68 -20 -121 -49 -178 -101 -209 -188 -182 -534 54 -690
141 -94 314 -100 465 -18 65 35 147 124 185 199 27 56 29 66 29 184 0 122 -1
127 -33 193 -46 92 -114 159 -208 204 -68 32 -86 36 -172 39 -60 2 -114 -2
-142 -10z"/>
<path d="M730 999 c-173 -18 -341 -94 -425 -192 -71 -83 -83 -143 -77 -409 l2
-128 2340 0 2340 0 0 128 c0 378 -75 496 -365 573 -116 30 -349 38 -448 14
-126 -30 -239 -91 -334 -178 l-42 -38 -76 60 c-90 72 -190 122 -299 150 -109
29 -282 29 -392 1 -102 -26 -242 -95 -322 -160 l-63 -51 -62 56 c-80 72 -213
137 -325 159 -45 9 -132 16 -193 16 -226 0 -393 -59 -529 -186 l-48 -45 -64
51 c-166 134 -397 201 -618 179z"/>
</g>
</svg>
