
<svg version="1.0" xmlns="http://www.w3.org/2000/svg"
 width="69" height="63" viewBox="0 0 119.000000 105.000000"
 preserveAspectRatio="xMidYMid meet">

<g transform="translate(0.000000,105.000000) scale(0.100000,-0.100000)"
fill="#d1864f" stroke="none">
<path d="M235 934 c-42 -21 -111 -91 -130 -130 -9 -19 -15 -60 -15 -98 l0 -66
70 0 70 0 0 59 c0 55 2 61 35 89 19 17 51 36 72 41 21 6 134 11 253 11 119 0
232 -5 253 -11 21 -5 53 -24 72 -41 33 -28 35 -34 35 -89 l0 -59 70 0 70 0 0
66 c0 40 -6 79 -16 99 -19 40 -103 121 -139 135 -15 6 -161 10 -348 10 -271 0
-327 -3 -352 -16z"/>
<path d="M375 776 c-60 -28 -87 -56 -114 -116 -18 -39 -21 -65 -21 -210 0
-153 2 -169 24 -215 28 -60 56 -87 116 -114 39 -18 65 -21 210 -21 145 0 171
3 210 21 60 27 88 54 116 114 22 46 24 62 24 215 0 153 -2 169 -24 215 -28 60
-56 87 -116 114 -39 18 -65 21 -210 21 -153 0 -169 -2 -215 -24z"/>
</g>
</svg>
